<svg xmlns="http://www.w3.org/2000/svg" xmlns:xlink="http://www.w3.org/1999/xlink" width="60" zoomAndPan="magnify" viewBox="0 0 45 44.999999" height="60" preserveAspectRatio="xMidYMid meet" version="1.0"><defs><clipPath id="1e13a5d3e7"><path d="M 1.546875 1 L 43.546875 1 L 43.546875 44 L 1.546875 44 Z M 1.546875 1 " clip-rule="nonzero"/></clipPath></defs><path fill="#393939" d="M 4.90625 24.039062 L 5.1875 24.167969 L 4.910156 23.351562 C 5.023438 23.648438 5.382812 23.621094 5.273438 24.160156 C 5.511719 23.976562 5.753906 23.925781 5.96875 23.839844 C 6.8125 23.074219 7.171875 22.832031 7.171875 22.832031 C 7.171875 22.832031 6.679688 22.5 5.488281 21.375 C 4.457031 20.402344 3.816406 21.058594 3.714844 21.566406 C 3.542969 22.433594 4.59375 22.832031 4.59375 22.832031 C 4.59375 22.832031 3.542969 23.226562 3.714844 24.09375 C 3.808594 24.570312 4.371094 25.167969 5.28125 24.464844 C 5.144531 24.390625 5.015625 24.257812 4.90625 24.039062 Z M 4.90625 24.039062 " fill-opacity="1" fill-rule="nonzero"/><path fill="#393939" d="M 39.605469 24.289062 C 39.632812 24.3125 39.65625 24.332031 39.679688 24.355469 C 39.65625 24.230469 39.652344 24.125 39.738281 24.03125 C 39.910156 24.546875 40.238281 24.414062 40.554688 24.332031 C 40.792969 24.273438 41.019531 24.242188 41.167969 24.519531 L 41.179688 24.507812 L 41.171875 24.488281 L 41.191406 24.488281 C 41.285156 24.371094 41.347656 24.238281 41.378906 24.09375 C 41.550781 23.226562 40.5 22.828125 40.5 22.828125 C 40.496094 22.828125 41.550781 22.433594 41.378906 21.5625 C 41.277344 21.054688 40.636719 20.402344 39.605469 21.371094 C 38.414062 22.496094 37.921875 22.828125 37.921875 22.828125 C 37.921875 22.828125 38.414062 23.164062 39.605469 24.289062 Z M 39.605469 24.289062 " fill-opacity="1" fill-rule="nonzero"/><path fill="#393939" d="M 11.828125 31.511719 C 11.582031 31.214844 11.351562 30.902344 11.132812 30.582031 C 10.984375 30.679688 11.007812 30.941406 11.03125 31.082031 C 11.03125 31.085938 11.035156 31.089844 11.039062 31.09375 C 11.070312 31.214844 11.050781 31.175781 11.03125 31.082031 C 10.878906 30.730469 10.714844 30.160156 10.320312 30.210938 L 10.441406 30.847656 C 10.675781 31.199219 10.925781 31.542969 11.191406 31.875 C 11.316406 31.628906 11.558594 31.558594 11.828125 31.511719 Z M 11.828125 31.511719 " fill-opacity="1" fill-rule="nonzero"/><path fill="#393939" d="M 35.015625 16.902344 C 35.917969 18.773438 36.367188 20.753906 36.363281 22.832031 C 36.363281 30.433594 30.167969 36.617188 22.550781 36.617188 C 21.085938 36.617188 19.660156 36.394531 18.269531 35.9375 C 16.878906 35.484375 15.597656 34.828125 14.417969 33.964844 C 14.121094 34.039062 13.816406 34.097656 13.5625 34.21875 C 15.355469 35.636719 17.371094 36.574219 19.609375 37.03125 C 19.609375 36.996094 19.605469 36.960938 19.597656 36.925781 C 19.910156 36.964844 20.207031 37.050781 20.492188 37.1875 C 21.175781 37.28125 21.859375 37.328125 22.546875 37.328125 C 23.5 37.328125 24.445312 37.238281 25.382812 37.050781 C 26.316406 36.863281 27.226562 36.589844 28.105469 36.226562 C 28.988281 35.863281 29.824219 35.414062 30.617188 34.886719 C 31.410156 34.355469 32.144531 33.757812 32.820312 33.082031 C 33.492188 32.410156 34.097656 31.675781 34.625 30.886719 C 35.15625 30.09375 35.601562 29.257812 35.96875 28.378906 C 36.332031 27.5 36.609375 26.59375 36.792969 25.660156 C 36.980469 24.726562 37.074219 23.78125 37.074219 22.832031 C 37.074219 22.039062 37.007812 21.253906 36.882812 20.472656 C 36.800781 20.65625 36.613281 20.765625 36.484375 20.65625 C 36.375 20.261719 36.546875 19.832031 36.804688 20.039062 C 36.667969 19.328125 36.476562 18.636719 36.234375 17.957031 C 36.0625 17.984375 35.894531 18.058594 35.804688 17.851562 C 35.75 17.472656 35.964844 17.875 36.015625 17.699219 L 35.695312 17.089844 L 36.0625 17.503906 C 35.980469 17.296875 35.894531 17.097656 35.804688 16.894531 C 35.453125 16.734375 35.199219 16.765625 35.015625 16.902344 Z M 35.015625 16.902344 " fill-opacity="1" fill-rule="nonzero"/><path fill="#393939" d="M 13.226562 12.664062 C 13.320312 12.578125 13.417969 12.492188 13.515625 12.410156 C 13.347656 12.367188 13.257812 12.5 13.226562 12.664062 Z M 13.226562 12.664062 " fill-opacity="1" fill-rule="nonzero"/><path fill="#393939" d="M 35.648438 16.554688 C 35.617188 16.492188 35.589844 16.429688 35.558594 16.367188 C 35.558594 16.382812 35.558594 16.402344 35.558594 16.417969 Z M 35.648438 16.554688 " fill-opacity="1" fill-rule="nonzero"/><path fill="#393939" d="M 10.464844 30.085938 L 10.722656 29.953125 C 10.316406 29.28125 9.972656 28.582031 9.6875 27.855469 C 9.398438 27.125 9.175781 26.378906 9.019531 25.613281 C 8.859375 24.847656 8.769531 24.070312 8.742188 23.289062 C 8.714844 22.507812 8.757812 21.730469 8.863281 20.953125 C 8.96875 20.179688 9.140625 19.417969 9.378906 18.671875 C 9.617188 17.925781 9.914062 17.207031 10.273438 16.511719 C 10.632812 15.816406 11.050781 15.15625 11.523438 14.53125 C 11.996094 13.90625 12.519531 13.328125 13.089844 12.792969 L 12.585938 12.585938 C 12.582031 12.464844 12.597656 12.347656 12.636719 12.234375 C 12.515625 12.347656 12.394531 12.460938 12.277344 12.578125 C 11.71875 13.140625 11.207031 13.742188 10.746094 14.382812 C 10.28125 15.027344 9.875 15.703125 9.527344 16.410156 C 9.175781 17.121094 8.882812 17.851562 8.652344 18.609375 C 8.421875 19.367188 8.253906 20.136719 8.152344 20.921875 C 8.046875 21.703125 8.003906 22.492188 8.03125 23.28125 C 8.054688 24.074219 8.144531 24.855469 8.296875 25.632812 C 8.449219 26.410156 8.664062 27.167969 8.941406 27.90625 C 9.21875 28.648438 9.550781 29.363281 9.945312 30.050781 C 10.203125 29.96875 10.414062 29.894531 10.464844 30.085938 Z M 10.464844 30.085938 " fill-opacity="1" fill-rule="nonzero"/><path fill="#393939" d="M 13.261719 11.871094 C 13.503906 11.96875 13.84375 11.75 14.039062 11.980469 C 15.25 11.03125 16.585938 10.304688 18.046875 9.800781 C 19.503906 9.300781 21.003906 9.050781 22.546875 9.050781 C 23.023438 9.050781 23.496094 9.074219 23.96875 9.125 C 23.988281 8.917969 23.960938 8.71875 23.878906 8.523438 L 24.152344 9.070312 C 24.328125 8.765625 24.910156 9.4375 24.902344 8.878906 L 24.835938 8.820312 C 24.84375 8.496094 24.929688 8.785156 25.03125 8.753906 C 24.914062 8.867188 24.953125 9.078125 24.980469 9.265625 C 25.097656 9.289062 25.214844 9.308594 25.328125 9.332031 L 25.265625 8.828125 L 26.097656 9.25 L 25.570312 9.386719 C 26.667969 9.628906 27.714844 10.003906 28.71875 10.507812 C 28.699219 10.425781 28.675781 10.34375 28.644531 10.265625 C 28.898438 10.054688 29.027344 10.421875 29.152344 10.730469 C 31.59375 12.066406 33.46875 13.957031 34.769531 16.414062 L 35.351562 15.972656 C 34.609375 14.601562 33.671875 13.378906 32.539062 12.308594 C 31.40625 11.234375 30.132812 10.367188 28.722656 9.699219 L 28.722656 9.992188 L 28.375 9.714844 L 28.507812 9.601562 C 27.921875 9.339844 27.320312 9.117188 26.707031 8.933594 C 26.707031 8.9375 26.707031 8.941406 26.707031 8.949219 L 26.695312 8.929688 C 26.488281 8.871094 26.277344 8.8125 26.070312 8.761719 L 26.039062 8.863281 C 25.949219 8.855469 25.902344 8.808594 25.898438 8.71875 C 23.21875 8.09375 20.574219 8.210938 17.964844 9.066406 C 17.972656 9.144531 17.96875 9.222656 17.957031 9.300781 L 17.789062 9.578125 C 17.8125 9.605469 17.832031 9.632812 17.847656 9.664062 L 17.773438 9.609375 L 17.789062 9.582031 C 17.628906 9.410156 17.328125 9.542969 17.0625 9.402344 C 15.5 10.039062 14.09375 10.917969 12.84375 12.046875 C 12.992188 12 13.167969 12.023438 13.261719 11.871094 Z M 13.261719 11.871094 " fill-opacity="1" fill-rule="nonzero"/><path fill="#393939" d="M 12.777344 33.308594 L 12.679688 33.46875 C 12.90625 33.675781 13.132812 33.875 13.367188 34.066406 L 13.566406 34 Z M 12.777344 33.308594 " fill-opacity="1" fill-rule="nonzero"/><path fill="#393939" d="M 12.066406 32.75 C 12.019531 32.433594 11.78125 32.042969 11.5 32.132812 C 11.488281 32.164062 11.488281 32.199219 11.492188 32.234375 C 11.671875 32.445312 11.863281 32.65625 12.058594 32.859375 L 12.03125 32.757812 Z M 12.066406 32.75 " fill-opacity="1" fill-rule="nonzero"/><path fill="#393939" d="M 12.066406 32.75 C 12.070312 32.792969 12.074219 32.832031 12.074219 32.871094 C 12.136719 32.9375 12.199219 33.003906 12.261719 33.066406 C 12.320312 32.863281 12.347656 32.699219 12.066406 32.75 Z M 12.066406 32.75 " fill-opacity="1" fill-rule="nonzero"/><g clip-path="url(#1e13a5d3e7)"><path fill="#393939" d="M 43.484375 24.105469 C 43.511719 23.683594 43.523438 23.257812 43.523438 22.832031 C 43.527344 21.457031 43.394531 20.09375 43.125 18.746094 C 42.855469 17.398438 42.460938 16.085938 41.933594 14.816406 C 41.40625 13.546875 40.757812 12.339844 39.992188 11.199219 C 39.226562 10.054688 38.355469 9 37.378906 8.027344 C 36.828125 7.476562 36.25 6.960938 35.644531 6.472656 C 35.558594 6.519531 35.46875 6.546875 35.410156 6.59375 C 35.355469 6.414062 35.285156 6.277344 35.246094 6.160156 C 34.863281 5.871094 34.472656 5.59375 34.074219 5.332031 C 34.136719 5.601562 34.3125 5.695312 34.414062 5.800781 C 34.222656 5.605469 34.164062 5.914062 34.027344 6.167969 C 38.242188 9.070312 41.308594 13.527344 42.386719 18.703125 L 42.40625 18.71875 C 42.421875 18.769531 42.429688 18.824219 42.429688 18.878906 C 42.429688 18.882812 42.429688 18.886719 42.429688 18.890625 C 42.6875 20.191406 42.816406 21.503906 42.816406 22.832031 C 42.816406 32.011719 36.652344 39.785156 28.238281 42.246094 C 28.246094 42.265625 28.257812 42.285156 28.265625 42.304688 L 28.222656 42.25 C 25.523438 43.03125 22.777344 43.246094 19.988281 42.894531 C 20.097656 43.109375 20.261719 43.347656 20.375 43.429688 C 19.886719 43.707031 19.882812 43.257812 19.890625 42.882812 C 16.25 42.402344 12.984375 41.03125 10.09375 38.773438 L 9.890625 38.695312 L 9.890625 38.613281 C 5.253906 34.902344 2.285156 29.207031 2.285156 22.832031 C 2.285156 11.679688 11.375 2.605469 22.546875 2.605469 C 26.054688 2.601562 29.335938 3.453125 32.398438 5.160156 C 32.636719 5.089844 32.746094 5.214844 32.820312 5.402344 C 33.066406 5.546875 33.308594 5.699219 33.546875 5.851562 C 33.527344 5.621094 33.367188 5.324219 33.300781 5.339844 L 33.28125 5.359375 C 33.285156 5.347656 33.292969 5.339844 33.300781 5.339844 C 33.566406 5.078125 33.609375 5.199219 33.964844 5.265625 C 32.933594 4.59375 31.847656 4.019531 30.714844 3.539062 C 30.132812 3.296875 29.546875 3.078125 28.949219 2.886719 C 28.738281 2.984375 28.53125 3.070312 28.875 3.523438 L 28.199219 3.207031 C 28.199219 3.207031 28.195312 3.207031 28.191406 3.203125 L 28.199219 3.207031 C 28.246094 3.214844 28.25 2.941406 28.125 2.777344 C 28.046875 2.757812 27.980469 2.71875 27.925781 2.65625 C 28.011719 2.667969 28.078125 2.707031 28.125 2.777344 C 28.214844 2.789062 28.289062 2.765625 28.355469 2.707031 C 26.691406 2.226562 24.992188 1.960938 23.261719 1.898438 C 21.527344 1.839844 19.816406 1.996094 18.121094 2.359375 C 16.425781 2.726562 14.804688 3.292969 13.25 4.058594 C 11.699219 4.828125 10.261719 5.773438 8.945312 6.894531 C 9.050781 6.890625 9.148438 6.910156 9.246094 6.949219 L 9.371094 7.382812 L 7.992188 7.757812 C 7.898438 7.847656 7.808594 7.9375 7.71875 8.03125 C 7.230469 8.515625 6.769531 9.019531 6.332031 9.550781 C 5.898438 10.082031 5.488281 10.632812 5.105469 11.199219 C 4.722656 11.769531 4.371094 12.359375 4.046875 12.964844 C 3.722656 13.566406 3.425781 14.1875 3.164062 14.820312 C 2.902344 15.453125 2.667969 16.097656 2.46875 16.753906 C 2.269531 17.410156 2.101562 18.074219 1.96875 18.746094 C 1.835938 19.421875 1.734375 20.097656 1.667969 20.78125 C 1.597656 21.464844 1.566406 22.148438 1.566406 22.832031 C 1.566406 23.519531 1.597656 24.203125 1.667969 24.886719 C 1.734375 25.566406 1.835938 26.246094 1.96875 26.917969 C 2.101562 27.589844 2.269531 28.253906 2.46875 28.910156 C 2.667969 29.566406 2.902344 30.210938 3.164062 30.847656 C 3.425781 31.480469 3.722656 32.097656 4.046875 32.703125 C 4.371094 33.308594 4.722656 33.894531 5.105469 34.464844 C 5.488281 35.035156 5.898438 35.585938 6.332031 36.113281 C 6.769531 36.644531 7.230469 37.152344 7.71875 37.636719 C 8.433594 38.351562 9.195312 39.011719 10.007812 39.617188 L 10.011719 39.617188 C 10.144531 39.632812 10.40625 39.796875 10.460938 39.949219 C 12.332031 41.265625 14.363281 42.25 16.558594 42.902344 C 16.957031 42.804688 17.367188 42.726562 17.605469 43.179688 C 17.351562 43.058594 17.171875 43.023438 17.027344 43.035156 C 18.699219 43.488281 20.402344 43.730469 22.136719 43.761719 L 22.089844 43.632812 L 23.210938 43.078125 C 23.269531 44.257812 23.648438 42.597656 24.191406 43.449219 C 24.097656 43.5625 23.988281 43.652344 23.867188 43.726562 C 25.132812 43.648438 26.378906 43.457031 27.609375 43.152344 C 28.84375 42.847656 30.035156 42.433594 31.191406 41.914062 C 32.347656 41.394531 33.449219 40.773438 34.492188 40.050781 C 35.535156 39.332031 36.503906 38.523438 37.398438 37.628906 C 38.296875 36.730469 39.101562 35.761719 39.824219 34.71875 C 40.542969 33.679688 41.164062 32.578125 41.683594 31.425781 C 42.203125 30.269531 42.613281 29.078125 42.917969 27.847656 C 43.21875 26.621094 43.410156 25.375 43.484375 24.109375 L 43.472656 24.09375 Z M 43.484375 24.105469 " fill-opacity="1" fill-rule="nonzero"/></g><path fill="#393939" d="M 7.996094 17.261719 L 6.15625 15.921875 L 8.5 16.242188 L 8.765625 15.710938 L 7.085938 14.042969 L 8.609375 14.496094 C 8.566406 14.40625 8.515625 14.292969 8.472656 14.179688 C 8.140625 13.589844 7.851562 13.792969 7.382812 13.746094 C 7.304688 13.644531 7.261719 13.535156 7.25 13.414062 L 6.109375 13.070312 L 5.816406 13.660156 L 7.667969 15.496094 L 5.082031 15.140625 L 4.792969 15.726562 L 7.703125 17.847656 Z M 7.996094 17.261719 " fill-opacity="1" fill-rule="nonzero"/><path fill="#393939" d="M 8.894531 13.917969 C 9.152344 13.988281 8.902344 14.375 9.207031 14.0625 C 9.207031 14.042969 9.203125 14.019531 9.199219 14 L 8.375 13.753906 C 8.367188 13.859375 8.414062 14.019531 8.472656 14.179688 C 8.53125 14.285156 8.582031 14.390625 8.625 14.5 L 9.269531 14.695312 L 9.359375 14.507812 C 9.1875 14.289062 8.898438 14.246094 8.894531 13.917969 Z M 8.894531 13.917969 " fill-opacity="1" fill-rule="nonzero"/><path fill="#393939" d="M 9.460938 13.773438 L 9.628906 14.085938 L 10.085938 13.550781 L 9.71875 12.855469 L 10.660156 11.757812 L 11.394531 12.019531 L 11.851562 11.484375 L 8.261719 10.222656 L 7.820312 10.742188 L 9.164062 13.21875 C 9.324219 13.375 9.492188 13.523438 9.667969 13.660156 Z M 9.378906 12.242188 L 8.757812 11.089844 L 9.996094 11.519531 Z M 9.378906 12.242188 " fill-opacity="1" fill-rule="nonzero"/><path fill="#393939" d="M 12.785156 10.785156 C 13.152344 10.507812 13.390625 10.289062 13.503906 10.132812 C 13.625 9.960938 13.699219 9.773438 13.730469 9.570312 C 13.765625 9.339844 13.75 9.113281 13.683594 8.886719 C 13.5 8.273438 13.113281 7.824219 12.535156 7.546875 C 12.257812 7.417969 11.964844 7.378906 11.664062 7.425781 C 11.386719 7.472656 11.042969 7.65625 10.628906 7.964844 L 9.992188 8.449219 L 12.136719 11.273438 Z M 11.105469 8.425781 C 11.4375 8.171875 11.738281 8.0625 12.003906 8.097656 C 12.296875 8.132812 12.558594 8.300781 12.785156 8.605469 C 12.921875 8.773438 13.011719 8.964844 13.054688 9.175781 C 13.085938 9.347656 13.070312 9.507812 12.996094 9.667969 C 12.929688 9.808594 12.769531 9.972656 12.523438 10.15625 L 12.273438 10.347656 L 10.921875 8.5625 Z M 11.105469 8.425781 " fill-opacity="1" fill-rule="nonzero"/><path fill="#393939" d="M 14.832031 9.363281 L 16.566406 8.5 L 16.269531 7.90625 L 15.136719 8.472656 L 14.71875 7.636719 L 15.851562 7.070312 L 15.5625 6.492188 L 14.429688 7.058594 L 14.140625 6.484375 L 15.273438 5.917969 L 14.980469 5.328125 L 13.945312 5.847656 C 13.992188 5.9375 14.054688 5.996094 14.152344 5.933594 C 13.992188 6.089844 13.902344 6.039062 13.808594 5.914062 L 13.242188 6.195312 Z M 14.832031 9.363281 " fill-opacity="1" fill-rule="nonzero"/><path fill="#393939" d="M 19.378906 7.65625 L 19.640625 5.289062 L 20.660156 7.445312 L 21.300781 7.339844 L 21.304688 7.265625 C 21.246094 7.285156 21.195312 7.316406 21.148438 7.351562 L 20.914062 6.625 C 20.898438 6.863281 20.808594 6.648438 20.738281 6.585938 C 20.953125 6.375 21.152344 6.414062 21.347656 6.53125 L 21.515625 3.714844 L 20.859375 3.828125 L 20.722656 6.140625 L 19.722656 4.011719 L 19.167969 4.105469 L 18.910156 6.441406 L 18.03125 4.285156 L 17.375 4.394531 L 18.746094 7.761719 Z M 19.378906 7.65625 " fill-opacity="1" fill-rule="nonzero"/><path fill="#393939" d="M 22.429688 7.34375 L 22.488281 3.796875 L 23.160156 3.808594 L 23.101562 7.355469 Z M 22.429688 7.34375 " fill-opacity="1" fill-rule="nonzero"/><path fill="#393939" d="M 24.058594 7.414062 L 24.738281 7.496094 L 25.082031 4.636719 L 25.722656 4.710938 L 25.800781 4.050781 L 23.851562 3.820312 L 23.773438 4.480469 L 24.398438 4.554688 Z M 24.058594 7.414062 " fill-opacity="1" fill-rule="nonzero"/><path fill="#393939" d="M 27.644531 7.648438 L 27.5 8.140625 L 28.15625 8.332031 L 28.21875 8.121094 C 28.03125 8.140625 27.808594 7.898438 27.644531 7.648438 Z M 27.644531 7.648438 " fill-opacity="1" fill-rule="nonzero"/><path fill="#393939" d="M 26.421875 7.605469 L 26.800781 6.316406 L 27.9375 6.644531 L 27.746094 7.296875 L 27.984375 7.285156 C 28.027344 7.429688 27.976562 7.609375 28.085938 7.808594 L 28.335938 7.71875 L 29.15625 4.929688 L 28.5 4.742188 L 28.121094 6.023438 L 26.984375 5.691406 L 27.363281 4.410156 L 26.703125 4.214844 L 25.703125 7.613281 L 26.292969 7.785156 C 26.320312 7.71875 26.363281 7.65625 26.421875 7.605469 Z M 26.421875 7.605469 " fill-opacity="1" fill-rule="nonzero"/><path fill="#393939" d="M 31.273438 9.492188 C 30.949219 8.71875 30.492188 9.082031 30.164062 9.332031 L 31.363281 10.050781 L 31.695312 9.496094 L 31.21875 9.210938 C 31.222656 9.308594 31.238281 9.402344 31.273438 9.492188 Z M 31.273438 9.492188 " fill-opacity="1" fill-rule="nonzero"/><path fill="#393939" d="M 30.066406 8.988281 L 29.941406 9.195312 L 30.066406 9.273438 C 30.058594 9.175781 30.058594 9.082031 30.066406 8.988281 Z M 30.066406 8.988281 " fill-opacity="1" fill-rule="nonzero"/><path fill="#393939" d="M 30.382812 8.464844 C 30.601562 8.40625 30.886719 8.523438 31.101562 8.578125 L 32.261719 6.652344 C 32.132812 6.5625 32.046875 6.445312 32.003906 6.296875 L 31.765625 6.15625 Z M 30.382812 8.464844 " fill-opacity="1" fill-rule="nonzero"/><path fill="#393939" d="M 33.558594 8.246094 C 33.164062 8.378906 32.84375 8.617188 32.605469 8.957031 C 32.363281 9.300781 32.253906 9.683594 32.265625 10.101562 C 32.28125 10.609375 32.484375 11.042969 32.882812 11.398438 C 33.253906 11.746094 33.695312 11.90625 34.203125 11.871094 C 34.71875 11.847656 35.144531 11.640625 35.484375 11.253906 C 35.839844 10.871094 36.003906 10.421875 35.972656 9.902344 C 35.957031 9.394531 35.757812 8.96875 35.375 8.632812 C 35.128906 8.410156 34.84375 8.265625 34.519531 8.195312 C 34.195312 8.128906 33.875 8.144531 33.558594 8.246094 Z M 34.925781 9.117188 C 35.175781 9.332031 35.300781 9.601562 35.308594 9.929688 C 35.308594 10.089844 35.285156 10.242188 35.230469 10.394531 C 35.171875 10.542969 35.09375 10.675781 34.984375 10.792969 C 34.878906 10.910156 34.753906 11.003906 34.613281 11.074219 C 34.46875 11.148438 34.320312 11.1875 34.160156 11.203125 C 33.960938 11.21875 33.769531 11.183594 33.589844 11.097656 C 33.625 11.242188 33.644531 11.402344 33.6875 11.496094 L 33.894531 11.546875 C 33.785156 11.613281 33.726562 11.578125 33.6875 11.496094 L 33.339844 11.414062 C 33.257812 11.265625 33.324219 11.109375 33.414062 10.988281 C 33.378906 10.964844 33.347656 10.941406 33.320312 10.914062 C 33.105469 10.726562 32.980469 10.492188 32.9375 10.210938 C 32.882812 9.855469 32.984375 9.53125 33.246094 9.238281 C 33.484375 8.976562 33.761719 8.835938 34.078125 8.816406 C 34.40625 8.792969 34.6875 8.890625 34.925781 9.117188 Z M 34.925781 9.117188 " fill-opacity="1" fill-rule="nonzero"/><path fill="#393939" d="M 35.492188 14.285156 L 35.503906 14.28125 C 35.5 14.238281 35.492188 14.1875 35.484375 14.128906 C 35.539062 13.9375 35.734375 14.019531 35.914062 14.171875 L 37.644531 13.714844 C 37.578125 13.582031 37.527344 13.441406 37.488281 13.296875 L 38.117188 13.589844 L 39.140625 13.316406 L 38.746094 12.746094 L 36.152344 13.4375 L 37.71875 11.269531 L 37.324219 10.699219 L 35.121094 13.75 Z M 35.492188 14.285156 " fill-opacity="1" fill-rule="nonzero"/><path fill="#393939" d="M 36.933594 16.828125 C 36.910156 16.835938 36.886719 16.839844 36.863281 16.839844 L 37.148438 17.476562 L 37.757812 17.207031 L 37.46875 16.570312 C 37.28125 16.800781 37.125 16.976562 37.117188 16.214844 C 37.253906 16.363281 37.339844 16.410156 37.394531 16.40625 L 37.234375 16.050781 L 38.089844 15.671875 L 38.605469 16.824219 L 39.199219 16.5625 L 38.683594 15.40625 L 39.269531 15.144531 L 39.785156 16.300781 L 40.390625 16.03125 L 39.597656 14.261719 L 36.355469 15.710938 L 36.695312 16.46875 C 36.8125 16.570312 36.910156 16.679688 36.933594 16.828125 Z M 36.933594 16.828125 " fill-opacity="1" fill-rule="nonzero"/><path fill="#393939" d="M 33.882812 33.15625 L 35.003906 34.238281 L 34.179688 35.089844 L 33.058594 34.011719 L 32.582031 34.5 L 35.140625 36.964844 L 35.613281 36.472656 L 34.648438 35.542969 L 35.472656 34.691406 L 36.4375 35.621094 L 36.914062 35.128906 L 34.359375 32.667969 Z M 33.882812 33.15625 " fill-opacity="1" fill-rule="nonzero"/><path fill="#393939" d="M 33.171875 38.46875 L 32.34375 34.761719 L 31.757812 35.148438 L 31.925781 35.914062 L 30.714844 36.71875 L 30.078125 36.265625 L 29.492188 36.652344 L 32.601562 38.847656 Z M 31.136719 36.515625 C 31.398438 36.503906 31.667969 36.164062 31.824219 36.507812 C 31.765625 36.6875 31.457031 36.878906 31.136719 36.515625 Z M 31.289062 37.128906 L 32.082031 36.605469 L 32.363281 37.882812 Z M 31.289062 37.128906 " fill-opacity="1" fill-rule="nonzero"/><path fill="#393939" d="M 28.070312 40.925781 C 28 40.769531 28.125 40.625 28.25 40.433594 L 27.578125 38.691406 L 28.757812 39.546875 L 28.714844 39.402344 C 28.984375 39.347656 29.023438 39.519531 29.023438 39.738281 L 29.835938 40.328125 L 30.441406 40.097656 L 29.171875 36.785156 L 28.539062 37.027344 L 29.371094 39.199219 L 27.121094 37.574219 L 26.511719 37.804688 L 27.78125 41.117188 L 28.242188 40.941406 C 28.175781 40.929688 28.113281 40.957031 28.070312 40.925781 Z M 28.070312 40.925781 " fill-opacity="1" fill-rule="nonzero"/><path fill="#393939" d="M 26.363281 41.082031 L 25.898438 37.953125 L 25.09375 38.074219 C 24.636719 38.140625 24.320312 38.21875 24.144531 38.304688 C 23.960938 38.394531 23.804688 38.523438 23.679688 38.691406 C 23.535156 38.875 23.441406 39.082031 23.390625 39.308594 C 23.257812 39.9375 23.382812 40.515625 23.757812 41.035156 C 23.9375 41.28125 24.175781 41.457031 24.464844 41.558594 C 24.730469 41.648438 25.121094 41.65625 25.628906 41.578125 L 26.367188 41.46875 L 26.203125 41.203125 C 26.257812 41.097656 26.3125 41.066406 26.363281 41.082031 Z M 25.433594 40.949219 C 25.015625 41.011719 24.699219 40.964844 24.484375 40.808594 C 24.246094 40.632812 24.097656 40.359375 24.042969 39.988281 C 24.003906 39.773438 24.015625 39.566406 24.082031 39.359375 C 24.132812 39.191406 24.230469 39.058594 24.367188 38.953125 C 24.496094 38.863281 24.710938 38.796875 25.015625 38.75 L 25.328125 38.703125 L 25.660156 40.914062 Z M 25.433594 40.949219 " fill-opacity="1" fill-rule="nonzero"/><path fill="#393939" d="M 20.847656 38.621094 L 20.171875 40.460938 L 19.835938 38.125 L 19.25 38.015625 L 18.105469 40.082031 L 18.132812 37.8125 L 17.488281 37.695312 L 17.441406 41.289062 L 18.089844 41.40625 L 19.351562 39.121094 L 19.71875 41.703125 L 20.367188 41.820312 L 21.519531 38.667969 L 21.015625 38.976562 C 21.035156 38.855469 20.960938 38.730469 20.847656 38.621094 Z M 20.847656 38.621094 " fill-opacity="1" fill-rule="nonzero"/><path fill="#393939" d="M 16.804688 37.34375 L 16.238281 37.890625 L 14.917969 37.296875 L 14.964844 36.515625 L 14.324219 36.226562 L 14.105469 40.019531 L 14.730469 40.300781 L 17.441406 37.636719 Z M 14.800781 39.300781 L 14.875 37.996094 L 15.742188 38.386719 Z M 14.800781 39.300781 " fill-opacity="1" fill-rule="nonzero"/><path fill="#393939" d="M 12.6875 35.0625 L 12.503906 35.550781 C 12.457031 35.382812 12.425781 35.175781 12.378906 34.964844 C 12.242188 34.9375 12.101562 34.933594 11.960938 34.953125 C 11.730469 34.980469 11.515625 35.058594 11.316406 35.183594 C 10.777344 35.53125 10.453125 36.019531 10.34375 36.65625 C 10.296875 36.957031 10.335938 37.246094 10.46875 37.523438 C 10.574219 37.738281 10.78125 37.972656 11.097656 38.230469 C 11.097656 38.207031 11.097656 38.183594 11.097656 38.15625 C 11 37.800781 11.25 37.699219 11.488281 37.714844 C 11.214844 37.488281 11.058594 37.253906 11.019531 37.019531 C 10.976562 36.726562 11.066406 36.429688 11.292969 36.128906 C 11.417969 35.949219 11.578125 35.8125 11.773438 35.710938 C 11.925781 35.632812 12.089844 35.605469 12.261719 35.632812 C 12.414062 35.660156 12.613281 35.765625 12.863281 35.949219 L 13.113281 36.136719 L 12.101562 37.484375 C 12.453125 37.746094 12.195312 37.613281 11.980469 37.644531 L 11.777344 37.914062 C 11.78125 37.972656 11.792969 38.03125 11.808594 38.085938 C 11.429688 37.578125 11.242188 38.085938 11.160156 38.28125 C 11.195312 38.3125 11.234375 38.339844 11.273438 38.371094 L 11.914062 38.851562 L 14.042969 36.011719 L 13.394531 35.523438 C 13.171875 35.351562 12.9375 35.195312 12.6875 35.0625 Z M 12.6875 35.0625 " fill-opacity="1" fill-rule="nonzero"/><path fill="#393939" d="M 11.359375 33.835938 L 11.285156 33.957031 L 11.132812 33.609375 L 11.148438 33.609375 L 10.152344 32.523438 L 9.664062 32.972656 L 10.519531 33.90625 L 9.832031 34.535156 L 8.976562 33.601562 L 8.496094 34.039062 L 9.351562 34.972656 L 8.878906 35.40625 L 8.023438 34.472656 L 7.535156 34.917969 L 8.84375 36.347656 L 11.464844 33.953125 Z M 11.359375 33.835938 " fill-opacity="1" fill-rule="nonzero"/><path fill="#393939" d="M 30.085938 29.757812 C 30.070312 29.710938 30.046875 29.660156 30.023438 29.613281 L 27.277344 23.070312 C 27.1875 22.859375 27.039062 22.710938 26.828125 22.625 C 26.617188 22.539062 26.40625 22.542969 26.195312 22.628906 C 25.984375 22.71875 25.835938 22.867188 25.753906 23.078125 C 25.667969 23.289062 25.667969 23.5 25.757812 23.710938 L 26.386719 25.207031 L 26.363281 25.199219 C 27.226562 27.222656 26.28125 27.21875 25.328125 26.855469 L 25.238281 26.808594 L 25.421875 27.09375 C 24.34375 27.066406 25.46875 28.039062 24.828125 28.574219 L 24.394531 27.429688 C 24.242188 27.285156 24.121094 27.089844 24.15625 26.808594 L 24.394531 27.429688 C 24.460938 27.496094 24.535156 27.558594 24.613281 27.613281 C 24.785156 27.628906 24.734375 27.25 24.621094 27.050781 L 24.519531 27.085938 C 24.476562 26.671875 24.890625 26.8125 24.996094 26.683594 L 21.6875 24.964844 C 21.75 25.335938 22.363281 25.359375 22.117188 25.847656 C 21.871094 25.773438 21.5625 25.882812 21.433594 25.445312 C 21.421875 25.214844 21.566406 25.320312 21.769531 25.246094 L 21.65625 24.949219 L 18.40625 23.257812 C 18.203125 23.15625 17.996094 23.140625 17.78125 23.207031 C 17.566406 23.277344 17.40625 23.410156 17.300781 23.609375 C 17.195312 23.8125 17.175781 24.019531 17.242188 24.234375 C 17.308594 24.449219 17.441406 24.609375 17.640625 24.71875 L 16.601562 24.175781 C 16.503906 24.117188 16.398438 24.078125 16.285156 24.0625 C 16.171875 24.046875 16.0625 24.054688 15.953125 24.085938 C 15.839844 24.117188 15.742188 24.167969 15.652344 24.238281 C 15.5625 24.3125 15.492188 24.398438 15.441406 24.5 C 15.386719 24.597656 15.355469 24.707031 15.347656 24.820312 C 15.339844 24.933594 15.355469 25.042969 15.394531 25.152344 C 15.429688 25.261719 15.488281 25.355469 15.566406 25.4375 C 15.644531 25.523438 15.734375 25.585938 15.839844 25.632812 L 16.671875 26.066406 C 16.46875 25.960938 16.257812 25.941406 16.042969 26.011719 C 15.824219 26.078125 15.664062 26.214844 15.558594 26.417969 C 15.453125 26.617188 15.4375 26.828125 15.503906 27.042969 C 15.570312 27.261719 15.707031 27.421875 15.910156 27.527344 L 17.824219 28.519531 C 17.621094 28.417969 17.410156 28.398438 17.195312 28.464844 C 16.976562 28.535156 16.816406 28.667969 16.710938 28.871094 C 16.5 29.273438 16.742188 29.609375 17.144531 29.820312 L 19.539062 31.0625 C 19.960938 30.992188 20.5 31.132812 20.800781 31.355469 C 20.734375 31.441406 20.675781 31.53125 20.621094 31.628906 L 22.296875 32.5 C 22.328125 32.515625 22.355469 32.53125 22.386719 32.542969 C 22.417969 32.558594 22.457031 32.582031 22.496094 32.601562 L 23.417969 33.066406 C 23.460938 32.878906 23.464844 32.617188 23.519531 32.445312 C 23.550781 32.640625 23.601562 32.910156 23.621094 33.167969 L 24.433594 33.578125 C 24.414062 33.492188 24.371094 33.421875 24.300781 33.371094 C 24.917969 33.386719 25.019531 33.914062 25.632812 33.371094 C 25.628906 33.359375 25.625 33.347656 25.625 33.335938 C 25.488281 33.292969 25.359375 33.25 25.230469 33.203125 C 25.128906 33.222656 25.039062 33.234375 25.003906 33.113281 C 25.078125 33.144531 25.152344 33.171875 25.230469 33.203125 C 25.375 33.171875 25.539062 33.117188 25.625 33.335938 C 26.453125 33.609375 27.40625 33.824219 28.242188 34.027344 C 27.679688 34.09375 27.566406 34.503906 27.246094 34.757812 C 27.664062 34.722656 28.039062 34.507812 28.226562 34.140625 L 30.035156 30.679688 C 30.046875 30.65625 30.058594 30.632812 30.070312 30.609375 C 30.21875 30.367188 30.242188 30.117188 30.128906 29.855469 Z M 19.695312 25.867188 C 19.417969 25.886719 19.691406 26.433594 19.339844 26.394531 L 19.414062 26.449219 C 19.429688 26.683594 19.125 26.792969 19.007812 26.59375 C 19.386719 26.539062 19.058594 25.617188 19.695312 25.867188 Z M 18.355469 23.996094 L 18.65625 24.453125 L 18.773438 24.089844 L 19.035156 24.957031 C 18.480469 25.558594 19.0625 24.304688 18.542969 24.816406 C 17.929688 25.03125 18.019531 24.195312 18.355469 23.996094 Z M 19.546875 29.371094 L 19.722656 29.953125 C 19.328125 29.207031 18.828125 29.628906 18.582031 28.992188 L 19.082031 29.136719 C 18.90625 28.554688 19.609375 29.191406 19.496094 28.425781 L 19.859375 28.699219 L 19.582031 28.71875 L 19.785156 29.210938 C 20.121094 29.007812 20.355469 28.84375 20.441406 28.570312 C 20.398438 28.988281 20.019531 29.605469 19.546875 29.371094 Z M 22.53125 28.785156 C 21.941406 28.675781 21.183594 28.785156 20.722656 27.988281 C 21.390625 28.152344 21.390625 27.03125 22.050781 27.75 C 21.890625 27.96875 21.980469 28.257812 21.996094 28.496094 L 22.585938 28.601562 Z M 24.175781 31.160156 C 24.058594 30.796875 23.734375 31.101562 23.53125 31.144531 C 23.621094 31.359375 23.761719 31.25 23.894531 31.378906 L 23.378906 31.488281 C 23.148438 31.382812 22.625 31.105469 22.773438 30.761719 C 23.078125 30.695312 23.285156 31.273438 23.546875 30.90625 L 23.4375 30.65625 C 23.359375 30.597656 23.296875 30.484375 23.269531 30.269531 L 23.4375 30.65625 C 23.722656 30.863281 24.246094 30.351562 24.175781 31.160156 Z M 26.839844 33.171875 C 26.484375 32.898438 26.210938 32.917969 26.042969 32.898438 C 25.613281 32.574219 26.4375 32.753906 26.207031 32.359375 C 26.136719 32.304688 26.046875 32.011719 26.203125 31.792969 L 26.65625 32.03125 C 26.039062 32.335938 27.128906 32.503906 26.839844 33.171875 Z M 28.652344 28.753906 L 28.601562 28.929688 C 28.464844 28.820312 28.199219 29.160156 28.097656 28.632812 Z M 27.5 26.886719 L 27.699219 27.226562 L 27.414062 27.378906 C 27.472656 27.207031 27.585938 27.097656 27.5 26.886719 Z M 28.40625 31.15625 C 27.847656 31.277344 28.117188 30.375 27.628906 30.554688 L 28.082031 29.90625 L 28.296875 30.628906 C 29.136719 30.730469 28.644531 30.34375 29.417969 30.066406 C 29.488281 31.003906 28.550781 30.378906 28.40625 31.15625 Z M 28.40625 31.15625 " fill-opacity="1" fill-rule="nonzero"/><path fill="#393939" d="M 27.1875 34.332031 C 26.949219 34.261719 26.734375 34.097656 26.507812 34.257812 C 26.527344 34.382812 26.539062 34.507812 26.539062 34.632812 C 26.734375 34.71875 26.9375 34.761719 27.148438 34.761719 C 27.210938 34.621094 27.285156 34.5 27.1875 34.332031 Z M 27.1875 34.332031 " fill-opacity="1" fill-rule="nonzero"/><path fill="#393939" d="M 18.480469 19.035156 C 18.515625 19.007812 18.542969 18.976562 18.570312 18.941406 L 18.460938 18.6875 C 18.382812 18.628906 18.320312 18.515625 18.292969 18.300781 L 18.460938 18.6875 C 18.746094 18.898438 19.269531 18.386719 19.199219 19.195312 C 19.09375 18.855469 18.804688 19.09375 18.601562 19.164062 L 18.761719 19.335938 C 18.820312 19.34375 18.871094 19.371094 18.917969 19.410156 L 18.84375 19.425781 C 19.613281 20.257812 20.246094 20.960938 20.761719 21.550781 C 20.9375 21.339844 21.359375 21.457031 21.53125 21.75 L 21.011719 21.839844 C 22.335938 23.378906 22.796875 24.054688 22.796875 24.054688 C 22.796875 24.058594 23.808594 22.558594 27.171875 18.972656 C 26.839844 18.644531 26.496094 18.988281 26.222656 18.683594 C 26.488281 18.667969 26.234375 18.355469 26.191406 18.210938 C 26.535156 17.929688 26.523438 19.136719 26.988281 18.730469 L 26.859375 18.292969 L 26.945312 18.582031 C 26.882812 18.066406 27.167969 18.214844 27.308594 18.117188 C 27.328125 18.085938 27.347656 18.054688 27.371094 18.027344 C 27.359375 18.0625 27.339844 18.09375 27.308594 18.117188 C 27.140625 18.398438 27.308594 18.539062 27.398438 18.722656 C 27.484375 18.632812 27.574219 18.542969 27.660156 18.449219 C 27.902344 18.195312 28.128906 17.929688 28.339844 17.652344 C 28.382812 17.519531 28.429688 17.457031 28.484375 17.449219 C 30.464844 14.613281 28.542969 12.855469 27.015625 12.554688 C 24.390625 12.039062 23.058594 14.863281 22.828125 15.398438 L 22.855469 15.402344 L 22.824219 15.40625 C 22.804688 15.457031 22.792969 15.484375 22.792969 15.484375 C 22.792969 15.484375 22.785156 15.460938 22.765625 15.414062 L 22.488281 15.453125 L 22.445312 15.308594 L 22.753906 15.378906 C 22.597656 15.023438 22.039062 13.847656 21.027344 13.113281 C 20.988281 13.160156 20.964844 13.214844 20.960938 13.277344 C 20.535156 13.339844 20.441406 13.09375 20.417969 12.753906 C 19.824219 12.488281 19.210938 12.417969 18.574219 12.554688 C 16.875 12.890625 14.6875 15.027344 17.929688 18.449219 C 18.117188 18.648438 18.300781 18.84375 18.480469 19.035156 Z M 27.507812 15.425781 L 27.894531 15.46875 L 27.792969 16.011719 C 28.132812 15.984375 28.503906 15.71875 28.816406 15.925781 C 28.863281 16.644531 28.703125 16.679688 28.484375 16.621094 C 28.261719 16.5625 27.964844 16.414062 27.75 16.773438 L 27.710938 16.015625 C 27.582031 15.953125 27.210938 16.210938 27.195312 15.914062 C 27.421875 16.273438 27.566406 15.796875 27.503906 15.425781 Z M 24.570312 18.398438 C 24.597656 18.316406 24.644531 18.15625 24.597656 18.089844 L 24.585938 18.074219 C 24.589844 18.078125 24.59375 18.082031 24.597656 18.089844 C 24.855469 18.367188 25.3125 17.984375 25.429688 18.726562 C 25.125 19.164062 24.878906 18.523438 24.566406 18.398438 Z M 24.304688 16.082031 C 24.28125 16.058594 24.257812 16.039062 24.238281 16.027344 L 24.308594 16.082031 L 24.304688 16.082031 C 24.433594 16.203125 24.582031 16.371094 24.691406 16.265625 C 24.4375 15.957031 25.046875 15.652344 24.960938 15.359375 C 25.328125 15.871094 24.964844 15.921875 25.070312 16.449219 C 25.292969 16.695312 25.730469 17.164062 26.039062 17.265625 C 26.179688 17.253906 26.308594 17.238281 26.347656 17.109375 C 26.296875 17.28125 26.179688 17.3125 26.039062 17.265625 C 25.789062 17.285156 25.5 17.28125 25.605469 17.863281 C 25.644531 18.003906 25.769531 17.878906 25.867188 17.847656 C 26.050781 18.101562 25.96875 18.371094 25.890625 18.644531 C 25.714844 18.058594 25.335938 17.878906 25.527344 17.25 C 25.0625 18.21875 24.746094 16.085938 24.375 17.019531 L 24.449219 17.078125 L 24.199219 17.328125 C 24.257812 16.824219 23.726562 16.300781 24.300781 16.082031 Z M 22.171875 16.214844 L 22.417969 16.847656 C 22.882812 16.761719 22.867188 16.523438 23.53125 16.925781 C 23.195312 16.882812 22.84375 17.171875 22.636719 17.570312 C 22.378906 17.265625 22.027344 17.550781 21.671875 17.28125 L 22.003906 16.75 L 21.480469 16.460938 C 21.675781 16.390625 22.246094 16.832031 22.171875 16.214844 Z M 20.710938 14.089844 L 20.574219 14.542969 L 20.355469 13.820312 Z M 21.113281 16.519531 C 20.902344 16.914062 21.34375 16.917969 21.457031 17.113281 C 20.945312 17.058594 20.738281 18.019531 20.296875 16.898438 C 20.492188 17.386719 20.773438 16.480469 21.113281 16.519531 Z M 21.113281 16.519531 " fill-opacity="1" fill-rule="nonzero"/></svg>