<svg xmlns="http://www.w3.org/2000/svg" xmlns:xlink="http://www.w3.org/1999/xlink" width="60" zoomAndPan="magnify" viewBox="0 0 45 44.999999" height="60" preserveAspectRatio="xMidYMid meet" version="1.0"><defs><clipPath id="5447a98b50"><path d="M 10 34 L 33 34 L 33 41.65625 L 10 41.65625 Z M 10 34 " clip-rule="nonzero"/></clipPath><clipPath id="1de08625fa"><path d="M 7.253906 3 L 34 3 L 34 26 L 7.253906 26 Z M 7.253906 3 " clip-rule="nonzero"/></clipPath></defs><path fill="#eff3fa" d="M 31.796875 32.867188 C 31.644531 32.867188 31.488281 32.863281 31.332031 32.855469 L 31.070312 32.84375 L 31.035156 29.917969 L 31.355469 29.960938 C 31.355469 29.960938 31.449219 29.976562 31.609375 29.976562 C 32.421875 29.976562 34.347656 29.664062 34.664062 26.804688 C 34.726562 24.101562 34.625 19.796875 34.09375 18.984375 L 34.070312 18.949219 L 34.058594 18.910156 C 34.054688 18.902344 33.746094 17.933594 33.035156 17.933594 C 32.574219 17.933594 31.992188 18.328125 31.347656 19.078125 L 31.285156 19.148438 L 30.410156 19.332031 L 30.097656 15.070312 L 30.296875 15 C 30.339844 14.984375 31.363281 14.632812 32.617188 14.632812 C 34.175781 14.632812 36.835938 15.222656 37.144531 19.171875 C 37.167969 19.429688 37.714844 25.542969 37.53125 27.636719 C 37.53125 27.847656 37.484375 29.855469 36.023438 31.335938 C 35.019531 32.351562 33.597656 32.863281 31.796875 32.863281 Z M 31.796875 32.867188 " fill-opacity="1" fill-rule="nonzero"/><path fill="#000000" d="M 32.617188 14.914062 C 34.378906 14.914062 36.589844 15.640625 36.867188 19.195312 C 36.867188 19.195312 37.441406 25.546875 37.253906 27.625 C 37.253906 27.625 37.296875 32.585938 31.796875 32.585938 C 31.648438 32.585938 31.5 32.582031 31.347656 32.574219 L 31.316406 30.238281 C 31.316406 30.238281 31.425781 30.253906 31.605469 30.253906 C 32.40625 30.253906 34.601562 29.964844 34.945312 26.820312 C 34.945312 26.820312 35.101562 20.015625 34.324219 18.828125 C 34.324219 18.828125 33.964844 17.652344 33.035156 17.652344 C 32.5625 17.652344 31.9375 17.960938 31.136719 18.894531 L 30.664062 18.992188 L 30.390625 15.261719 C 30.390625 15.261719 31.394531 14.914062 32.617188 14.914062 M 32.617188 14.355469 L 32.617188 14.914062 L 32.617188 14.355469 C 31.316406 14.355469 30.25 14.71875 30.207031 14.734375 L 29.800781 14.875 L 29.832031 15.304688 L 30.105469 19.035156 L 30.152344 19.671875 L 30.777344 19.542969 L 31.25 19.441406 L 31.4375 19.402344 L 31.558594 19.257812 C 32.339844 18.347656 32.820312 18.210938 33.035156 18.210938 C 33.53125 18.210938 33.789062 18.988281 33.792969 18.996094 L 33.816406 19.070312 L 33.859375 19.136719 C 33.953125 19.277344 34.265625 20 34.367188 23.289062 C 34.421875 24.984375 34.390625 26.570312 34.386719 26.785156 C 34.101562 29.316406 32.523438 29.695312 31.605469 29.695312 C 31.472656 29.695312 31.390625 29.683594 31.390625 29.683594 L 30.75 29.597656 L 30.757812 30.246094 L 30.789062 32.582031 L 30.796875 33.109375 L 31.320312 33.132812 C 31.480469 33.140625 31.640625 33.144531 31.796875 33.144531 C 33.671875 33.144531 35.160156 32.601562 36.21875 31.53125 C 37.730469 30.003906 37.808594 27.9375 37.808594 27.652344 C 37.992188 25.53125 37.449219 19.453125 37.421875 19.148438 C 37.09375 14.976562 34.269531 14.355469 32.617188 14.355469 Z M 32.617188 14.355469 " fill-opacity="1" fill-rule="nonzero"/><path fill="#eff3fa" d="M 21.023438 37.355469 C 18.90625 37.355469 13.765625 37.101562 11.785156 34.738281 C 11.742188 34.6875 11.71875 34.625 11.71875 34.558594 L 11.757812 16.316406 C 11.757812 16.175781 11.863281 16.058594 12 16.039062 L 30.40625 13.507812 C 30.417969 13.507812 30.429688 13.503906 30.441406 13.503906 C 30.507812 13.503906 30.570312 13.527344 30.621094 13.570312 C 30.679688 13.621094 30.71875 13.695312 30.722656 13.773438 L 31.652344 34.027344 C 31.652344 34.09375 31.632812 34.15625 31.59375 34.210938 C 30.917969 35.101562 28.613281 37.195312 21.8125 37.339844 C 21.816406 37.34375 21.515625 37.355469 21.023438 37.355469 Z M 21.023438 37.355469 " fill-opacity="1" fill-rule="nonzero"/><path fill="#000000" d="M 30.441406 13.785156 L 31.371094 34.042969 C 30.757812 34.855469 28.539062 36.917969 21.808594 37.0625 C 21.792969 37.0625 21.5 37.078125 21.023438 37.078125 C 19.050781 37.078125 13.917969 36.847656 12 34.558594 L 12.039062 16.316406 L 30.441406 13.785156 M 30.441406 13.226562 C 30.417969 13.226562 30.390625 13.226562 30.367188 13.230469 L 11.960938 15.761719 C 11.6875 15.800781 11.480469 16.039062 11.480469 16.316406 L 11.441406 34.558594 C 11.441406 34.6875 11.488281 34.816406 11.570312 34.917969 C 12.484375 36.007812 14.101562 36.78125 16.386719 37.226562 C 18.226562 37.582031 20.082031 37.636719 21.023438 37.636719 C 21.476562 37.636719 21.769531 37.625 21.828125 37.621094 C 28.742188 37.472656 31.117188 35.304688 31.816406 34.378906 C 31.894531 34.277344 31.933594 34.148438 31.929688 34.015625 L 31 13.761719 C 30.992188 13.605469 30.917969 13.457031 30.800781 13.355469 C 30.699219 13.273438 30.570312 13.226562 30.441406 13.226562 Z M 30.441406 13.226562 " fill-opacity="1" fill-rule="nonzero"/><g clip-path="url(#5447a98b50)"><path fill="#eff3fa" d="M 21.554688 41.375 C 19.46875 41.375 14.304688 41.171875 11.359375 39.265625 C 11.339844 39.25 11.320312 39.234375 11.304688 39.214844 C 11.21875 39.121094 10.523438 38.210938 11.503906 35.007812 C 11.539062 34.890625 11.640625 34.8125 11.761719 34.808594 C 11.761719 34.808594 11.84375 34.804688 11.847656 34.804688 C 11.921875 34.804688 11.996094 34.835938 12.046875 34.890625 C 12.394531 35.246094 12.835938 35.570312 13.363281 35.847656 C 15.777344 37.128906 19.449219 37.269531 20.914062 37.269531 C 21.4375 37.269531 21.773438 37.25 21.8125 37.25 C 28.035156 37.113281 30.453125 35.398438 31.34375 34.386719 C 31.394531 34.324219 31.472656 34.289062 31.550781 34.289062 C 31.5625 34.289062 31.578125 34.292969 31.589844 34.292969 C 31.679688 34.304688 31.761719 34.363281 31.800781 34.445312 C 31.949219 34.742188 33.1875 37.363281 32.019531 38.738281 C 32.015625 38.746094 32.007812 38.753906 32 38.757812 C 31.898438 38.855469 29.433594 41.144531 22.28125 41.367188 C 22.273438 41.367188 22.007812 41.378906 21.554688 41.378906 Z M 21.554688 41.375 " fill-opacity="1" fill-rule="nonzero"/><path fill="#000000" d="M 31.550781 34.570312 C 31.671875 34.816406 32.863281 37.3125 31.808594 38.558594 C 31.808594 38.558594 29.398438 40.863281 22.273438 41.085938 C 22.273438 41.085938 22.007812 41.097656 21.554688 41.097656 C 19.652344 41.097656 14.421875 40.914062 11.511719 39.027344 C 11.511719 39.027344 10.808594 38.234375 11.769531 35.089844 L 11.847656 35.085938 C 12.234375 35.480469 12.707031 35.816406 13.234375 36.097656 C 15.65625 37.382812 19.242188 37.546875 20.914062 37.546875 C 21.429688 37.546875 21.761719 37.53125 21.824219 37.527344 C 28.1875 37.390625 30.660156 35.585938 31.550781 34.570312 M 31.550781 34.011719 C 31.394531 34.011719 31.238281 34.078125 31.132812 34.199219 C 30.742188 34.648438 29.972656 35.296875 28.539062 35.855469 C 26.796875 36.535156 24.535156 36.910156 21.8125 36.96875 C 21.808594 36.96875 21.800781 36.96875 21.796875 36.96875 C 21.761719 36.972656 21.429688 36.988281 20.914062 36.988281 C 19.46875 36.988281 15.851562 36.851562 13.492188 35.601562 C 12.992188 35.335938 12.574219 35.03125 12.246094 34.695312 C 12.140625 34.585938 11.996094 34.527344 11.847656 34.527344 C 11.84375 34.527344 11.835938 34.527344 11.832031 34.527344 L 11.753906 34.527344 C 11.515625 34.535156 11.304688 34.695312 11.234375 34.925781 C 10.261719 38.121094 10.878906 39.160156 11.09375 39.398438 C 11.128906 39.4375 11.167969 39.472656 11.207031 39.5 C 14.214844 41.445312 19.445312 41.65625 21.554688 41.65625 C 22.011719 41.65625 22.28125 41.644531 22.292969 41.644531 C 29.546875 41.417969 32.089844 39.0625 32.195312 38.960938 C 32.207031 38.949219 32.222656 38.933594 32.234375 38.917969 C 33.488281 37.441406 32.300781 34.828125 32.050781 34.320312 C 31.96875 34.152344 31.808594 34.039062 31.625 34.015625 C 31.601562 34.011719 31.578125 34.011719 31.550781 34.011719 Z M 31.550781 34.011719 " fill-opacity="1" fill-rule="nonzero"/></g><path fill="#ffcd49" d="M 29.820312 31.984375 C 29.835938 33.007812 29.066406 34.128906 28.113281 34.46875 C 24.292969 35.835938 20.289062 35.980469 16.359375 35.042969 C 15.890625 34.929688 15.421875 34.816406 14.960938 34.667969 C 14 34.355469 13.199219 33.257812 13.183594 32.234375 L 13.050781 23.097656 C 13.039062 22.074219 13.011719 20.394531 13 19.371094 L 12.867188 10.238281 C 12.851562 9.210938 13.667969 8.359375 14.675781 8.347656 L 19.320312 8.277344 C 20.328125 8.261719 21.984375 8.238281 22.996094 8.222656 L 27.636719 8.152344 C 28.648438 8.136719 29.027344 8.964844 29.042969 9.988281 L 29.542969 19.121094 C 29.558594 20.148438 29.671875 21.824219 29.6875 22.851562 Z M 29.820312 31.984375 " fill-opacity="1" fill-rule="nonzero"/><path fill="#f89939" d="M 28.367188 28.59375 C 28.433594 29.613281 28.429688 30.519531 27.671875 30.710938 C 26.875 30.910156 26.789062 29.921875 26.769531 28.894531 C 26.710938 26.175781 26.734375 23.453125 26.730469 20.734375 C 26.726562 19.828125 26.726562 18.34375 26.722656 17.4375 L 26.710938 9.359375 C 26.710938 8.453125 26.789062 7.699219 26.886719 7.6875 L 27.335938 7.625 C 27.433594 7.613281 27.59375 7.589844 27.691406 7.578125 L 28.140625 7.515625 C 28.238281 7.503906 28.277344 8.234375 28.277344 9.140625 L 28.328125 17.21875 C 28.328125 18.125 28.339844 19.609375 28.339844 20.515625 C 28.34375 22.167969 28.339844 23.820312 28.347656 25.472656 C 28.351562 26.507812 28.300781 27.550781 28.367188 28.578125 C 28.367188 28.582031 28.367188 28.585938 28.367188 28.59375 Z M 28.367188 28.59375 " fill-opacity="1" fill-rule="nonzero"/><path fill="#ffffff" d="M 28.171875 15.667969 C 28.171875 15.667969 31.0625 18.273438 32.175781 13.4375 C 32.175781 13.4375 33.957031 12.695312 32.769531 11.058594 C 32.769531 11.058594 33.363281 9.121094 31.65625 9.34375 C 31.65625 9.34375 31.878906 6.816406 29.433594 7.261719 C 29.433594 7.261719 28.617188 5.773438 27.058594 6.964844 C 27.058594 6.964844 27.382812 5.5 26.6875 4.707031 C 26.6875 4.707031 23.945312 1.90625 20.976562 4.882812 C 20.976562 4.882812 19.417969 3.691406 18.15625 5.328125 C 18.15625 5.328125 16.898438 4.433594 15.710938 5.921875 C 15.710938 5.921875 14.449219 3.839844 13.039062 5.921875 C 13.039062 5.921875 9.703125 5.476562 10.148438 8.824219 C 10.148438 8.824219 7.550781 10.238281 8.886719 12.097656 C 8.886719 12.097656 7.265625 13.28125 8.441406 14.554688 C 8.441406 14.554688 7.453125 15.984375 9.332031 17.15625 C 9.332031 17.15625 9.628906 18.71875 10.816406 18.273438 C 10.816406 18.273438 10.445312 20.652344 12 21.027344 C 12 21.027344 12.296875 26.085938 15.414062 25.640625 C 15.414062 25.640625 17.789062 25.714844 18.234375 22.441406 C 18.234375 22.441406 20.976562 20.804688 19.640625 18.570312 C 19.640625 18.570312 22.234375 19.417969 23.125 16.964844 C 23.125 16.964844 24.925781 18.117188 25.667969 16.777344 C 25.664062 16.777344 27.949219 18.125 28.171875 15.667969 Z M 28.171875 15.667969 " fill-opacity="1" fill-rule="nonzero"/><g clip-path="url(#1de08625fa)"><path fill="#000000" d="M 15.03125 25.945312 C 12.355469 25.945312 11.828125 22.167969 11.738281 21.238281 C 10.546875 20.8125 10.464844 19.347656 10.5 18.628906 C 10.46875 18.632812 10.441406 18.632812 10.410156 18.632812 C 9.515625 18.632812 9.179688 17.679688 9.085938 17.332031 C 8.441406 16.90625 8.058594 16.402344 7.9375 15.828125 C 7.828125 15.289062 7.984375 14.832031 8.101562 14.585938 C 7.824219 14.226562 7.703125 13.835938 7.742188 13.429688 C 7.804688 12.796875 8.25 12.292969 8.519531 12.042969 C 8.242188 11.574219 8.160156 11.09375 8.273438 10.605469 C 8.496094 9.621094 9.457031 8.925781 9.847656 8.675781 C 9.757812 7.75 9.945312 7.015625 10.40625 6.488281 C 11.0625 5.738281 12.101562 5.625 12.660156 5.625 C 12.757812 5.625 12.839844 5.625 12.902344 5.632812 C 13.347656 5.023438 13.835938 4.71875 14.359375 4.71875 C 14.980469 4.71875 15.464844 5.167969 15.730469 5.480469 C 16.289062 4.910156 16.855469 4.78125 17.25 4.78125 C 17.605469 4.78125 17.898438 4.882812 18.089844 4.972656 C 18.554688 4.457031 19.113281 4.183594 19.71875 4.183594 C 20.25 4.183594 20.695312 4.386719 20.941406 4.527344 C 21.855469 3.667969 22.84375 3.230469 23.878906 3.230469 C 25.613281 3.230469 26.835938 4.457031 26.886719 4.511719 C 26.890625 4.511719 26.894531 4.515625 26.898438 4.519531 C 27.378906 5.070312 27.4375 5.871094 27.40625 6.421875 C 27.679688 6.289062 27.949219 6.222656 28.210938 6.222656 C 28.917969 6.222656 29.367188 6.695312 29.5625 6.957031 C 30.351562 6.855469 30.960938 7.035156 31.378906 7.492188 C 31.820312 7.980469 31.921875 8.652344 31.9375 9.046875 C 32.472656 9.054688 32.757812 9.289062 32.902344 9.488281 C 33.261719 9.972656 33.144531 10.695312 33.070312 11.003906 C 33.421875 11.53125 33.535156 12.039062 33.402344 12.507812 C 33.230469 13.132812 32.675781 13.492188 32.417969 13.628906 C 31.808594 16.121094 30.691406 16.648438 29.851562 16.648438 C 29.253906 16.648438 28.71875 16.386719 28.375 16.164062 C 28.113281 17.25 27.371094 17.425781 26.917969 17.425781 C 26.464844 17.425781 26.019531 17.257812 25.761719 17.140625 C 25.472656 17.511719 25.0625 17.703125 24.5625 17.703125 C 24.058594 17.703125 23.5625 17.507812 23.261719 17.359375 C 22.769531 18.414062 21.851562 18.992188 20.644531 18.992188 C 20.457031 18.992188 20.285156 18.976562 20.132812 18.957031 C 20.304688 19.433594 20.332031 19.917969 20.210938 20.398438 C 19.917969 21.566406 18.847656 22.367188 18.488281 22.605469 C 17.996094 25.804688 15.71875 25.917969 15.429688 25.917969 C 15.296875 25.9375 15.164062 25.945312 15.03125 25.945312 Z M 10.8125 17.992188 C 10.878906 17.992188 10.941406 18.015625 10.988281 18.058594 C 11.066406 18.121094 11.105469 18.21875 11.089844 18.316406 C 11.085938 18.335938 10.777344 20.445312 12.066406 20.753906 C 12.183594 20.78125 12.273438 20.886719 12.277344 21.007812 C 12.28125 21.054688 12.570312 25.386719 15.03125 25.386719 C 15.144531 25.386719 15.257812 25.378906 15.375 25.363281 C 15.390625 25.359375 15.40625 25.359375 15.421875 25.359375 C 15.644531 25.359375 17.5625 25.277344 17.957031 22.402344 C 17.964844 22.316406 18.015625 22.242188 18.089844 22.199219 C 18.101562 22.191406 19.382812 21.410156 19.671875 20.261719 C 19.800781 19.75 19.707031 19.226562 19.402344 18.714844 C 19.339844 18.613281 19.351562 18.488281 19.421875 18.398438 C 19.496094 18.304688 19.617188 18.269531 19.726562 18.304688 C 19.730469 18.304688 20.128906 18.433594 20.644531 18.433594 C 21.742188 18.433594 22.488281 17.90625 22.863281 16.867188 C 22.890625 16.789062 22.957031 16.726562 23.035156 16.699219 C 23.117188 16.671875 23.203125 16.683594 23.273438 16.726562 C 23.28125 16.730469 23.9375 17.144531 24.5625 17.144531 C 24.953125 17.144531 25.234375 16.980469 25.421875 16.640625 C 25.457031 16.574219 25.519531 16.527344 25.589844 16.507812 C 25.664062 16.488281 25.742188 16.496094 25.804688 16.535156 C 25.8125 16.539062 26.375 16.867188 26.917969 16.867188 L 26.921875 16.867188 C 27.136719 16.867188 27.78125 16.863281 27.894531 15.644531 C 27.902344 15.539062 27.96875 15.449219 28.070312 15.410156 C 28.167969 15.371094 28.277344 15.390625 28.355469 15.460938 C 28.363281 15.46875 29.070312 16.089844 29.851562 16.089844 C 31.03125 16.089844 31.621094 14.613281 31.90625 13.375 C 31.925781 13.289062 31.984375 13.214844 32.070312 13.179688 C 32.074219 13.175781 32.71875 12.898438 32.867188 12.355469 C 32.957031 12.023438 32.851562 11.644531 32.542969 11.222656 C 32.492188 11.152344 32.476562 11.058594 32.503906 10.976562 C 32.566406 10.761719 32.6875 10.132812 32.453125 9.820312 C 32.320312 9.636719 32.066406 9.574219 31.691406 9.625 C 31.609375 9.632812 31.523438 9.605469 31.464844 9.546875 C 31.402344 9.488281 31.371094 9.40625 31.378906 9.320312 C 31.378906 9.3125 31.449219 8.398438 30.964844 7.871094 C 30.730469 7.613281 30.40625 7.488281 29.976562 7.488281 C 29.824219 7.488281 29.65625 7.507812 29.480469 7.539062 C 29.363281 7.558594 29.246094 7.503906 29.1875 7.398438 C 29.175781 7.375 28.835938 6.785156 28.210938 6.785156 C 27.910156 6.785156 27.578125 6.917969 27.226562 7.1875 C 27.132812 7.257812 27.007812 7.265625 26.90625 7.199219 C 26.808594 7.136719 26.761719 7.019531 26.785156 6.90625 C 26.789062 6.890625 27.066406 5.574219 26.484375 4.898438 C 26.402344 4.820312 25.324219 3.792969 23.878906 3.792969 C 22.933594 3.792969 22.023438 4.226562 21.171875 5.078125 C 21.074219 5.179688 20.917969 5.1875 20.808594 5.105469 C 20.804688 5.101562 20.320312 4.742188 19.722656 4.742188 C 19.214844 4.742188 18.765625 4.996094 18.378906 5.5 C 18.285156 5.617188 18.117188 5.644531 17.996094 5.558594 C 17.996094 5.554688 17.679688 5.34375 17.25 5.34375 C 16.773438 5.34375 16.328125 5.597656 15.925781 6.097656 C 15.871094 6.167969 15.78125 6.207031 15.691406 6.203125 C 15.601562 6.195312 15.519531 6.148438 15.472656 6.070312 C 15.46875 6.0625 14.980469 5.277344 14.359375 5.277344 C 13.996094 5.277344 13.628906 5.546875 13.269531 6.082031 C 13.210938 6.167969 13.105469 6.214844 13.003906 6.199219 C 13 6.199219 12.867188 6.183594 12.660156 6.183594 C 12.195312 6.183594 11.335938 6.269531 10.824219 6.859375 C 10.445312 7.292969 10.308594 7.941406 10.421875 8.789062 C 10.4375 8.902344 10.382812 9.015625 10.28125 9.070312 C 10.269531 9.078125 9.035156 9.761719 8.816406 10.730469 C 8.722656 11.136719 8.820312 11.53125 9.113281 11.933594 C 9.203125 12.058594 9.175781 12.234375 9.050781 12.324219 C 9.042969 12.328125 8.359375 12.84375 8.296875 13.488281 C 8.265625 13.792969 8.382812 14.078125 8.644531 14.363281 C 8.734375 14.460938 8.746094 14.605469 8.667969 14.714844 C 8.667969 14.714844 8.371094 15.167969 8.488281 15.722656 C 8.582031 16.164062 8.914062 16.570312 9.476562 16.921875 C 9.542969 16.960938 9.589844 17.027344 9.605469 17.105469 C 9.605469 17.113281 9.800781 18.074219 10.410156 18.074219 C 10.503906 18.074219 10.605469 18.054688 10.714844 18.011719 C 10.746094 18 10.78125 17.992188 10.8125 17.992188 Z M 10.8125 17.992188 " fill-opacity="1" fill-rule="nonzero"/></g><path fill="#f89939" d="M 18.882812 32.152344 C 19.296875 32.152344 19.296875 31.507812 18.882812 31.507812 C 18.464844 31.507812 18.464844 32.152344 18.882812 32.152344 Z M 18.882812 32.152344 " fill-opacity="1" fill-rule="nonzero"/><path fill="#f89939" d="M 20.738281 27.492188 C 21.15625 27.492188 21.15625 26.847656 20.738281 26.847656 C 20.324219 26.847656 20.324219 27.492188 20.738281 27.492188 Z M 20.738281 27.492188 " fill-opacity="1" fill-rule="nonzero"/><path fill="#f89939" d="M 23.15625 21.527344 C 23.570312 21.527344 23.570312 20.878906 23.15625 20.878906 C 22.738281 20.878906 22.738281 21.527344 23.15625 21.527344 Z M 23.15625 21.527344 " fill-opacity="1" fill-rule="nonzero"/><path fill="#f89939" d="M 16.277344 28.050781 C 16.695312 28.050781 16.695312 27.40625 16.277344 27.40625 C 15.863281 27.40625 15.863281 28.050781 16.277344 28.050781 Z M 16.277344 28.050781 " fill-opacity="1" fill-rule="nonzero"/><path fill="#f89939" d="M 25.015625 32.058594 C 25.429688 32.058594 25.429688 31.414062 25.015625 31.414062 C 24.597656 31.414062 24.597656 32.058594 25.015625 32.058594 Z M 25.015625 32.058594 " fill-opacity="1" fill-rule="nonzero"/><path fill="#f89939" d="M 23.695312 24.671875 C 23.734375 24.546875 23.742188 24.414062 23.664062 24.292969 C 23.59375 24.183594 23.480469 24.109375 23.34375 24.109375 C 23.203125 24.109375 23.089844 24.183594 23.019531 24.292969 C 22.941406 24.414062 22.949219 24.546875 22.988281 24.671875 C 23.039062 24.828125 23.175781 24.941406 23.34375 24.941406 C 23.507812 24.941406 23.644531 24.828125 23.695312 24.671875 Z M 23.695312 24.671875 " fill-opacity="1" fill-rule="nonzero"/><path fill="#f89939" d="M 19.390625 24.699219 C 19.425781 24.730469 19.457031 24.757812 19.492188 24.789062 C 19.582031 24.871094 19.683594 24.921875 19.8125 24.921875 C 19.929688 24.921875 20.046875 24.871094 20.128906 24.789062 C 20.214844 24.703125 20.261719 24.585938 20.261719 24.46875 C 20.261719 24.339844 20.210938 24.238281 20.128906 24.144531 C 20.101562 24.113281 20.070312 24.082031 20.042969 24.046875 C 19.875 23.859375 19.5625 23.878906 19.390625 24.046875 C 19.222656 24.21875 19.203125 24.53125 19.390625 24.699219 Z M 19.390625 24.699219 " fill-opacity="1" fill-rule="nonzero"/><path fill="#f89939" d="M 21.203125 30.941406 C 21.621094 30.941406 21.621094 30.296875 21.203125 30.296875 C 20.789062 30.296875 20.789062 30.941406 21.203125 30.941406 Z M 21.203125 30.941406 " fill-opacity="1" fill-rule="nonzero"/><path fill="#f89939" d="M 23.640625 28.90625 C 23.605469 28.816406 23.558594 28.699219 23.464844 28.65625 C 23.378906 28.617188 23.3125 28.605469 23.222656 28.625 C 23.152344 28.640625 23.09375 28.691406 23.046875 28.734375 C 22.9375 28.839844 22.929688 29.042969 23.046875 29.144531 C 23.164062 29.25 23.285156 29.28125 23.441406 29.253906 C 23.511719 29.242188 23.589844 29.191406 23.636719 29.144531 C 23.570312 29.171875 23.503906 29.199219 23.433594 29.226562 L 23.527344 29.226562 C 23.65625 29.226562 23.769531 29.140625 23.804688 29.015625 C 23.84375 28.871094 23.757812 28.695312 23.605469 28.660156 C 23.667969 28.675781 23.644531 28.683594 23.617188 28.671875 C 23.589844 28.660156 23.554688 28.644531 23.523438 28.632812 C 23.597656 28.707031 23.671875 28.78125 23.746094 28.855469 C 23.714844 28.746094 23.652344 28.683594 23.566406 28.617188 C 23.589844 28.636719 23.617188 28.65625 23.640625 28.675781 C 23.636719 28.671875 23.632812 28.667969 23.628906 28.664062 C 23.578125 28.617188 23.519531 28.582031 23.449219 28.5625 C 23.335938 28.53125 23.242188 28.558594 23.136719 28.601562 C 23.097656 28.621094 23.0625 28.65625 23.027344 28.6875 C 22.960938 28.746094 22.925781 28.828125 22.898438 28.910156 C 22.84375 29.0625 22.90625 29.25 23.015625 29.359375 C 23.167969 29.511719 23.390625 29.527344 23.574219 29.429688 C 23.582031 29.425781 23.589844 29.421875 23.597656 29.417969 C 23.519531 29.441406 23.4375 29.460938 23.359375 29.484375 C 23.582031 29.488281 23.765625 29.339844 23.855469 29.148438 C 23.753906 29.226562 23.652344 29.304688 23.550781 29.382812 C 23.695312 29.332031 23.816406 29.257812 23.894531 29.125 C 23.925781 29.070312 23.9375 29.023438 23.957031 28.96875 C 23.9375 29.011719 23.921875 29.054688 23.902344 29.097656 C 23.835938 29.160156 23.773438 29.226562 23.707031 29.292969 C 23.4375 29.136719 23.164062 28.976562 22.890625 28.820312 C 22.890625 28.828125 22.890625 28.839844 22.886719 28.847656 C 22.871094 28.980469 22.957031 29.140625 23.046875 29.234375 C 23.148438 29.335938 23.289062 29.394531 23.433594 29.394531 C 23.578125 29.394531 23.71875 29.335938 23.820312 29.234375 C 23.914062 29.140625 23.996094 28.980469 23.980469 28.847656 C 23.972656 28.789062 23.976562 28.730469 23.957031 28.675781 C 23.902344 28.492188 23.765625 28.347656 23.578125 28.296875 C 23.480469 28.269531 23.386719 28.269531 23.289062 28.296875 C 23.199219 28.320312 23.117188 28.367188 23.050781 28.4375 C 22.929688 28.53125 22.902344 28.691406 22.890625 28.832031 C 22.875 28.996094 22.953125 29.132812 23.058594 29.25 C 23.015625 29.085938 22.972656 28.921875 22.929688 28.753906 C 22.925781 28.78125 22.917969 28.804688 22.910156 28.832031 C 22.882812 28.929688 22.871094 29.035156 22.90625 29.136719 L 22.90625 28.886719 C 22.90625 28.890625 22.902344 28.894531 22.902344 28.898438 C 22.917969 28.863281 22.933594 28.824219 22.949219 28.789062 C 22.949219 28.792969 22.945312 28.796875 22.945312 28.800781 C 23.222656 28.835938 23.503906 28.875 23.785156 28.910156 C 23.757812 28.832031 23.726562 28.746094 23.660156 28.691406 C 23.625 28.660156 23.585938 28.621094 23.546875 28.601562 C 23.609375 28.753906 23.667969 28.90625 23.730469 29.058594 C 23.734375 29.054688 23.734375 29.046875 23.734375 29.039062 C 23.679688 29.113281 23.621094 29.1875 23.566406 29.261719 C 23.652344 29.195312 23.714844 29.132812 23.746094 29.023438 C 23.671875 29.097656 23.597656 29.171875 23.523438 29.246094 C 23.554688 29.234375 23.589844 29.222656 23.617188 29.207031 C 23.644531 29.195312 23.664062 29.203125 23.605469 29.21875 C 23.726562 29.191406 23.816406 29.0625 23.816406 28.941406 C 23.816406 28.78125 23.683594 28.652344 23.527344 28.652344 C 23.472656 28.652344 23.410156 28.648438 23.359375 28.660156 C 23.308594 28.675781 23.269531 28.699219 23.230469 28.738281 C 23.199219 28.765625 23.300781 28.6875 23.261719 28.710938 C 23.222656 28.738281 23.335938 28.6875 23.289062 28.699219 C 23.34375 28.683594 23.40625 28.695312 23.453125 28.734375 L 23.453125 29.144531 C 23.457031 29.140625 23.460938 29.132812 23.464844 29.128906 C 23.425781 29.167969 23.375 29.191406 23.3125 29.191406 C 23.265625 29.175781 23.21875 29.164062 23.167969 29.152344 C 23.140625 29.121094 23.109375 29.089844 23.082031 29.0625 C 23.070312 29.011719 23.054688 28.964844 23.042969 28.917969 C 23.046875 28.945312 23.046875 28.929688 23.050781 28.867188 C 23.050781 28.878906 23.046875 28.894531 23.042969 28.90625 C 22.988281 29.097656 23.140625 29.296875 23.339844 29.296875 C 23.527344 29.296875 23.710938 29.097656 23.640625 28.90625 Z M 23.640625 28.90625 " fill-opacity="1" fill-rule="nonzero"/><path fill="#f89939" d="M 15.507812 30.203125 C 15.390625 30.253906 15.289062 30.394531 15.265625 30.515625 C 15.238281 30.636719 15.25 30.710938 15.269531 30.835938 C 15.292969 30.914062 15.332031 30.984375 15.390625 31.042969 C 15.476562 31.128906 15.597656 31.179688 15.722656 31.179688 C 15.804688 31.179688 15.882812 31.160156 15.957031 31.117188 C 16.054688 31.058594 16.152344 30.949219 16.171875 30.835938 C 16.175781 30.816406 16.179688 30.796875 16.1875 30.773438 C 16.167969 30.8125 16.152344 30.851562 16.136719 30.890625 C 16.140625 30.886719 16.140625 30.882812 16.144531 30.878906 C 16.117188 30.914062 16.09375 30.945312 16.066406 30.976562 C 16.070312 30.976562 16.070312 30.972656 16.074219 30.972656 C 16.042969 30.996094 16.007812 31.023438 15.976562 31.046875 C 15.976562 31.046875 15.980469 31.046875 15.980469 31.042969 C 15.941406 31.0625 15.902344 31.078125 15.863281 31.09375 C 15.867188 31.09375 15.871094 31.089844 15.875 31.089844 C 15.832031 31.097656 15.789062 31.101562 15.746094 31.109375 C 15.746094 31.109375 15.75 31.109375 15.75 31.109375 C 15.882812 31.09375 15.996094 31.0625 16.09375 30.964844 C 16.214844 30.84375 16.265625 30.660156 16.21875 30.492188 C 16.183594 30.371094 16.105469 30.265625 15.996094 30.203125 C 15.921875 30.15625 15.839844 30.136719 15.75 30.136719 C 15.664062 30.136719 15.582031 30.15625 15.507812 30.203125 Z M 15.507812 30.203125 " fill-opacity="1" fill-rule="nonzero"/><path fill="#f89939" d="M 25.480469 18.363281 C 25.542969 18.363281 25.542969 18.265625 25.480469 18.265625 C 25.417969 18.265625 25.417969 18.363281 25.480469 18.363281 Z M 25.480469 18.363281 " fill-opacity="1" fill-rule="nonzero"/><path fill="#f89939" d="M 25.292969 19.105469 C 25.710938 19.105469 25.710938 18.457031 25.292969 18.457031 C 24.878906 18.457031 24.878906 19.105469 25.292969 19.105469 Z M 25.292969 19.105469 " fill-opacity="1" fill-rule="nonzero"/></svg>