<svg xmlns="http://www.w3.org/2000/svg" xmlns:xlink="http://www.w3.org/1999/xlink" width="60" zoomAndPan="magnify" viewBox="0 0 45 44.999999" height="60" preserveAspectRatio="xMidYMid meet" version="1.0"><defs><clipPath id="5b7799fa04"><path d="M 7 3.109375 L 40 3.109375 L 40 41 L 7 41 Z M 7 3.109375 " clip-rule="nonzero"/></clipPath><clipPath id="153d25698b"><path d="M 5 3.109375 L 13 3.109375 L 13 17 L 5 17 Z M 5 3.109375 " clip-rule="nonzero"/></clipPath><clipPath id="4cf8a996f6"><path d="M 4.800781 3.109375 L 14 3.109375 L 14 17 L 4.800781 17 Z M 4.800781 3.109375 " clip-rule="nonzero"/></clipPath></defs><path fill="#f79745" d="M 18.394531 35.425781 C 16.898438 35.425781 15.6875 34.203125 15.6875 32.691406 C 15.6875 31.183594 16.898438 29.960938 18.394531 29.960938 C 19.886719 29.960938 21.097656 31.183594 21.097656 32.691406 C 21.097656 34.203125 19.886719 35.425781 18.394531 35.425781 Z M 39.601562 19.03125 C 38.933594 10.125 31.554688 3.105469 22.335938 4.320312 C 13.695312 5.457031 8.019531 13.496094 8.019531 21.828125 C 8.019531 32.730469 16.488281 42.105469 22.402344 39.269531 C 27.097656 37.019531 20.363281 33.367188 24.742188 31.039062 C 27.28125 29.691406 29.21875 33.402344 31.554688 33.0625 C 35.296875 32.523438 40.035156 24.796875 39.601562 19.03125 " fill-opacity="1" fill-rule="nonzero"/><g clip-path="url(#5b7799fa04)"><path fill="#0f0a0a" d="M 18.394531 35.425781 L 18.394531 35.195312 C 17.707031 35.195312 17.089844 34.914062 16.640625 34.460938 C 16.191406 34.007812 15.914062 33.382812 15.914062 32.691406 C 15.914062 32 16.191406 31.378906 16.640625 30.925781 C 17.089844 30.472656 17.707031 30.191406 18.394531 30.191406 C 19.078125 30.191406 19.695312 30.472656 20.144531 30.925781 C 20.59375 31.378906 20.871094 32 20.871094 32.691406 C 20.871094 33.382812 20.59375 34.007812 20.144531 34.460938 C 19.695312 34.914062 19.078125 35.195312 18.394531 35.195312 L 18.394531 35.65625 C 20.015625 35.65625 21.328125 34.332031 21.328125 32.691406 C 21.328125 31.054688 20.015625 29.730469 18.394531 29.730469 C 16.769531 29.730469 15.457031 31.054688 15.457031 32.691406 C 15.457031 34.332031 16.769531 35.65625 18.394531 35.65625 Z M 39.601562 19.03125 L 39.832031 19.011719 C 39.519531 14.84375 37.753906 11.078125 35.019531 8.355469 C 32.289062 5.632812 28.582031 3.953125 24.402344 3.953125 C 23.714844 3.953125 23.015625 4 22.304688 4.089844 C 17.921875 4.667969 14.289062 7 11.757812 10.234375 C 9.226562 13.46875 7.792969 17.609375 7.792969 21.828125 C 7.792969 26.664062 9.4375 31.195312 11.792969 34.527344 C 12.96875 36.191406 14.328125 37.558594 15.753906 38.515625 C 17.179688 39.46875 18.675781 40.011719 20.132812 40.015625 C 20.945312 40.015625 21.742188 39.84375 22.5 39.480469 C 23.195312 39.148438 23.667969 38.777344 23.964844 38.363281 C 24.265625 37.953125 24.382812 37.5 24.382812 37.058594 C 24.378906 36.371094 24.125 35.695312 23.882812 35.039062 C 23.636719 34.382812 23.410156 33.746094 23.410156 33.179688 C 23.410156 32.828125 23.492188 32.503906 23.703125 32.1875 C 23.917969 31.867188 24.273438 31.546875 24.847656 31.246094 C 25.210938 31.050781 25.550781 30.976562 25.882812 30.972656 C 26.308594 30.972656 26.734375 31.105469 27.164062 31.316406 C 27.808594 31.632812 28.457031 32.121094 29.121094 32.542969 C 29.457031 32.75 29.796875 32.941406 30.148438 33.085938 C 30.5 33.226562 30.867188 33.316406 31.25 33.316406 C 31.363281 33.316406 31.476562 33.308594 31.589844 33.292969 C 32.550781 33.152344 33.535156 32.585938 34.480469 31.742188 C 35.898438 30.472656 37.234375 28.566406 38.226562 26.4375 C 39.214844 24.308594 39.859375 21.953125 39.859375 19.785156 C 39.859375 19.523438 39.851562 19.265625 39.832031 19.011719 L 39.601562 19.03125 L 39.375 19.046875 C 39.390625 19.289062 39.402344 19.535156 39.402344 19.785156 C 39.402344 22.554688 38.292969 25.71875 36.742188 28.234375 C 35.964844 29.492188 35.082031 30.585938 34.175781 31.394531 C 33.273438 32.203125 32.351562 32.71875 31.523438 32.835938 C 31.433594 32.847656 31.34375 32.855469 31.25 32.855469 C 30.839844 32.855469 30.425781 32.722656 30.003906 32.511719 C 29.367188 32.199219 28.722656 31.707031 28.050781 31.289062 C 27.714844 31.078125 27.371094 30.886719 27.007812 30.742188 C 26.648438 30.601562 26.273438 30.511719 25.882812 30.511719 C 25.476562 30.511719 25.058594 30.609375 24.632812 30.835938 C 24.015625 31.164062 23.59375 31.527344 23.324219 31.925781 C 23.054688 32.324219 22.953125 32.753906 22.953125 33.179688 C 22.953125 33.867188 23.210938 34.546875 23.453125 35.203125 C 23.695312 35.859375 23.925781 36.496094 23.925781 37.058594 C 23.921875 37.425781 23.835938 37.757812 23.597656 38.089844 C 23.355469 38.421875 22.953125 38.75 22.304688 39.0625 C 21.609375 39.394531 20.882812 39.550781 20.132812 39.550781 C 18.789062 39.550781 17.375 39.046875 16.007812 38.128906 C 13.953125 36.753906 12.007812 34.453125 10.582031 31.609375 C 9.15625 28.761719 8.25 25.375 8.25 21.828125 C 8.25 17.714844 9.652344 13.671875 12.117188 10.519531 C 14.585938 7.367188 18.109375 5.109375 22.363281 4.550781 C 23.054688 4.460938 23.734375 4.414062 24.402344 4.414062 C 28.460938 4.414062 32.042969 6.042969 34.699219 8.683594 C 37.351562 11.328125 39.070312 14.988281 39.375 19.046875 L 39.601562 19.03125 " fill-opacity="1" fill-rule="nonzero"/></g><path fill="#b26843" d="M 33.644531 27.0625 C 33.644531 28.878906 32.183594 30.351562 30.386719 30.351562 C 28.585938 30.351562 27.128906 28.878906 27.128906 27.0625 C 27.128906 25.242188 28.585938 23.773438 30.386719 23.773438 C 32.183594 23.773438 33.644531 25.242188 33.644531 27.0625 " fill-opacity="1" fill-rule="nonzero"/><path fill="#0f0a0a" d="M 33.644531 27.0625 L 33.414062 27.0625 C 33.414062 27.90625 33.078125 28.667969 32.527344 29.222656 C 31.980469 29.777344 31.222656 30.117188 30.386719 30.117188 C 29.550781 30.117188 28.792969 29.777344 28.246094 29.222656 C 27.695312 28.667969 27.359375 27.90625 27.359375 27.0625 C 27.359375 26.214844 27.695312 25.453125 28.246094 24.898438 C 28.792969 24.34375 29.550781 24.003906 30.386719 24.003906 C 31.222656 24.003906 31.980469 24.34375 32.527344 24.898438 C 33.078125 25.453125 33.414062 26.214844 33.414062 27.0625 L 33.875 27.0625 C 33.875 25.117188 32.3125 23.539062 30.386719 23.539062 C 28.460938 23.539062 26.898438 25.117188 26.898438 27.0625 C 26.898438 29.003906 28.460938 30.582031 30.386719 30.582031 C 32.3125 30.582031 33.875 29.003906 33.875 27.0625 L 33.644531 27.0625 " fill-opacity="1" fill-rule="nonzero"/><path fill="#b26843" d="M 36.902344 18.691406 C 36.902344 20.507812 35.441406 21.980469 33.644531 21.980469 C 31.84375 21.980469 30.386719 20.507812 30.386719 18.691406 C 30.386719 16.875 31.84375 15.402344 33.644531 15.402344 C 35.441406 15.402344 36.902344 16.875 36.902344 18.691406 " fill-opacity="1" fill-rule="nonzero"/><path fill="#0f0a0a" d="M 36.902344 18.691406 L 36.671875 18.691406 C 36.671875 19.539062 36.332031 20.300781 35.785156 20.855469 C 35.238281 21.410156 34.480469 21.75 33.644531 21.75 C 32.808594 21.75 32.050781 21.410156 31.503906 20.855469 C 30.953125 20.300781 30.617188 19.539062 30.617188 18.691406 C 30.617188 17.847656 30.953125 17.085938 31.503906 16.53125 C 32.050781 15.976562 32.808594 15.636719 33.644531 15.632812 C 34.480469 15.636719 35.238281 15.976562 35.785156 16.53125 C 36.332031 17.085938 36.671875 17.847656 36.671875 18.691406 L 37.128906 18.691406 C 37.128906 16.75 35.570312 15.171875 33.644531 15.171875 C 31.71875 15.171875 30.15625 16.75 30.15625 18.691406 C 30.15625 20.636719 31.71875 22.214844 33.644531 22.214844 C 35.570312 22.214844 37.128906 20.636719 37.128906 18.691406 L 36.902344 18.691406 " fill-opacity="1" fill-rule="nonzero"/><path fill="#b26843" d="M 30.988281 11.507812 C 30.988281 13.324219 29.53125 14.796875 27.730469 14.796875 C 25.929688 14.796875 24.472656 13.324219 24.472656 11.507812 C 24.472656 9.691406 25.929688 8.21875 27.730469 8.21875 C 29.53125 8.21875 30.988281 9.691406 30.988281 11.507812 " fill-opacity="1" fill-rule="nonzero"/><path fill="#0f0a0a" d="M 30.988281 11.507812 L 30.757812 11.507812 C 30.757812 12.351562 30.421875 13.113281 29.871094 13.667969 C 29.324219 14.222656 28.566406 14.566406 27.730469 14.566406 C 26.894531 14.566406 26.136719 14.222656 25.589844 13.667969 C 25.039062 13.113281 24.703125 12.351562 24.703125 11.507812 C 24.703125 10.660156 25.039062 9.898438 25.589844 9.34375 C 26.136719 8.792969 26.894531 8.449219 27.730469 8.449219 C 28.566406 8.449219 29.324219 8.792969 29.871094 9.34375 C 30.421875 9.898438 30.757812 10.660156 30.757812 11.507812 L 31.214844 11.507812 C 31.214844 9.5625 29.65625 7.988281 27.730469 7.988281 C 25.804688 7.988281 24.242188 9.5625 24.242188 11.507812 C 24.242188 13.453125 25.804688 15.027344 27.730469 15.027344 C 29.65625 15.027344 31.214844 13.453125 31.214844 11.507812 L 30.988281 11.507812 " fill-opacity="1" fill-rule="nonzero"/><path fill="#b26843" d="M 22.46875 11.507812 C 22.46875 13.324219 21.007812 14.796875 19.210938 14.796875 C 17.410156 14.796875 15.953125 13.324219 15.953125 11.507812 C 15.953125 9.691406 17.410156 8.21875 19.210938 8.21875 C 21.007812 8.21875 22.46875 9.691406 22.46875 11.507812 " fill-opacity="1" fill-rule="nonzero"/><path fill="#0f0a0a" d="M 22.46875 11.507812 L 22.238281 11.507812 C 22.238281 12.351562 21.898438 13.113281 21.351562 13.667969 C 20.804688 14.222656 20.046875 14.566406 19.210938 14.566406 C 18.375 14.566406 17.617188 14.222656 17.070312 13.667969 C 16.519531 13.113281 16.183594 12.351562 16.183594 11.507812 C 16.183594 10.660156 16.519531 9.898438 17.070312 9.34375 C 17.617188 8.792969 18.375 8.449219 19.210938 8.449219 C 20.046875 8.449219 20.804688 8.792969 21.351562 9.34375 C 21.898438 9.898438 22.238281 10.660156 22.238281 11.507812 L 22.695312 11.507812 C 22.695312 9.5625 21.136719 7.988281 19.210938 7.988281 C 17.285156 7.988281 15.722656 9.5625 15.722656 11.507812 C 15.722656 13.453125 17.285156 15.027344 19.210938 15.027344 C 21.136719 15.027344 22.695312 13.453125 22.695312 11.507812 L 22.46875 11.507812 " fill-opacity="1" fill-rule="nonzero"/><path fill="#64c9a1" d="M 34.078125 26.46875 C 34.078125 28.285156 32.621094 29.757812 30.820312 29.757812 C 29.023438 29.757812 27.5625 28.285156 27.5625 26.46875 C 27.5625 24.652344 29.023438 23.179688 30.820312 23.179688 C 32.621094 23.179688 34.078125 24.652344 34.078125 26.46875 " fill-opacity="1" fill-rule="nonzero"/><path fill="#000000" d="M 34.078125 26.46875 L 33.847656 26.46875 C 33.847656 27.316406 33.511719 28.078125 32.960938 28.632812 C 32.414062 29.1875 31.65625 29.527344 30.820312 29.527344 C 29.984375 29.527344 29.226562 29.1875 28.679688 28.632812 C 28.132812 28.078125 27.792969 27.316406 27.792969 26.46875 C 27.792969 25.625 28.132812 24.863281 28.679688 24.308594 C 29.226562 23.753906 29.984375 23.410156 30.820312 23.410156 C 31.65625 23.410156 32.414062 23.753906 32.960938 24.308594 C 33.511719 24.863281 33.847656 25.625 33.847656 26.46875 L 34.308594 26.46875 C 34.308594 24.527344 32.746094 22.949219 30.820312 22.949219 C 28.894531 22.949219 27.332031 24.527344 27.332031 26.46875 C 27.332031 28.414062 28.894531 29.988281 30.820312 29.992188 C 32.746094 29.988281 34.308594 28.414062 34.308594 26.46875 L 34.078125 26.46875 " fill-opacity="1" fill-rule="nonzero"/><path fill="#ee2a28" d="M 37.335938 18.101562 C 37.335938 19.917969 35.878906 21.390625 34.078125 21.390625 C 32.277344 21.390625 30.820312 19.917969 30.820312 18.101562 C 30.820312 16.285156 32.277344 14.8125 34.078125 14.8125 C 35.878906 14.8125 37.335938 16.285156 37.335938 18.101562 " fill-opacity="1" fill-rule="nonzero"/><path fill="#0f0a0a" d="M 37.335938 18.101562 L 37.105469 18.101562 C 37.105469 18.945312 36.769531 19.710938 36.21875 20.265625 C 35.671875 20.816406 34.914062 21.160156 34.078125 21.160156 C 33.242188 21.160156 32.484375 20.816406 31.9375 20.265625 C 31.386719 19.710938 31.050781 18.945312 31.050781 18.101562 C 31.050781 17.257812 31.386719 16.492188 31.9375 15.9375 C 32.484375 15.386719 33.242188 15.042969 34.078125 15.042969 C 34.914062 15.042969 35.671875 15.386719 36.21875 15.9375 C 36.769531 16.492188 37.105469 17.257812 37.105469 18.101562 L 37.566406 18.101562 C 37.566406 16.15625 36.003906 14.582031 34.078125 14.582031 C 32.152344 14.582031 30.59375 16.15625 30.59375 18.101562 C 30.59375 20.046875 32.152344 21.621094 34.078125 21.621094 C 36.003906 21.621094 37.566406 20.046875 37.566406 18.101562 L 37.335938 18.101562 " fill-opacity="1" fill-rule="nonzero"/><path fill="#fbbf09" d="M 31.421875 10.914062 C 31.421875 12.734375 29.964844 14.203125 28.164062 14.203125 C 26.367188 14.203125 24.90625 12.734375 24.90625 10.914062 C 24.90625 9.097656 26.367188 7.625 28.164062 7.625 C 29.964844 7.625 31.421875 9.097656 31.421875 10.914062 " fill-opacity="1" fill-rule="nonzero"/><path fill="#0f0a0a" d="M 31.421875 10.914062 L 31.191406 10.914062 C 31.191406 11.761719 30.855469 12.523438 30.304688 13.078125 C 29.757812 13.632812 29 13.972656 28.164062 13.972656 C 27.328125 13.972656 26.570312 13.632812 26.023438 13.078125 C 25.476562 12.523438 25.136719 11.761719 25.136719 10.914062 C 25.136719 10.070312 25.476562 9.308594 26.023438 8.753906 C 26.570312 8.199219 27.328125 7.859375 28.164062 7.859375 C 29 7.859375 29.757812 8.199219 30.304688 8.753906 C 30.855469 9.308594 31.191406 10.070312 31.191406 10.914062 L 31.652344 10.914062 C 31.652344 8.972656 30.089844 7.394531 28.164062 7.394531 C 26.238281 7.394531 24.675781 8.972656 24.675781 10.914062 C 24.675781 12.859375 26.238281 14.4375 28.164062 14.4375 C 30.089844 14.4375 31.652344 12.859375 31.652344 10.914062 L 31.421875 10.914062 " fill-opacity="1" fill-rule="nonzero"/><path fill="#42a3ab" d="M 22.902344 10.914062 C 22.902344 12.734375 21.445312 14.203125 19.644531 14.203125 C 17.847656 14.203125 16.386719 12.734375 16.386719 10.914062 C 16.386719 9.097656 17.847656 7.625 19.644531 7.625 C 21.445312 7.625 22.902344 9.097656 22.902344 10.914062 " fill-opacity="1" fill-rule="nonzero"/><path fill="#0f0a0a" d="M 22.902344 10.914062 L 22.671875 10.914062 C 22.671875 11.761719 22.335938 12.523438 21.785156 13.078125 C 21.238281 13.632812 20.480469 13.972656 19.644531 13.972656 C 18.808594 13.972656 18.050781 13.632812 17.503906 13.078125 C 16.957031 12.523438 16.617188 11.761719 16.617188 10.914062 C 16.617188 10.070312 16.957031 9.308594 17.503906 8.753906 C 18.050781 8.199219 18.808594 7.859375 19.644531 7.859375 C 20.480469 7.859375 21.238281 8.199219 21.785156 8.753906 C 22.335938 9.308594 22.671875 10.070312 22.671875 10.914062 L 23.132812 10.914062 C 23.132812 8.972656 21.570312 7.394531 19.644531 7.394531 C 17.71875 7.394531 16.160156 8.972656 16.160156 10.914062 C 16.160156 12.859375 17.71875 14.4375 19.644531 14.4375 C 21.570312 14.4375 23.132812 12.859375 23.132812 10.914062 L 22.902344 10.914062 " fill-opacity="1" fill-rule="nonzero"/><path fill="#b26843" d="M 15.953125 18.101562 C 15.953125 19.917969 14.496094 21.390625 12.695312 21.390625 C 10.898438 21.390625 9.4375 19.917969 9.4375 18.101562 C 9.4375 16.285156 10.898438 14.8125 12.695312 14.8125 C 14.496094 14.8125 15.953125 16.285156 15.953125 18.101562 " fill-opacity="1" fill-rule="nonzero"/><path fill="#0f0a0a" d="M 15.953125 18.101562 L 15.722656 18.101562 C 15.722656 18.945312 15.386719 19.710938 14.835938 20.265625 C 14.289062 20.816406 13.53125 21.160156 12.695312 21.160156 C 11.859375 21.160156 11.101562 20.816406 10.554688 20.265625 C 10.003906 19.710938 9.667969 18.945312 9.667969 18.101562 C 9.667969 17.257812 10.003906 16.492188 10.554688 15.9375 C 11.101562 15.386719 11.859375 15.042969 12.695312 15.042969 C 13.53125 15.042969 14.289062 15.386719 14.835938 15.9375 C 15.386719 16.492188 15.722656 17.257812 15.722656 18.101562 L 16.183594 18.101562 C 16.183594 16.15625 14.621094 14.582031 12.695312 14.582031 C 10.769531 14.582031 9.207031 16.15625 9.207031 18.101562 C 9.207031 20.046875 10.769531 21.621094 12.695312 21.621094 C 14.621094 21.621094 16.183594 20.046875 16.183594 18.101562 L 15.953125 18.101562 " fill-opacity="1" fill-rule="nonzero"/><path fill="#9841a6" d="M 16.386719 17.511719 C 16.386719 19.328125 14.929688 20.800781 13.128906 20.800781 C 11.332031 20.800781 9.871094 19.328125 9.871094 17.511719 C 9.871094 15.695312 11.332031 14.222656 13.128906 14.222656 C 14.929688 14.222656 16.386719 15.695312 16.386719 17.511719 " fill-opacity="1" fill-rule="nonzero"/><path fill="#0f0a0a" d="M 16.386719 17.511719 L 16.160156 17.511719 C 16.160156 18.355469 15.820312 19.117188 15.269531 19.671875 C 14.722656 20.226562 13.964844 20.566406 13.128906 20.566406 C 12.292969 20.566406 11.539062 20.226562 10.988281 19.671875 C 10.441406 19.117188 10.101562 18.355469 10.101562 17.511719 C 10.101562 16.664062 10.441406 15.902344 10.988281 15.347656 C 11.539062 14.792969 12.292969 14.453125 13.128906 14.453125 C 13.964844 14.453125 14.722656 14.792969 15.269531 15.347656 C 15.820312 15.902344 16.160156 16.664062 16.160156 17.511719 L 16.617188 17.511719 C 16.617188 15.566406 15.054688 13.988281 13.128906 13.988281 C 11.203125 13.988281 9.644531 15.566406 9.644531 17.511719 C 9.644531 19.453125 11.203125 21.03125 13.128906 21.03125 C 15.054688 21.03125 16.617188 19.453125 16.617188 17.511719 L 16.386719 17.511719 " fill-opacity="1" fill-rule="nonzero"/><g clip-path="url(#153d25698b)"><path fill="#ffffff" d="M 12.878906 12.023438 C 13.082031 14.113281 11.824219 16.054688 9.769531 16.394531 C 7.714844 16.734375 6.105469 15.246094 5.441406 13.253906 C 4.832031 11.425781 4.9375 9.039062 5.777344 6.953125 C 5.777344 6.953125 5.980469 8.214844 6.34375 9.082031 C 6.308594 6.335938 7.738281 3.875 7.738281 3.875 C 7.738281 3.875 10.324219 7.417969 11.035156 10.007812 C 11.445312 8.886719 10.316406 6.707031 10.316406 6.707031 C 10.316406 6.707031 12.542969 8.519531 12.878906 12.023438 " fill-opacity="1" fill-rule="nonzero"/></g><g clip-path="url(#4cf8a996f6)"><path fill="#0f0a0a" d="M 12.878906 12.023438 L 12.652344 12.042969 C 12.664062 12.183594 12.671875 12.320312 12.671875 12.460938 C 12.671875 13.371094 12.382812 14.222656 11.871094 14.886719 C 11.359375 15.546875 10.628906 16.015625 9.734375 16.164062 C 9.546875 16.195312 9.367188 16.210938 9.1875 16.210938 C 8.363281 16.210938 7.632812 15.890625 7.027344 15.347656 C 6.421875 14.808594 5.949219 14.046875 5.660156 13.179688 C 5.410156 12.433594 5.285156 11.582031 5.285156 10.695312 C 5.28125 9.488281 5.519531 8.214844 5.988281 7.042969 L 5.777344 6.953125 L 5.550781 6.992188 C 5.550781 6.996094 5.601562 7.3125 5.699219 7.746094 C 5.800781 8.175781 5.941406 8.714844 6.132812 9.171875 L 6.589844 10.265625 L 6.574219 9.078125 C 6.574219 9.046875 6.574219 9.011719 6.574219 8.980469 C 6.570312 7.667969 6.914062 6.414062 7.253906 5.496094 C 7.425781 5.035156 7.597656 4.65625 7.726562 4.394531 C 7.789062 4.265625 7.84375 4.164062 7.878906 4.09375 C 7.898438 4.0625 7.914062 4.035156 7.921875 4.019531 L 7.933594 4 L 7.9375 3.992188 L 7.738281 3.875 L 7.554688 4.015625 C 7.554688 4.015625 7.5625 4.027344 7.582031 4.054688 C 7.722656 4.25 8.371094 5.160156 9.0625 6.320312 C 9.757812 7.480469 10.492188 8.894531 10.8125 10.070312 L 11.003906 10.765625 L 11.25 10.089844 C 11.324219 9.882812 11.351562 9.660156 11.355469 9.429688 C 11.351562 9.113281 11.300781 8.78125 11.222656 8.460938 C 10.984375 7.496094 10.523438 6.609375 10.519531 6.601562 L 10.316406 6.707031 L 10.171875 6.890625 L 10.273438 6.765625 L 10.171875 6.886719 L 10.171875 6.890625 L 10.273438 6.765625 L 10.171875 6.886719 L 10.179688 6.894531 C 10.238281 6.945312 10.78125 7.410156 11.34375 8.273438 C 11.90625 9.140625 12.492188 10.398438 12.652344 12.042969 L 12.878906 12.023438 L 13.109375 12 C 12.933594 10.203125 12.277344 8.835938 11.660156 7.921875 C 11.046875 7.007812 10.472656 6.539062 10.460938 6.527344 L 9.605469 5.832031 L 10.113281 6.816406 L 10.117188 6.820312 C 10.136719 6.859375 10.335938 7.25 10.523438 7.765625 C 10.621094 8.023438 10.714844 8.308594 10.78125 8.597656 C 10.851562 8.886719 10.894531 9.175781 10.894531 9.429688 C 10.894531 9.621094 10.871094 9.792969 10.820312 9.929688 L 11.035156 10.007812 L 11.257812 9.949219 C 11.074219 9.277344 10.773438 8.558594 10.425781 7.855469 C 9.386719 5.742188 7.925781 3.746094 7.921875 3.738281 L 7.714844 3.457031 L 7.539062 3.757812 C 7.535156 3.765625 7.179688 4.378906 6.828125 5.332031 C 6.472656 6.285156 6.113281 7.585938 6.113281 8.980469 C 6.113281 9.015625 6.113281 9.050781 6.113281 9.085938 L 6.34375 9.082031 L 6.554688 8.992188 C 6.382812 8.578125 6.242188 8.054688 6.148438 7.640625 C 6.101562 7.433594 6.0625 7.25 6.039062 7.121094 C 6.027344 7.058594 6.019531 7.007812 6.011719 6.972656 C 6.007812 6.953125 6.007812 6.941406 6.003906 6.929688 L 6.003906 6.917969 L 5.871094 6.105469 L 5.566406 6.867188 C 5.070312 8.097656 4.824219 9.429688 4.824219 10.695312 C 4.824219 11.628906 4.957031 12.527344 5.226562 13.328125 C 5.535156 14.261719 6.046875 15.089844 6.722656 15.695312 C 7.398438 16.300781 8.242188 16.671875 9.1875 16.671875 C 9.390625 16.671875 9.597656 16.65625 9.808594 16.621094 C 10.820312 16.453125 11.65625 15.917969 12.230469 15.167969 C 12.808594 14.421875 13.128906 13.46875 13.128906 12.460938 C 13.128906 12.308594 13.121094 12.152344 13.109375 12 L 12.878906 12.023438 " fill-opacity="1" fill-rule="nonzero"/></g><path fill="#f79745" d="M 14.839844 39.054688 C 14.953125 41.007812 12.960938 41.335938 12.453125 39.453125 C 11.851562 36.792969 9.15625 26.296875 8.558594 22.195312 C 7.960938 18.09375 11.925781 17.226562 12.734375 21.457031 C 13.574219 25.863281 14.628906 36.476562 14.839844 39.054688 " fill-opacity="1" fill-rule="nonzero"/><path fill="#0f0a0a" d="M 14.839844 39.054688 L 14.613281 39.070312 C 14.617188 39.117188 14.617188 39.164062 14.617188 39.210938 C 14.617188 39.652344 14.492188 39.96875 14.328125 40.175781 C 14.15625 40.378906 13.945312 40.472656 13.722656 40.472656 C 13.53125 40.472656 13.328125 40.398438 13.136719 40.226562 C 12.949219 40.054688 12.777344 39.785156 12.671875 39.390625 L 12.453125 39.453125 L 12.675781 39.398438 C 12.375 38.066406 11.550781 34.777344 10.726562 31.308594 C 10.316406 29.578125 9.902344 27.796875 9.558594 26.199219 C 9.210938 24.597656 8.933594 23.175781 8.785156 22.160156 C 8.746094 21.886719 8.726562 21.628906 8.726562 21.386719 C 8.726562 20.554688 8.945312 19.929688 9.261719 19.519531 C 9.582031 19.105469 9.992188 18.90625 10.414062 18.902344 C 10.8125 18.90625 11.242188 19.085938 11.621094 19.503906 C 12.003906 19.921875 12.332031 20.574219 12.507812 21.5 C 12.925781 23.6875 13.402344 27.441406 13.796875 30.964844 C 14.191406 34.492188 14.507812 37.789062 14.613281 39.074219 L 14.839844 39.054688 L 14.613281 39.070312 L 14.839844 39.054688 L 15.070312 39.035156 C 14.960938 37.742188 14.644531 34.445312 14.25 30.914062 C 13.855469 27.386719 13.382812 23.628906 12.960938 21.414062 C 12.769531 20.425781 12.410156 19.6875 11.960938 19.191406 C 11.507812 18.695312 10.957031 18.441406 10.414062 18.441406 C 9.839844 18.441406 9.292969 18.726562 8.902344 19.234375 C 8.507812 19.746094 8.269531 20.476562 8.269531 21.386719 C 8.269531 21.652344 8.289062 21.933594 8.332031 22.226562 C 8.484375 23.261719 8.765625 24.691406 9.109375 26.296875 C 9.628906 28.703125 10.296875 31.507812 10.890625 33.960938 C 11.484375 36.410156 12.003906 38.511719 12.226562 39.503906 L 12.230469 39.507812 L 12.230469 39.511719 C 12.355469 39.972656 12.566406 40.328125 12.832031 40.570312 C 13.09375 40.8125 13.410156 40.9375 13.722656 40.9375 C 14.082031 40.9375 14.433594 40.769531 14.679688 40.46875 C 14.925781 40.167969 15.074219 39.738281 15.074219 39.210938 C 15.074219 39.15625 15.074219 39.101562 15.070312 39.042969 L 15.070312 39.035156 L 14.839844 39.054688 " fill-opacity="1" fill-rule="nonzero"/><path fill="#bdbcbc" d="M 12.324219 19.734375 L 8.40625 20.382812 L 7.730469 16.226562 L 11.652344 15.578125 L 12.324219 19.734375 " fill-opacity="1" fill-rule="nonzero"/><path fill="#0f0a0a" d="M 12.324219 19.734375 L 12.289062 19.503906 L 8.59375 20.117188 L 7.992188 16.417969 L 11.460938 15.84375 L 12.101562 19.769531 L 12.324219 19.734375 L 12.289062 19.503906 L 12.324219 19.734375 L 12.550781 19.695312 L 11.839844 15.3125 L 7.46875 16.035156 L 8.214844 20.648438 L 12.589844 19.925781 L 12.550781 19.695312 L 12.324219 19.734375 " fill-opacity="1" fill-rule="nonzero"/><path fill="#0f0a0a" d="M 9.648438 15.910156 L 8.753906 8.988281 L 10.097656 15.832031 Z M 9.648438 15.910156 " fill-opacity="1" fill-rule="nonzero"/><path fill="#0f0a0a" d="M 7.785156 16.324219 C 7.785156 16.324219 7.734375 16.25 7.644531 16.121094 C 7.601562 16.050781 7.542969 15.976562 7.484375 15.878906 C 7.425781 15.777344 7.359375 15.664062 7.285156 15.542969 C 7.210938 15.417969 7.152344 15.28125 7.078125 15.140625 C 7.003906 14.996094 6.941406 14.839844 6.871094 14.679688 C 6.796875 14.523438 6.742188 14.351562 6.675781 14.183594 C 6.609375 14.011719 6.558594 13.835938 6.5 13.660156 C 6.445312 13.484375 6.394531 13.308594 6.347656 13.132812 C 6.300781 12.957031 6.253906 12.785156 6.21875 12.617188 C 6.140625 12.28125 6.082031 11.964844 6.035156 11.695312 C 5.941406 11.152344 5.910156 10.789062 5.910156 10.789062 C 5.910156 10.789062 5.96875 11.148438 6.105469 11.679688 C 6.171875 11.945312 6.253906 12.253906 6.359375 12.578125 C 6.40625 12.742188 6.46875 12.90625 6.523438 13.078125 C 6.585938 13.246094 6.648438 13.414062 6.714844 13.582031 C 6.785156 13.75 6.851562 13.917969 6.925781 14.078125 C 7.003906 14.238281 7.070312 14.398438 7.15625 14.546875 C 7.234375 14.695312 7.304688 14.839844 7.386719 14.96875 C 7.46875 15.101562 7.539062 15.230469 7.613281 15.335938 C 7.6875 15.441406 7.757812 15.542969 7.816406 15.628906 C 7.878906 15.714844 7.945312 15.789062 7.996094 15.851562 C 8.09375 15.976562 8.152344 16.046875 8.152344 16.046875 L 7.785156 16.324219 " fill-opacity="1" fill-rule="nonzero"/><path fill="#0f0a0a" d="M 8.941406 16.136719 C 8.941406 16.136719 8.921875 16.105469 8.882812 16.054688 C 8.847656 15.996094 8.789062 15.925781 8.71875 15.816406 C 8.652344 15.707031 8.558594 15.574219 8.480469 15.417969 C 8.390625 15.265625 8.304688 15.085938 8.210938 14.890625 C 8.171875 14.789062 8.125 14.6875 8.078125 14.582031 C 8.039062 14.472656 7.996094 14.359375 7.953125 14.246094 C 7.914062 14.128906 7.871094 14.007812 7.832031 13.886719 C 7.792969 13.761719 7.757812 13.636719 7.71875 13.507812 C 7.648438 13.25 7.578125 12.984375 7.519531 12.710938 C 7.460938 12.4375 7.410156 12.15625 7.367188 11.878906 C 7.183594 10.757812 7.121094 9.628906 7.109375 8.78125 C 7.09375 7.9375 7.132812 7.375 7.132812 7.375 C 7.132812 7.375 7.125 7.9375 7.179688 8.777344 C 7.234375 9.621094 7.355469 10.742188 7.589844 11.835938 C 7.648438 12.109375 7.714844 12.378906 7.785156 12.644531 C 7.855469 12.910156 7.933594 13.167969 8.015625 13.414062 C 8.058594 13.539062 8.101562 13.65625 8.144531 13.777344 C 8.191406 13.890625 8.234375 14.003906 8.28125 14.117188 C 8.328125 14.222656 8.375 14.328125 8.417969 14.429688 C 8.46875 14.53125 8.515625 14.625 8.558594 14.71875 C 8.65625 14.898438 8.746094 15.066406 8.835938 15.203125 C 8.921875 15.347656 9.007812 15.457031 9.070312 15.554688 C 9.140625 15.648438 9.207031 15.722656 9.246094 15.777344 C 9.285156 15.828125 9.308594 15.855469 9.308594 15.855469 L 8.941406 16.136719 " fill-opacity="1" fill-rule="nonzero"/><path fill="#0f0a0a" d="M 11.054688 15.546875 C 11.054688 15.546875 11.097656 15.464844 11.167969 15.316406 C 11.199219 15.246094 11.246094 15.152344 11.289062 15.054688 C 11.328125 14.953125 11.371094 14.839844 11.417969 14.714844 C 11.46875 14.59375 11.503906 14.445312 11.554688 14.296875 C 11.601562 14.148438 11.636719 13.988281 11.675781 13.820312 C 11.722656 13.65625 11.746094 13.480469 11.785156 13.300781 C 11.820312 13.125 11.835938 12.941406 11.863281 12.757812 C 11.886719 12.574219 11.902344 12.390625 11.921875 12.210938 C 11.929688 12.027344 11.945312 11.851562 11.949219 11.675781 C 11.964844 11.328125 11.960938 11.003906 11.957031 10.726562 C 11.941406 10.167969 11.894531 9.796875 11.894531 9.796875 C 11.894531 9.796875 11.96875 10.164062 12.027344 10.722656 C 12.054688 11 12.082031 11.324219 12.09375 11.675781 C 12.105469 11.851562 12.101562 12.03125 12.105469 12.21875 C 12.105469 12.402344 12.101562 12.589844 12.09375 12.777344 C 12.078125 12.964844 12.074219 13.152344 12.050781 13.339844 C 12.03125 13.523438 12.019531 13.707031 11.984375 13.878906 C 11.957031 14.054688 11.933594 14.226562 11.894531 14.386719 C 11.855469 14.542969 11.832031 14.695312 11.785156 14.835938 C 11.746094 14.976562 11.707031 15.105469 11.671875 15.21875 C 11.636719 15.328125 11.597656 15.417969 11.570312 15.496094 C 11.511719 15.644531 11.476562 15.734375 11.476562 15.734375 L 11.054688 15.546875 " fill-opacity="1" fill-rule="nonzero"/><path fill="#0f0a0a" d="M 10.277344 15.695312 C 10.277344 15.695312 10.289062 15.660156 10.3125 15.601562 C 10.332031 15.542969 10.371094 15.449219 10.402344 15.339844 C 10.433594 15.230469 10.476562 15.101562 10.507812 14.941406 C 10.546875 14.78125 10.574219 14.601562 10.601562 14.402344 C 10.613281 14.300781 10.621094 14.195312 10.632812 14.089844 C 10.640625 13.980469 10.644531 13.867188 10.652344 13.75 C 10.652344 13.632812 10.652344 13.515625 10.65625 13.390625 C 10.652344 13.269531 10.648438 13.144531 10.644531 13.015625 C 10.628906 12.761719 10.605469 12.5 10.574219 12.230469 C 10.539062 11.964844 10.5 11.691406 10.445312 11.421875 C 10.246094 10.34375 9.914062 9.285156 9.628906 8.507812 C 9.34375 7.730469 9.109375 7.230469 9.109375 7.230469 C 9.109375 7.230469 9.371094 7.71875 9.695312 8.480469 C 10.019531 9.246094 10.410156 10.289062 10.671875 11.375 C 10.738281 11.644531 10.792969 11.917969 10.839844 12.191406 C 10.890625 12.460938 10.925781 12.730469 10.957031 12.992188 C 10.96875 13.125 10.976562 13.253906 10.988281 13.378906 C 10.992188 13.507812 11 13.632812 11.003906 13.753906 C 11.003906 13.875 11.003906 13.992188 11.003906 14.109375 C 10.996094 14.222656 10.992188 14.332031 10.984375 14.441406 C 10.96875 14.652344 10.949219 14.847656 10.914062 15.023438 C 10.890625 15.195312 10.847656 15.347656 10.820312 15.472656 C 10.789062 15.597656 10.761719 15.683594 10.742188 15.746094 C 10.722656 15.808594 10.714844 15.839844 10.714844 15.839844 L 10.277344 15.695312 " fill-opacity="1" fill-rule="nonzero"/></svg>