<svg xmlns="http://www.w3.org/2000/svg" xmlns:xlink="http://www.w3.org/1999/xlink" width="60" zoomAndPan="magnify" viewBox="0 0 45 44.999999" height="60" preserveAspectRatio="xMidYMid meet" version="1.0"><defs><clipPath id="20f24d1d94"><path d="M 1.460938 1.460938 L 43.460938 1.460938 L 43.460938 43.460938 L 1.460938 43.460938 Z M 1.460938 1.460938 " clip-rule="nonzero"/></clipPath><clipPath id="5cd85c295c"><path d="M 18 41 L 25 41 L 25 43.460938 L 18 43.460938 Z M 18 41 " clip-rule="nonzero"/></clipPath></defs><g clip-path="url(#20f24d1d94)"><path fill="#ef9230" d="M 22.460938 1.460938 C 10.863281 1.460938 1.460938 10.863281 1.460938 22.460938 C 1.460938 34.0625 10.863281 43.460938 22.460938 43.460938 C 34.0625 43.460938 43.460938 34.0625 43.460938 22.460938 C 43.460938 10.863281 34.0625 1.460938 22.460938 1.460938 Z M 22.460938 27.894531 C 19.460938 27.894531 17.03125 25.460938 17.03125 22.460938 C 17.03125 19.460938 19.460938 17.03125 22.460938 17.03125 C 25.460938 17.03125 27.894531 19.460938 27.894531 22.460938 C 27.894531 25.460938 25.460938 27.894531 22.460938 27.894531 Z M 22.460938 27.894531 " fill-opacity="1" fill-rule="nonzero"/></g><path fill="#d36c27" d="M 7.441406 10.535156 C 7.441406 10.535156 4.800781 11.515625 3.140625 19.289062 C 3.140625 19.289062 3.214844 21.703125 2.761719 24.042969 C 2.308594 26.378906 2.613281 30.230469 3.820312 31.964844 C 5.027344 33.699219 6.609375 34.605469 8.421875 35.8125 C 10.230469 37.019531 11.363281 37.394531 12.117188 38.378906 C 12.871094 39.359375 14.382812 40.414062 14.382812 39.433594 C 14.382812 38.453125 12.421875 36.039062 11.0625 34.90625 C 9.703125 33.773438 6.6875 30.757812 6.914062 28.417969 C 7.140625 26.078125 7.0625 19.589844 7.140625 18.457031 C 7.214844 17.328125 8.121094 10.914062 7.441406 10.535156 Z M 7.441406 10.535156 " fill-opacity="1" fill-rule="nonzero"/><path fill="#d36c27" d="M 32.289062 38.789062 C 32.289062 38.789062 35.109375 38.710938 39.179688 31.886719 C 39.179688 31.886719 39.886719 29.574219 41.066406 27.507812 C 42.246094 25.4375 42.882812 20.1875 42.296875 18.15625 C 41.714844 16.121094 41.285156 16.257812 39.960938 14.53125 C 38.632812 12.808594 37.21875 12.09375 36.824219 10.921875 C 36.421875 9.75 35.335938 8.261719 35.019531 9.195312 C 34.703125 10.121094 35.785156 13.039062 36.703125 14.546875 C 37.625 16.058594 39.511719 19.886719 38.546875 22.027344 C 37.578125 24.171875 35.558594 30.335938 35.125 31.386719 C 34.691406 32.433594 31.769531 38.214844 32.289062 38.789062 Z M 32.289062 38.789062 " fill-opacity="1" fill-rule="nonzero"/><path fill="#f16b97" d="M 40.167969 16.710938 C 39.542969 14.78125 39.5 12.539062 38.335938 10.929688 C 37.15625 9.308594 35.023438 8.585938 33.402344 7.40625 C 31.796875 6.238281 30.453125 4.425781 28.527344 3.800781 C 26.664062 3.199219 24.523438 3.851562 22.460938 3.851562 C 20.398438 3.851562 18.261719 3.199219 16.398438 3.800781 C 14.46875 4.425781 13.125 6.234375 11.523438 7.40625 C 9.898438 8.585938 7.769531 9.3125 6.589844 10.929688 C 5.421875 12.535156 5.382812 14.78125 4.757812 16.710938 C 4.152344 18.570312 2.847656 20.402344 2.847656 22.460938 C 2.847656 24.523438 4.152344 26.355469 4.757812 28.214844 C 5.382812 30.144531 5.421875 32.386719 6.589844 33.992188 C 7.769531 35.617188 9.898438 36.339844 11.523438 37.519531 C 13.125 38.6875 14.46875 40.496094 16.398438 41.125 C 18.261719 41.726562 20.398438 41.074219 22.460938 41.074219 C 24.523438 41.074219 26.664062 41.726562 28.527344 41.125 C 30.453125 40.496094 31.796875 38.6875 33.402344 37.519531 C 35.023438 36.339844 37.15625 35.613281 38.335938 33.992188 C 39.5 32.390625 39.542969 30.144531 40.167969 28.214844 C 40.769531 26.351562 42.078125 24.523438 42.078125 22.460938 C 42.078125 20.398438 40.769531 18.570312 40.167969 16.710938 Z M 22.460938 28.699219 C 19.015625 28.699219 16.226562 25.90625 16.226562 22.460938 C 16.226562 19.015625 19.015625 16.226562 22.460938 16.226562 C 25.90625 16.226562 28.699219 19.015625 28.699219 22.460938 C 28.699219 25.90625 25.90625 28.699219 22.460938 28.699219 Z M 22.460938 28.699219 " fill-opacity="1" fill-rule="nonzero"/><path fill="#f27f9d" d="M 17.003906 8.402344 C 17.003906 8.402344 14.792969 7.800781 13.082031 10.816406 C 11.371094 13.835938 10.367188 13.734375 10.867188 15.746094 C 11.371094 17.757812 9.460938 20.675781 11.472656 20.375 C 13.484375 20.074219 13.28125 19.066406 13.988281 17.960938 C 14.691406 16.855469 15.195312 15.34375 17.308594 14.640625 C 19.417969 13.9375 20.828125 13.332031 21.230469 12.226562 C 21.632812 11.121094 21.128906 8.203125 17.003906 8.402344 Z M 17.003906 8.402344 " fill-opacity="1" fill-rule="nonzero"/><path fill="#f7afc1" d="M 15.007812 11.835938 C 16.503906 10.464844 18.199219 9.597656 18.964844 10.816406 C 19.785156 12.121094 18.363281 11.574219 16.25 12.628906 C 14.136719 13.683594 13.433594 15.695312 13.046875 15.605469 C 12.609375 15.507812 13.859375 12.886719 15.007812 11.835938 Z M 15.007812 11.835938 " fill-opacity="1" fill-rule="nonzero"/><path fill="#f27f9d" d="M 10.667969 25.503906 C 10.667969 25.503906 7.449219 25.503906 8.050781 27.617188 C 8.65625 29.730469 9.058594 30.132812 10.164062 32.445312 C 11.269531 34.761719 10.769531 36.671875 13.382812 36.972656 C 16 37.277344 22.335938 38.179688 18.113281 35.765625 C 13.886719 33.351562 14.890625 35.566406 13.585938 32.75 C 12.277344 29.933594 13.082031 31.140625 12.277344 28.523438 C 11.472656 25.90625 11.472656 25.90625 10.667969 25.503906 Z M 10.667969 25.503906 " fill-opacity="1" fill-rule="nonzero"/><path fill="#f7b0bf" d="M 24.398438 15.546875 C 24.398438 15.546875 26.210938 14.640625 27.316406 16.25 C 28.421875 17.859375 29.128906 22.6875 30.335938 23.996094 C 31.542969 25.304688 27.8125 28.796875 26.230469 28.796875 C 25.082031 28.796875 25.992188 27.652344 26.304688 27.363281 C 26.664062 27.03125 28.527344 25.152344 28.675781 23.542969 C 28.894531 21.132812 28.285156 18.8125 25.9375 17.296875 C 25.460938 16.992188 23.332031 16.164062 24.398438 15.546875 Z M 24.398438 15.546875 " fill-opacity="1" fill-rule="nonzero"/><path fill="#ee3d82" d="M 18.941406 15.921875 C 18.941406 15.921875 18.4375 17.332031 16.226562 18.539062 C 14.011719 19.746094 14.113281 21.457031 14.816406 22.363281 C 15.519531 23.265625 15.824219 26.789062 17.03125 27.59375 C 18.238281 28.398438 18.203125 27.664062 17.097656 25.851562 C 15.992188 24.042969 15.589844 20.34375 17.53125 18.4375 C 19.226562 16.777344 20.25 16.324219 18.941406 15.921875 Z M 18.941406 15.921875 " fill-opacity="1" fill-rule="nonzero"/><path fill="#f7b2c3" d="M 10.667969 28.726562 C 10.667969 28.726562 10.367188 29.328125 10.96875 31.339844 C 11.574219 33.351562 11.773438 34.859375 12.78125 35.464844 C 13.785156 36.070312 15.394531 36.472656 15.597656 36.269531 C 15.796875 36.070312 14.488281 36.269531 13.785156 35.164062 C 13.082031 34.054688 11.574219 28.121094 10.667969 28.726562 Z M 10.667969 28.726562 " fill-opacity="1" fill-rule="nonzero"/><path fill="#f7b1c2" d="M 15.890625 40.265625 C 15.0625 39.585938 14.457031 38.230469 13.855469 37.699219 C 13.25 37.171875 9.78125 35.664062 9.476562 34.984375 C 9.175781 34.304688 8.796875 33.851562 8.347656 33.171875 C 7.894531 32.496094 7.441406 32.417969 6.6875 30.683594 C 5.929688 28.949219 6.234375 28.34375 5.929688 27.589844 C 5.628906 26.835938 5.480469 25.855469 5.253906 25.101562 C 5.027344 24.347656 5.707031 21.933594 5.480469 21.101562 C 5.253906 20.273438 5.929688 19.214844 5.929688 18.613281 C 5.929688 18.007812 5.78125 16.5 6.007812 15.667969 C 6.234375 14.839844 6.835938 12.726562 7.214844 11.898438 C 7.589844 11.066406 9.023438 9.933594 11.289062 8.578125 C 13.550781 7.21875 14.609375 5.710938 14.835938 5.558594 C 14.976562 5.464844 15 4.910156 15 4.5 C 13.753906 5.328125 12.710938 6.542969 11.523438 7.40625 C 9.898438 8.585938 7.769531 9.3125 6.589844 10.933594 C 5.421875 12.539062 5.382812 14.785156 4.757812 16.714844 C 4.152344 18.574219 2.847656 20.40625 2.847656 22.464844 C 2.847656 24.527344 4.152344 26.359375 4.757812 28.214844 C 5.382812 30.144531 5.421875 32.390625 6.589844 33.996094 C 7.769531 35.617188 9.898438 36.34375 11.523438 37.523438 C 13.125 38.6875 14.46875 40.5 16.398438 41.125 C 16.550781 41.175781 16.707031 41.214844 16.863281 41.25 C 16.59375 40.917969 16.242188 40.550781 15.890625 40.265625 Z M 15.890625 40.265625 " fill-opacity="1" fill-rule="nonzero"/><path fill="#f27f9d" d="M 32.296875 16.351562 C 32.296875 16.351562 32.09375 14.339844 29.78125 13.234375 C 27.46875 12.125 26.058594 10.515625 26.761719 9.914062 C 27.46875 9.308594 30.082031 8.304688 32.195312 10.414062 C 34.308594 12.527344 39.035156 17.355469 38.03125 20.777344 C 37.023438 24.199219 36.117188 27.617188 35.515625 29.933594 C 34.910156 32.246094 33.605469 33.855469 31.996094 33.554688 C 30.382812 33.25 28.371094 34.558594 27.46875 34.761719 C 26.5625 34.960938 25.054688 34.761719 28.273438 31.742188 C 31.492188 28.726562 33.402344 27.71875 33.605469 23.996094 C 33.804688 20.273438 32.195312 19.46875 32.296875 16.351562 Z M 32.296875 16.351562 " fill-opacity="1" fill-rule="nonzero"/><path fill="#f7afc2" d="M 32.6875 14.089844 C 32.6875 14.089844 33.859375 15.597656 34.046875 18.011719 C 34.234375 20.429688 34.085938 21.296875 34.535156 22.011719 C 34.988281 22.730469 36.914062 20.652344 36.046875 18.84375 C 35.179688 17.03125 33.027344 12.695312 32.6875 14.089844 Z M 32.6875 14.089844 " fill-opacity="1" fill-rule="nonzero"/><path fill="#f7afc2" d="M 30.273438 31.859375 C 29.566406 31.542969 32.007812 30.765625 32.5 29.519531 C 32.988281 28.273438 33.179688 30.085938 33.179688 30.085938 C 33.179688 30.085938 33.59375 31.820312 32.914062 32.121094 C 32.234375 32.425781 30.613281 32.007812 30.273438 31.859375 Z M 30.273438 31.859375 " fill-opacity="1" fill-rule="nonzero"/><path fill="#ee3d82" d="M 40.167969 16.710938 C 40.113281 16.542969 40.0625 16.367188 40.015625 16.195312 C 40.027344 16.714844 40.066406 17.199219 40.144531 17.558594 C 40.445312 18.964844 41.753906 22.890625 39.339844 25.90625 C 36.921875 28.925781 36.21875 29.628906 35.714844 32.042969 C 35.214844 34.457031 35.113281 33.050781 31.691406 35.867188 C 28.273438 38.683594 28.976562 38.984375 26.964844 40.191406 C 24.953125 41.398438 19.816406 40.445312 16.398438 41.125 C 18.261719 41.726562 20.398438 41.074219 22.460938 41.074219 C 24.523438 41.074219 26.664062 41.726562 28.527344 41.125 C 30.453125 40.496094 31.796875 38.6875 33.402344 37.519531 C 35.023438 36.339844 37.15625 35.613281 38.335938 33.992188 C 39.5 32.390625 39.542969 30.144531 40.167969 28.214844 C 40.769531 26.351562 42.078125 24.523438 42.078125 22.460938 C 42.078125 20.398438 40.769531 18.570312 40.167969 16.710938 Z M 40.167969 16.710938 " fill-opacity="1" fill-rule="nonzero"/><path fill="#ee3d82" d="M 22.539062 4.882812 C 23.644531 5.183594 26.160156 5.789062 28.875 6.292969 C 31.59375 6.792969 36.921875 9.511719 37.929688 11.121094 C 38.308594 11.722656 38.714844 12.117188 39.074219 12.371094 C 38.886719 11.855469 38.652344 11.367188 38.335938 10.929688 C 37.15625 9.308594 35.472656 7.640625 33.851562 6.460938 C 32.246094 5.296875 30.453125 4.425781 28.527344 3.800781 C 26.664062 3.199219 24.523438 3.851562 22.460938 3.851562 C 21.972656 3.851562 21.476562 3.8125 20.984375 3.765625 C 21.351562 4.1875 21.914062 4.710938 22.539062 4.882812 Z M 22.539062 4.882812 " fill-opacity="1" fill-rule="nonzero"/><path fill="#ec008c" d="M 37.742188 20.351562 C 37.644531 20.351562 37.546875 20.300781 37.488281 20.210938 C 37.398438 20.070312 37.441406 19.882812 37.582031 19.792969 L 38.894531 18.957031 C 39.035156 18.867188 39.222656 18.910156 39.3125 19.050781 C 39.402344 19.191406 39.359375 19.375 39.21875 19.46875 L 37.90625 20.304688 C 37.855469 20.335938 37.796875 20.351562 37.742188 20.351562 Z M 37.742188 20.351562 " fill-opacity="1" fill-rule="nonzero"/><path fill="#aadff1" d="M 26.53125 38.457031 C 26.46875 38.457031 26.402344 38.433594 26.347656 38.394531 L 25.109375 37.453125 C 24.976562 37.355469 24.953125 37.164062 25.054688 37.03125 C 25.152344 36.898438 25.34375 36.875 25.476562 36.972656 L 26.710938 37.914062 C 26.847656 38.015625 26.871094 38.203125 26.769531 38.335938 C 26.710938 38.414062 26.621094 38.457031 26.53125 38.457031 Z M 26.53125 38.457031 " fill-opacity="1" fill-rule="nonzero"/><path fill="#00a651" d="M 12.980469 37.390625 C 12.878906 37.390625 12.785156 37.339844 12.726562 37.25 L 11.867188 35.902344 C 11.777344 35.761719 11.820312 35.574219 11.960938 35.484375 C 12.101562 35.394531 12.285156 35.4375 12.378906 35.578125 L 13.238281 36.925781 C 13.328125 37.066406 13.285156 37.253906 13.144531 37.34375 C 13.089844 37.375 13.035156 37.390625 12.980469 37.390625 Z M 12.980469 37.390625 " fill-opacity="1" fill-rule="nonzero"/><path fill="#fff200" d="M 30.015625 35.609375 C 30.011719 35.609375 30.003906 35.609375 29.996094 35.609375 C 29.832031 35.601562 29.703125 35.457031 29.714844 35.292969 L 29.820312 33.484375 C 29.832031 33.316406 29.976562 33.191406 30.140625 33.199219 C 30.308594 33.207031 30.433594 33.351562 30.425781 33.519531 L 30.316406 35.328125 C 30.304688 35.488281 30.171875 35.609375 30.015625 35.609375 Z M 30.015625 35.609375 " fill-opacity="1" fill-rule="nonzero"/><path fill="#ffffff" d="M 10.988281 11.820312 C 10.929688 11.820312 10.871094 11.800781 10.816406 11.769531 L 9.367188 10.796875 C 9.230469 10.703125 9.191406 10.519531 9.285156 10.378906 C 9.378906 10.242188 9.5625 10.203125 9.703125 10.296875 L 11.152344 11.269531 C 11.289062 11.363281 11.328125 11.546875 11.234375 11.6875 C 11.179688 11.769531 11.085938 11.820312 10.988281 11.820312 Z M 10.988281 11.820312 " fill-opacity="1" fill-rule="nonzero"/><path fill="#00aeef" d="M 10.308594 23.363281 C 10.226562 23.363281 10.140625 23.328125 10.082031 23.257812 L 8.855469 21.867188 C 8.746094 21.742188 8.757812 21.550781 8.882812 21.445312 C 9.011719 21.332031 9.199219 21.347656 9.308594 21.472656 L 10.535156 22.863281 C 10.644531 22.992188 10.632812 23.183594 10.507812 23.289062 C 10.449219 23.335938 10.378906 23.363281 10.308594 23.363281 Z M 10.308594 23.363281 " fill-opacity="1" fill-rule="nonzero"/><path fill="#fff200" d="M 6.535156 26.078125 C 6.441406 26.078125 6.351562 26.035156 6.292969 25.957031 L 5.253906 24.558594 C 5.152344 24.425781 5.179688 24.238281 5.316406 24.136719 C 5.449219 24.035156 5.636719 24.066406 5.738281 24.199219 L 6.777344 25.597656 C 6.878906 25.730469 6.851562 25.921875 6.714844 26.019531 C 6.660156 26.0625 6.597656 26.078125 6.535156 26.078125 Z M 6.535156 26.078125 " fill-opacity="1" fill-rule="nonzero"/><path fill="#aadff1" d="M 8.082031 33.257812 C 8.070312 33.257812 8.058594 33.257812 8.046875 33.253906 C 7.878906 33.234375 7.761719 33.085938 7.78125 32.917969 L 7.972656 31.324219 C 7.992188 31.160156 8.140625 31.042969 8.304688 31.0625 C 8.472656 31.082031 8.589844 31.230469 8.570312 31.394531 L 8.382812 32.988281 C 8.363281 33.144531 8.234375 33.257812 8.082031 33.257812 Z M 8.082031 33.257812 " fill-opacity="1" fill-rule="nonzero"/><path fill="#00aeef" d="M 13.097656 32.042969 C 13.046875 32.042969 12.992188 32.027344 12.941406 32 C 12.800781 31.914062 12.753906 31.726562 12.84375 31.585938 L 13.695312 30.179688 C 13.78125 30.035156 13.96875 29.988281 14.109375 30.078125 C 14.253906 30.164062 14.300781 30.347656 14.210938 30.492188 L 13.359375 31.898438 C 13.300781 31.988281 13.203125 32.042969 13.097656 32.042969 Z M 13.097656 32.042969 " fill-opacity="1" fill-rule="nonzero"/><path fill="#ffffff" d="M 11.363281 27.964844 L 9.441406 27.960938 C 9.273438 27.960938 9.136719 27.824219 9.136719 27.660156 C 9.136719 27.492188 9.273438 27.355469 9.441406 27.355469 L 11.363281 27.363281 C 11.53125 27.363281 11.664062 27.496094 11.664062 27.664062 C 11.664062 27.832031 11.53125 27.964844 11.363281 27.964844 Z M 11.363281 27.964844 " fill-opacity="1" fill-rule="nonzero"/><path fill="#ec008c" d="M 15.816406 27.136719 C 15.769531 27.136719 15.726562 27.125 15.679688 27.101562 L 14.191406 26.359375 C 14.042969 26.285156 13.984375 26.105469 14.058594 25.957031 C 14.132812 25.808594 14.3125 25.746094 14.460938 25.820312 L 15.949219 26.5625 C 16.097656 26.636719 16.15625 26.820312 16.085938 26.96875 C 16.03125 27.074219 15.925781 27.136719 15.816406 27.136719 Z M 15.816406 27.136719 " fill-opacity="1" fill-rule="nonzero"/><path fill="#ec008c" d="M 30.292969 22.496094 C 30.226562 22.496094 30.160156 22.476562 30.105469 22.433594 C 29.976562 22.328125 29.949219 22.140625 30.050781 22.011719 L 31.195312 20.539062 C 31.300781 20.40625 31.488281 20.382812 31.621094 20.484375 C 31.75 20.589844 31.777344 20.777344 31.671875 20.910156 L 30.527344 22.378906 C 30.46875 22.453125 30.378906 22.496094 30.292969 22.496094 Z M 30.292969 22.496094 " fill-opacity="1" fill-rule="nonzero"/><path fill="#39b54a" d="M 33.546875 26.078125 C 33.5 26.078125 33.445312 26.066406 33.398438 26.039062 L 31.78125 25.113281 C 31.640625 25.03125 31.589844 24.847656 31.671875 24.699219 C 31.753906 24.558594 31.9375 24.507812 32.085938 24.589844 L 33.699219 25.515625 C 33.84375 25.597656 33.894531 25.78125 33.808594 25.929688 C 33.753906 26.027344 33.652344 26.078125 33.546875 26.078125 Z M 33.546875 26.078125 " fill-opacity="1" fill-rule="nonzero"/><path fill="#00aeef" d="M 37.988281 25.972656 C 37.933594 25.972656 37.882812 25.957031 37.835938 25.929688 C 37.691406 25.84375 37.644531 25.660156 37.726562 25.515625 L 38.417969 24.34375 C 38.503906 24.199219 38.6875 24.152344 38.828125 24.234375 C 38.972656 24.320312 39.019531 24.503906 38.9375 24.648438 L 38.246094 25.820312 C 38.195312 25.917969 38.09375 25.972656 37.988281 25.972656 Z M 37.988281 25.972656 " fill-opacity="1" fill-rule="nonzero"/><path fill="#aadff1" d="M 29.699219 29.699219 C 29.683594 29.699219 29.671875 29.699219 29.65625 29.699219 C 29.488281 29.671875 29.375 29.519531 29.402344 29.355469 L 29.679688 27.550781 C 29.707031 27.382812 29.859375 27.273438 30.023438 27.296875 C 30.191406 27.324219 30.304688 27.476562 30.277344 27.644531 L 30 29.445312 C 29.976562 29.59375 29.847656 29.699219 29.699219 29.699219 Z M 29.699219 29.699219 " fill-opacity="1" fill-rule="nonzero"/><path fill="#ffffff" d="M 37.390625 30.695312 C 37.289062 30.695312 37.195312 30.644531 37.136719 30.554688 L 36.164062 29.035156 C 36.074219 28.894531 36.113281 28.707031 36.253906 28.617188 C 36.394531 28.527344 36.582031 28.566406 36.671875 28.707031 L 37.644531 30.230469 C 37.734375 30.371094 37.695312 30.554688 37.554688 30.644531 C 37.503906 30.679688 37.445312 30.695312 37.390625 30.695312 Z M 37.390625 30.695312 " fill-opacity="1" fill-rule="nonzero"/><path fill="#ec008c" d="M 34.761719 33.386719 C 34.699219 33.386719 34.636719 33.371094 34.585938 33.328125 L 33.445312 32.511719 C 33.308594 32.414062 33.28125 32.226562 33.378906 32.09375 C 33.476562 31.957031 33.664062 31.925781 33.796875 32.023438 L 34.9375 32.839844 C 35.074219 32.941406 35.101562 33.128906 35.003906 33.261719 C 34.949219 33.34375 34.855469 33.386719 34.761719 33.386719 Z M 34.761719 33.386719 " fill-opacity="1" fill-rule="nonzero"/><path fill="#fff200" d="M 18.867188 31.886719 C 18.722656 31.886719 18.59375 31.78125 18.570312 31.632812 C 18.546875 31.46875 18.65625 31.3125 18.824219 31.289062 L 20.675781 30.992188 C 20.835938 30.964844 20.992188 31.078125 21.019531 31.242188 C 21.042969 31.40625 20.933594 31.5625 20.765625 31.585938 L 18.917969 31.882812 C 18.902344 31.882812 18.882812 31.886719 18.867188 31.886719 Z M 18.867188 31.886719 " fill-opacity="1" fill-rule="nonzero"/><path fill="#ffffff" d="M 17.1875 36.371094 C 17.089844 36.371094 16.992188 36.324219 16.933594 36.234375 L 15.609375 34.214844 C 15.519531 34.078125 15.554688 33.886719 15.695312 33.796875 C 15.835938 33.707031 16.023438 33.746094 16.113281 33.886719 L 17.4375 35.90625 C 17.527344 36.042969 17.492188 36.230469 17.347656 36.324219 C 17.300781 36.351562 17.242188 36.371094 17.1875 36.371094 Z M 17.1875 36.371094 " fill-opacity="1" fill-rule="nonzero"/><path fill="#00aeef" d="M 21.96875 36.675781 C 21.867188 36.675781 21.765625 36.625 21.707031 36.527344 L 20.761719 34.910156 C 20.675781 34.769531 20.726562 34.582031 20.867188 34.5 C 21.011719 34.414062 21.199219 34.464844 21.28125 34.605469 L 22.230469 36.222656 C 22.3125 36.367188 22.265625 36.554688 22.121094 36.636719 C 22.074219 36.664062 22.023438 36.675781 21.96875 36.675781 Z M 21.96875 36.675781 " fill-opacity="1" fill-rule="nonzero"/><path fill="#ec008c" d="M 18.121094 39.644531 C 17.972656 39.644531 17.839844 39.53125 17.824219 39.378906 C 17.800781 39.210938 17.921875 39.0625 18.085938 39.042969 L 19.855469 38.835938 C 20.019531 38.816406 20.167969 38.933594 20.1875 39.097656 C 20.210938 39.265625 20.089844 39.414062 19.925781 39.433594 L 18.15625 39.640625 C 18.148438 39.640625 18.132812 39.644531 18.121094 39.644531 Z M 18.121094 39.644531 " fill-opacity="1" fill-rule="nonzero"/><path fill="#ffffff" d="M 25.039062 33.722656 C 24.875 33.722656 24.738281 33.589844 24.738281 33.421875 L 24.738281 31.007812 C 24.738281 30.84375 24.875 30.707031 25.039062 30.707031 C 25.207031 30.707031 25.34375 30.84375 25.34375 31.007812 L 25.34375 33.421875 C 25.34375 33.589844 25.207031 33.722656 25.039062 33.722656 Z M 25.039062 33.722656 " fill-opacity="1" fill-rule="nonzero"/><path fill="#aadff1" d="M 18.457031 7.140625 C 18.402344 7.140625 18.34375 7.125 18.292969 7.09375 L 16.941406 6.222656 C 16.800781 6.128906 16.761719 5.945312 16.851562 5.804688 C 16.941406 5.664062 17.128906 5.621094 17.269531 5.710938 L 18.621094 6.585938 C 18.761719 6.675781 18.800781 6.863281 18.710938 7.003906 C 18.652344 7.089844 18.558594 7.140625 18.457031 7.140625 Z M 18.457031 7.140625 " fill-opacity="1" fill-rule="nonzero"/><path fill="#00aeef" d="M 32.050781 9.195312 C 31.988281 9.195312 31.925781 9.179688 31.875 9.136719 L 30.808594 8.363281 C 30.671875 8.265625 30.640625 8.078125 30.738281 7.941406 C 30.835938 7.804688 31.027344 7.773438 31.160156 7.875 L 32.226562 8.648438 C 32.363281 8.746094 32.394531 8.933594 32.296875 9.070312 C 32.234375 9.152344 32.144531 9.195312 32.050781 9.195312 Z M 32.050781 9.195312 " fill-opacity="1" fill-rule="nonzero"/><path fill="#00a651" d="M 14.382812 9.859375 C 14.378906 9.859375 14.375 9.859375 14.371094 9.859375 C 14.207031 9.851562 14.074219 9.710938 14.082031 9.546875 L 14.128906 8.050781 C 14.132812 7.882812 14.269531 7.753906 14.441406 7.757812 C 14.605469 7.761719 14.738281 7.902344 14.730469 8.070312 L 14.683594 9.566406 C 14.679688 9.726562 14.546875 9.859375 14.382812 9.859375 Z M 14.382812 9.859375 " fill-opacity="1" fill-rule="nonzero"/><path fill="#39b54a" d="M 37.015625 15.011719 C 36.925781 15.011719 36.839844 14.972656 36.78125 14.898438 L 35.558594 13.382812 C 35.453125 13.253906 35.472656 13.0625 35.601562 12.957031 C 35.734375 12.851562 35.921875 12.871094 36.027344 13.003906 L 37.25 14.519531 C 37.355469 14.648438 37.335938 14.835938 37.207031 14.941406 C 37.148438 14.988281 37.082031 15.011719 37.015625 15.011719 Z M 37.015625 15.011719 " fill-opacity="1" fill-rule="nonzero"/><path fill="#fff200" d="M 30.644531 14.164062 C 30.589844 14.164062 30.539062 14.152344 30.492188 14.125 C 30.347656 14.042969 30.300781 13.855469 30.382812 13.714844 L 31.402344 11.96875 C 31.484375 11.828125 31.671875 11.777344 31.816406 11.863281 C 31.960938 11.945312 32.007812 12.132812 31.921875 12.273438 L 30.90625 14.015625 C 30.851562 14.109375 30.746094 14.164062 30.644531 14.164062 Z M 30.644531 14.164062 " fill-opacity="1" fill-rule="nonzero"/><path fill="#00aeef" d="M 35.230469 17.367188 C 35.226562 17.367188 35.226562 17.367188 35.222656 17.367188 L 33.539062 17.328125 C 33.375 17.320312 33.242188 17.183594 33.246094 17.019531 C 33.25 16.851562 33.390625 16.71875 33.554688 16.722656 L 35.238281 16.761719 C 35.40625 16.769531 35.539062 16.90625 35.53125 17.074219 C 35.527344 17.238281 35.394531 17.367188 35.230469 17.367188 Z M 35.230469 17.367188 " fill-opacity="1" fill-rule="nonzero"/><path fill="#aadff1" d="M 28.796875 17.402344 C 28.675781 17.402344 28.5625 17.328125 28.511719 17.210938 L 27.878906 15.589844 C 27.816406 15.433594 27.890625 15.257812 28.046875 15.195312 C 28.203125 15.136719 28.378906 15.210938 28.441406 15.367188 L 29.078125 16.988281 C 29.136719 17.144531 29.0625 17.320312 28.90625 17.382812 C 28.867188 17.394531 28.832031 17.402344 28.796875 17.402344 Z M 28.796875 17.402344 " fill-opacity="1" fill-rule="nonzero"/><path fill="#39b54a" d="M 15.226562 21.683594 C 15.175781 21.683594 15.117188 21.667969 15.070312 21.636719 L 13.621094 20.753906 C 13.480469 20.664062 13.4375 20.480469 13.523438 20.335938 C 13.609375 20.195312 13.792969 20.152344 13.9375 20.238281 L 15.386719 21.121094 C 15.527344 21.210938 15.570312 21.394531 15.484375 21.535156 C 15.429688 21.632812 15.328125 21.683594 15.226562 21.683594 Z M 15.226562 21.683594 " fill-opacity="1" fill-rule="nonzero"/><path fill="#00a651" d="M 5.480469 20.496094 C 5.417969 20.496094 5.359375 20.476562 5.304688 20.441406 C 5.167969 20.34375 5.136719 20.15625 5.234375 20.019531 L 6.136719 18.734375 C 6.230469 18.597656 6.417969 18.5625 6.554688 18.660156 C 6.691406 18.753906 6.722656 18.945312 6.628906 19.078125 L 5.726562 20.367188 C 5.667969 20.449219 5.570312 20.496094 5.480469 20.496094 Z M 5.480469 20.496094 " fill-opacity="1" fill-rule="nonzero"/><path fill="#aadff1" d="M 16.175781 16.828125 C 16.0625 16.828125 15.949219 16.761719 15.902344 16.644531 L 15.238281 15.105469 C 15.175781 14.953125 15.246094 14.777344 15.398438 14.707031 C 15.550781 14.644531 15.726562 14.714844 15.796875 14.867188 L 16.457031 16.40625 C 16.523438 16.558594 16.453125 16.734375 16.296875 16.804688 C 16.257812 16.820312 16.214844 16.828125 16.175781 16.828125 Z M 16.175781 16.828125 " fill-opacity="1" fill-rule="nonzero"/><path fill="#ec008c" d="M 8.347656 15.0625 C 8.242188 15.0625 8.140625 15.011719 8.085938 14.914062 L 7.171875 13.382812 C 7.085938 13.238281 7.132812 13.050781 7.277344 12.96875 C 7.421875 12.882812 7.605469 12.929688 7.691406 13.074219 L 8.601562 14.609375 C 8.6875 14.753906 8.640625 14.941406 8.496094 15.023438 C 8.453125 15.046875 8.398438 15.0625 8.347656 15.0625 Z M 8.347656 15.0625 " fill-opacity="1" fill-rule="nonzero"/><path fill="#fff200" d="M 11.339844 17.859375 C 11.289062 17.859375 11.238281 17.84375 11.191406 17.816406 C 11.042969 17.734375 10.996094 17.550781 11.078125 17.40625 L 11.933594 15.894531 C 12.015625 15.746094 12.199219 15.695312 12.34375 15.78125 C 12.492188 15.863281 12.539062 16.046875 12.457031 16.191406 L 11.601562 17.703125 C 11.546875 17.800781 11.445312 17.859375 11.339844 17.859375 Z M 11.339844 17.859375 " fill-opacity="1" fill-rule="nonzero"/><path fill="#ffffff" d="M 23.1875 14.257812 C 23.039062 14.257812 22.910156 14.148438 22.890625 13.996094 C 22.867188 13.832031 22.984375 13.679688 23.148438 13.65625 L 25.058594 13.40625 C 25.222656 13.382812 25.375 13.5 25.398438 13.664062 C 25.421875 13.832031 25.300781 13.980469 25.136719 14.003906 L 23.230469 14.257812 C 23.214844 14.257812 23.203125 14.257812 23.1875 14.257812 Z M 23.1875 14.257812 " fill-opacity="1" fill-rule="nonzero"/><path fill="#ec008c" d="M 28.191406 10.460938 C 28.089844 10.460938 27.992188 10.410156 27.933594 10.316406 L 26.925781 8.664062 C 26.839844 8.519531 26.882812 8.335938 27.027344 8.246094 C 27.171875 8.164062 27.355469 8.207031 27.441406 8.347656 L 28.449219 10 C 28.535156 10.144531 28.492188 10.328125 28.347656 10.414062 C 28.300781 10.445312 28.246094 10.460938 28.191406 10.460938 Z M 28.191406 10.460938 " fill-opacity="1" fill-rule="nonzero"/><path fill="#00a651" d="M 23.542969 10.625 C 23.433594 10.625 23.324219 10.5625 23.273438 10.457031 L 22.484375 8.855469 C 22.414062 8.707031 22.472656 8.527344 22.625 8.453125 C 22.773438 8.378906 22.953125 8.4375 23.027344 8.589844 L 23.816406 10.1875 C 23.886719 10.335938 23.828125 10.519531 23.675781 10.59375 C 23.632812 10.613281 23.589844 10.625 23.542969 10.625 Z M 23.542969 10.625 " fill-opacity="1" fill-rule="nonzero"/><path fill="#fff200" d="M 23.859375 5.894531 C 23.714844 5.894531 23.589844 5.792969 23.5625 5.648438 C 23.53125 5.488281 23.640625 5.328125 23.804688 5.296875 L 25.789062 4.9375 C 25.953125 4.90625 26.113281 5.011719 26.140625 5.179688 C 26.171875 5.34375 26.0625 5.5 25.898438 5.53125 L 23.914062 5.894531 C 23.894531 5.894531 23.878906 5.894531 23.859375 5.894531 Z M 23.859375 5.894531 " fill-opacity="1" fill-rule="nonzero"/><path fill="#ec008c" d="M 19.453125 13.5625 C 19.375 13.5625 19.300781 13.53125 19.242188 13.472656 L 18.019531 12.257812 C 17.898438 12.140625 17.898438 11.949219 18.015625 11.832031 C 18.132812 11.714844 18.324219 11.714844 18.445312 11.828125 L 19.664062 13.042969 C 19.785156 13.164062 19.785156 13.351562 19.667969 13.472656 C 19.609375 13.53125 19.53125 13.5625 19.453125 13.5625 Z M 19.453125 13.5625 " fill-opacity="1" fill-rule="nonzero"/><path fill="#f8ad53" d="M 8.195312 7.894531 C 8.195312 7.894531 11.0625 5.40625 12.421875 4.878906 C 13.777344 4.351562 12.34375 6.386719 10.683594 7.140625 C 9.023438 7.894531 7.0625 9.027344 7.0625 9.253906 C 7.0625 9.480469 6.914062 9.027344 8.195312 7.894531 Z M 8.195312 7.894531 " fill-opacity="1" fill-rule="nonzero"/><path fill="#f8ad53" d="M 33.625 5.707031 C 33.625 5.707031 34.679688 7.59375 35.886719 7.894531 C 37.09375 8.199219 34.605469 5.785156 33.625 5.707031 Z M 33.625 5.707031 " fill-opacity="1" fill-rule="nonzero"/><g clip-path="url(#5cd85c295c)"><path fill="#f8ad53" d="M 19.210938 42.152344 C 20.265625 42.152344 22.90625 41.398438 23.886719 41.925781 C 24.871094 42.453125 23.210938 43.359375 20.644531 42.980469 C 18.078125 42.605469 17.476562 42.152344 19.210938 42.152344 Z M 19.210938 42.152344 " fill-opacity="1" fill-rule="nonzero"/></g><path fill="#f8ad53" d="M 39.8125 32.644531 C 39.8125 32.644531 40.261719 30.835938 41.09375 29.402344 C 41.921875 27.96875 42 28.949219 41.546875 29.703125 C 41.09375 30.457031 40.035156 33.476562 39.585938 33.851562 C 39.132812 34.230469 39.734375 33.097656 39.8125 32.644531 Z M 39.8125 32.644531 " fill-opacity="1" fill-rule="nonzero"/><path fill="#f8ad53" d="M 20.492188 2.386719 C 20.492188 2.386719 22.679688 2.007812 23.585938 2.308594 C 24.492188 2.613281 23.285156 3.289062 20.945312 3.289062 C 18.605469 3.289062 18.003906 2.386719 20.492188 2.386719 Z M 20.492188 2.386719 " fill-opacity="1" fill-rule="nonzero"/></svg>