<svg xmlns="http://www.w3.org/2000/svg" xmlns:xlink="http://www.w3.org/1999/xlink" width="60" zoomAndPan="magnify" viewBox="0 0 45 44.999999" height="60" preserveAspectRatio="xMidYMid meet" version="1.0"><defs><clipPath id="153f38802d"><path d="M 29 2.035156 L 37.84375 2.035156 L 37.84375 11 L 29 11 Z M 29 2.035156 " clip-rule="nonzero"/></clipPath><clipPath id="d3d3e0733d"><path d="M 7.09375 2.035156 L 16 2.035156 L 16 11 L 7.09375 11 Z M 7.09375 2.035156 " clip-rule="nonzero"/></clipPath></defs><path fill="#d0987f" d="M 19.027344 24.074219 C 15.628906 24.757812 12.550781 26.660156 10.757812 29.273438 C 10.261719 29.996094 10.25 30.886719 11.015625 31.46875 C 13.195312 33.125 14.957031 31.472656 16.003906 29.691406 C 17.246094 27.570312 18.9375 25.789062 21.167969 24.359375 C 21.3125 24.265625 21.480469 24.125 21.417969 23.980469 C 21.359375 23.832031 21.132812 23.8125 20.953125 23.824219 C 20.304688 23.863281 19.660156 23.949219 19.027344 24.074219 Z M 19.027344 24.074219 " fill-opacity="1" fill-rule="nonzero"/><path fill="#d0987f" d="M 25.890625 24.074219 C 29.289062 24.757812 32.367188 26.660156 34.160156 29.273438 C 34.65625 29.996094 34.667969 30.886719 33.902344 31.46875 C 31.722656 33.125 29.960938 31.472656 28.917969 29.691406 C 27.671875 27.570312 25.980469 25.789062 23.75 24.359375 C 23.605469 24.265625 23.4375 24.125 23.5 23.980469 C 23.558594 23.832031 23.785156 23.8125 23.964844 23.824219 C 24.613281 23.863281 25.257812 23.949219 25.890625 24.074219 Z M 25.890625 24.074219 " fill-opacity="1" fill-rule="nonzero"/><path fill="#dba58d" d="M 15.398438 30.460938 C 15.277344 30.949219 15.183594 31.445312 15.113281 31.941406 C 14.457031 36.515625 18.113281 40.804688 22.851562 40.335938 C 25.800781 40.042969 28.425781 37.832031 29.4375 35.015625 C 30.851562 31.066406 29.023438 25.996094 25.945312 23.339844 C 25.003906 22.527344 23.832031 21.839844 22.582031 21.695312 C 21.144531 21.527344 20.390625 22.160156 19.414062 23.15625 C 17.480469 25.132812 16.066406 27.738281 15.398438 30.460938 Z M 15.398438 30.460938 " fill-opacity="1" fill-rule="nonzero"/><path fill="#da9f84" d="M 25.945312 23.339844 C 25.003906 22.527344 23.832031 21.839844 22.582031 21.695312 C 21.144531 21.527344 20.390625 22.160156 19.414062 23.15625 C 17.480469 25.132812 16.066406 27.738281 15.398438 30.460938 C 15.277344 30.949219 15.183594 31.445312 15.113281 31.941406 C 14.457031 36.515625 18.113281 40.804688 22.851562 40.335938 C 25.800781 40.042969 28.425781 37.832031 29.4375 35.015625 C 30.851562 31.066406 29.023438 25.996094 25.945312 23.339844 Z M 28.539062 32.53125 C 28.523438 33.855469 27.648438 35.304688 26.839844 36.34375 C 26.113281 37.28125 25.058594 37.953125 23.914062 38.253906 C 22.746094 38.566406 21.484375 38.488281 20.371094 37.914062 C 19.644531 37.539062 19.066406 36.957031 18.582031 36.304688 C 18.078125 35.632812 17.332031 35.070312 16.933594 34.316406 C 16.496094 33.484375 16.460938 32.253906 16.457031 31.332031 C 16.453125 30.070312 16.671875 28.808594 17.105469 27.628906 C 17.453125 26.675781 17.769531 25.230469 18.945312 25.113281 C 19.449219 25.0625 19.949219 25.199219 20.445312 25.292969 C 21.6875 25.527344 22.976562 25.507812 24.210938 25.242188 C 26.125 24.832031 27.015625 26.433594 27.707031 28.03125 C 28.332031 29.46875 28.558594 30.972656 28.539062 32.53125 Z M 28.539062 32.53125 " fill-opacity="1" fill-rule="nonzero"/><path fill="#d0987f" d="M 16.78125 40.976562 C 17.894531 41.054688 18.707031 39.964844 19.160156 38.867188 C 19.65625 37.667969 19.609375 36.230469 18.945312 35.117188 C 18.597656 34.53125 18.097656 34.050781 17.574219 33.617188 C 17.15625 33.265625 16.707031 32.933594 16.191406 32.757812 C 14.761719 32.273438 13.527344 33.152344 12.90625 34.425781 C 12.222656 35.824219 12.507812 37.699219 13.542969 38.851562 C 14.125 39.496094 15.527344 40.609375 16.328125 40.882812 C 16.480469 40.933594 16.632812 40.964844 16.78125 40.976562 Z M 16.78125 40.976562 " fill-opacity="1" fill-rule="nonzero"/><path fill="#dba58d" d="M 15.878906 34.933594 C 15.132812 33.765625 13.976562 32.679688 12.621094 32.808594 C 12.195312 32.847656 11.789062 33.007812 11.417969 33.21875 C 10.390625 33.8125 9.609375 34.855469 9.410156 36.035156 C 8.847656 39.363281 13.128906 43.242188 16.308594 41.773438 C 18.890625 40.582031 16.972656 36.734375 15.972656 35.085938 C 15.941406 35.035156 15.910156 34.984375 15.878906 34.933594 Z M 15.878906 34.933594 " fill-opacity="1" fill-rule="nonzero"/><path fill="#d0987f" d="M 28.140625 40.976562 C 27.023438 41.054688 26.210938 39.964844 25.757812 38.867188 C 25.261719 37.667969 25.308594 36.230469 25.972656 35.117188 C 26.324219 34.53125 26.820312 34.050781 27.34375 33.617188 C 27.761719 33.265625 28.210938 32.933594 28.726562 32.757812 C 30.160156 32.273438 31.390625 33.152344 32.011719 34.425781 C 32.695312 35.824219 32.410156 37.699219 31.375 38.851562 C 30.792969 39.496094 29.390625 40.609375 28.59375 40.882812 C 28.4375 40.933594 28.285156 40.964844 28.140625 40.976562 Z M 28.140625 40.976562 " fill-opacity="1" fill-rule="nonzero"/><path fill="#dba58d" d="M 29.039062 34.933594 C 29.789062 33.765625 30.941406 32.679688 32.296875 32.808594 C 32.722656 32.847656 33.128906 33.007812 33.5 33.21875 C 34.527344 33.8125 35.308594 34.855469 35.507812 36.035156 C 36.070312 39.363281 31.789062 43.242188 28.609375 41.773438 C 26.027344 40.582031 27.945312 36.734375 28.945312 35.085938 C 28.976562 35.035156 29.007812 34.984375 29.039062 34.933594 Z M 29.039062 34.933594 " fill-opacity="1" fill-rule="nonzero"/><path fill="#edc2b1" d="M 18.375 30.546875 C 18.335938 33.070312 20 35.902344 22.78125 35.773438 C 23.867188 35.722656 24.921875 35.175781 25.59375 34.3125 C 26.292969 33.414062 26.558594 32.238281 26.566406 31.09375 C 26.574219 29.257812 26.039062 26.992188 24.359375 26.023438 C 23 25.242188 21.175781 25.605469 20.019531 26.667969 C 18.929688 27.667969 18.398438 29.097656 18.375 30.546875 Z M 18.375 30.546875 " fill-opacity="1" fill-rule="nonzero"/><path fill="#dba58d" d="M 11.808594 19.179688 C 12.90625 20.984375 14.472656 22.527344 16.402344 23.558594 C 19.34375 25.125 23.050781 25.382812 26.222656 24.292969 C 29.683594 23.105469 31.519531 20.324219 32.886719 17.210938 C 33.832031 15.066406 34.226562 12.632812 33.488281 10.417969 C 32.671875 7.980469 30.375 5.761719 27.820312 4.871094 C 23.828125 3.480469 19.167969 3.40625 15.4375 5.328125 C 9.734375 8.265625 8.773438 14.1875 11.808594 19.179688 Z M 11.808594 19.179688 " fill-opacity="1" fill-rule="nonzero"/><path fill="#da9d81" d="M 19.875 9.246094 C 20.605469 12.101562 20.253906 15.082031 20.035156 17.996094 C 20.378906 17.90625 20.730469 17.847656 21.089844 17.804688 C 21.382812 17.765625 21.679688 17.742188 21.976562 17.710938 C 22.042969 17.703125 22.109375 17.695312 22.175781 17.6875 C 22.179688 17.6875 22.179688 17.6875 22.183594 17.683594 C 22.191406 17.683594 22.199219 17.683594 22.214844 17.679688 C 22.324219 17.660156 22.433594 17.636719 22.539062 17.617188 C 22.769531 17.578125 23.007812 17.554688 23.238281 17.527344 C 23.332031 17.515625 23.425781 17.503906 23.519531 17.492188 C 23.445312 17.503906 23.683594 17.46875 23.746094 17.460938 C 23.96875 17.421875 24.191406 17.378906 24.402344 17.3125 C 24.410156 17.308594 24.429688 17.300781 24.441406 17.296875 C 24.449219 17.289062 24.457031 17.285156 24.46875 17.28125 C 24.300781 15.636719 24.1875 13.980469 24.375 12.332031 C 24.574219 10.570312 25.058594 8.800781 25.800781 7.191406 C 26.253906 6.207031 26.886719 5.441406 27.632812 4.8125 C 24.144531 3.636719 20.175781 3.464844 16.765625 4.742188 C 18.429688 5.527344 19.40625 7.402344 19.875 9.246094 Z M 19.875 9.246094 " fill-opacity="1" fill-rule="nonzero"/><path fill="#d0987f" d="M 11.671875 12.695312 C 11.785156 12.285156 11.921875 11.886719 12.082031 11.507812 C 12.179688 11.285156 12.285156 11.042969 12.222656 10.808594 C 12.132812 10.488281 11.535156 10.207031 11.234375 10.132812 C 10.824219 10.035156 10.710938 10.152344 10.519531 10.570312 C 10.171875 11.320312 10.167969 12.261719 10.128906 13.074219 C 10.027344 15.230469 10.699219 17.359375 11.808594 19.179688 C 12.90625 20.984375 14.472656 22.527344 16.402344 23.558594 C 19.34375 25.128906 23.050781 25.382812 26.222656 24.292969 C 29.683594 23.105469 31.519531 20.324219 32.886719 17.210938 C 33.832031 15.066406 34.226562 12.632812 33.488281 10.417969 C 33.308594 9.890625 33.0625 9.09375 32.558594 8.785156 C 31.871094 8.367188 31.074219 9.25 31.539062 9.921875 C 31.726562 10.191406 32.015625 10.375 32.210938 10.640625 C 32.519531 11.050781 32.566406 11.597656 32.601562 12.109375 C 32.714844 13.664062 32.792969 15.097656 32.550781 16.640625 C 32.421875 17.457031 31.992188 18.261719 31.570312 18.976562 C 28.574219 24.042969 21.753906 25.992188 16.585938 23.230469 C 14.683594 22.214844 12.867188 20.484375 11.972656 18.480469 C 11.191406 16.726562 11.15625 14.578125 11.671875 12.695312 Z M 11.671875 12.695312 " fill-opacity="1" fill-rule="nonzero"/><path fill="#edc2b1" d="M 27.144531 17.597656 C 25.710938 15.273438 22.449219 14.777344 19.90625 15.707031 C 17.523438 16.578125 15.746094 19.386719 17.214844 21.652344 C 17.566406 22.203125 18.070312 22.589844 18.648438 22.84375 C 20.320312 23.851562 22.765625 24.070312 24.488281 23.566406 C 27.140625 22.800781 28.5625 19.902344 27.144531 17.597656 Z M 27.144531 17.597656 " fill-opacity="1" fill-rule="nonzero"/><path fill="#f0916b" d="M 26.398438 18.976562 C 25.941406 18.847656 25.429688 18.957031 25.058594 19.265625 C 24.6875 19.574219 24.46875 20.070312 24.484375 20.566406 C 24.492188 20.785156 24.550781 21.019531 24.710938 21.160156 C 24.796875 21.234375 24.902344 21.277344 25.007812 21.308594 C 25.582031 21.480469 26.246094 21.335938 26.664062 20.890625 C 27.078125 20.445312 27.269531 19.84375 26.84375 19.335938 Z M 26.398438 18.976562 " fill-opacity="1" fill-rule="nonzero"/><path fill="#f0916b" d="M 17.851562 18.976562 C 18.308594 18.847656 18.820312 18.957031 19.191406 19.265625 C 19.5625 19.574219 19.78125 20.070312 19.765625 20.566406 C 19.757812 20.785156 19.695312 21.019531 19.535156 21.160156 C 19.453125 21.234375 19.347656 21.277344 19.242188 21.308594 C 18.667969 21.480469 18.003906 21.335938 17.585938 20.890625 C 17.171875 20.445312 16.980469 19.84375 17.40625 19.335938 Z M 17.851562 18.976562 " fill-opacity="1" fill-rule="nonzero"/><path fill="#3f3127" d="M 18.175781 15.730469 C 18.171875 15.800781 18.160156 15.871094 18.144531 15.941406 C 18.117188 16.09375 18.074219 16.246094 18 16.382812 C 17.886719 16.585938 17.699219 16.742188 17.484375 16.8125 C 17.359375 16.855469 17.226562 16.867188 17.09375 16.875 C 16.976562 16.878906 16.855469 16.878906 16.742188 16.847656 C 16.648438 16.820312 16.558594 16.769531 16.476562 16.710938 C 16.261719 16.558594 16.101562 16.332031 16.027344 16.082031 C 15.953125 15.828125 15.960938 15.550781 16.054688 15.304688 C 16.109375 15.15625 16.199219 15.015625 16.324219 14.925781 C 16.414062 14.859375 16.519531 14.816406 16.625 14.777344 C 16.746094 14.734375 16.863281 14.679688 16.992188 14.65625 C 17.085938 14.636719 17.238281 14.621094 17.328125 14.664062 C 17.4375 14.714844 17.546875 14.765625 17.65625 14.816406 C 17.738281 14.855469 17.820312 14.890625 17.886719 14.953125 C 17.964844 15.023438 18.011719 15.121094 18.058594 15.214844 C 18.109375 15.324219 18.15625 15.4375 18.171875 15.558594 C 18.179688 15.617188 18.183594 15.675781 18.175781 15.730469 Z M 18.175781 15.730469 " fill-opacity="1" fill-rule="nonzero"/><path fill="#c8b8ae" d="M 16.980469 15.570312 C 16.976562 15.589844 16.976562 15.613281 16.96875 15.632812 C 16.960938 15.679688 16.949219 15.726562 16.925781 15.765625 C 16.890625 15.828125 16.835938 15.875 16.769531 15.894531 C 16.734375 15.90625 16.695312 15.914062 16.652344 15.914062 C 16.617188 15.914062 16.582031 15.914062 16.550781 15.90625 C 16.519531 15.898438 16.492188 15.882812 16.46875 15.863281 C 16.40625 15.820312 16.355469 15.75 16.332031 15.675781 C 16.3125 15.601562 16.3125 15.515625 16.34375 15.441406 C 16.359375 15.398438 16.386719 15.355469 16.421875 15.328125 C 16.449219 15.308594 16.480469 15.296875 16.511719 15.285156 C 16.550781 15.269531 16.585938 15.253906 16.625 15.246094 C 16.652344 15.242188 16.699219 15.238281 16.726562 15.25 C 16.757812 15.265625 16.789062 15.28125 16.824219 15.296875 C 16.847656 15.308594 16.871094 15.320312 16.894531 15.335938 C 16.914062 15.359375 16.929688 15.386719 16.945312 15.414062 C 16.960938 15.449219 16.972656 15.480469 16.980469 15.519531 C 16.980469 15.535156 16.980469 15.554688 16.980469 15.570312 Z M 16.980469 15.570312 " fill-opacity="1" fill-rule="nonzero"/><path fill="#3f3127" d="M 28.382812 15.730469 C 28.378906 15.800781 28.367188 15.871094 28.355469 15.941406 C 28.324219 16.09375 28.28125 16.246094 28.207031 16.382812 C 28.09375 16.585938 27.90625 16.742188 27.691406 16.8125 C 27.566406 16.855469 27.433594 16.867188 27.300781 16.875 C 27.183594 16.878906 27.0625 16.878906 26.949219 16.847656 C 26.855469 16.820312 26.765625 16.769531 26.683594 16.710938 C 26.472656 16.558594 26.308594 16.332031 26.234375 16.082031 C 26.160156 15.828125 26.167969 15.550781 26.261719 15.304688 C 26.316406 15.15625 26.40625 15.015625 26.53125 14.925781 C 26.621094 14.859375 26.726562 14.816406 26.832031 14.777344 C 26.953125 14.734375 27.070312 14.679688 27.199219 14.65625 C 27.292969 14.636719 27.445312 14.621094 27.535156 14.664062 C 27.644531 14.714844 27.753906 14.765625 27.867188 14.816406 C 27.945312 14.855469 28.027344 14.890625 28.09375 14.953125 C 28.171875 15.023438 28.21875 15.121094 28.265625 15.214844 C 28.316406 15.324219 28.363281 15.4375 28.378906 15.558594 C 28.386719 15.617188 28.390625 15.675781 28.382812 15.730469 Z M 28.382812 15.730469 " fill-opacity="1" fill-rule="nonzero"/><path fill="#c8b8ae" d="M 27.1875 15.570312 C 27.1875 15.589844 27.183594 15.613281 27.179688 15.632812 C 27.167969 15.679688 27.15625 15.726562 27.132812 15.765625 C 27.101562 15.828125 27.042969 15.875 26.976562 15.894531 C 26.941406 15.90625 26.902344 15.914062 26.863281 15.914062 C 26.828125 15.914062 26.789062 15.914062 26.757812 15.90625 C 26.726562 15.898438 26.699219 15.882812 26.675781 15.863281 C 26.613281 15.820312 26.5625 15.75 26.542969 15.675781 C 26.519531 15.601562 26.519531 15.515625 26.550781 15.441406 C 26.566406 15.398438 26.59375 15.355469 26.628906 15.328125 C 26.65625 15.308594 26.6875 15.296875 26.71875 15.285156 C 26.757812 15.269531 26.792969 15.253906 26.832031 15.246094 C 26.859375 15.242188 26.90625 15.238281 26.933594 15.25 C 26.964844 15.265625 27 15.28125 27.03125 15.296875 C 27.054688 15.308594 27.082031 15.320312 27.101562 15.335938 C 27.125 15.359375 27.136719 15.386719 27.152344 15.414062 C 27.167969 15.449219 27.179688 15.480469 27.1875 15.519531 C 27.1875 15.535156 27.1875 15.554688 27.1875 15.570312 Z M 27.1875 15.570312 " fill-opacity="1" fill-rule="nonzero"/><path fill="#3f3127" d="M 20.855469 15.894531 C 20.503906 16.019531 20.164062 16.1875 19.851562 16.394531 C 19.625 16.546875 19.40625 16.730469 19.285156 16.976562 C 19.140625 17.269531 19.160156 17.628906 19.269531 17.9375 C 19.382812 18.242188 19.582031 18.511719 19.796875 18.761719 C 20.414062 19.484375 21.320312 20.375 22.359375 20.234375 C 23.003906 20.148438 23.511719 19.648438 23.914062 19.136719 C 24.390625 18.53125 25.070312 17.386719 24.707031 16.597656 C 24.484375 16.117188 23.949219 15.863281 23.433594 15.742188 C 22.585938 15.542969 21.679688 15.601562 20.855469 15.894531 Z M 20.855469 15.894531 " fill-opacity="1" fill-rule="nonzero"/><path fill="#6b5b41" d="M 21.605469 16.28125 C 21.25 16.304688 20.898438 16.414062 20.601562 16.617188 C 20.25 16.851562 19.824219 17.265625 19.921875 17.730469 C 19.9375 17.820312 20.019531 17.921875 20.097656 17.964844 C 20.199219 18.019531 20.289062 18.023438 20.398438 18.003906 C 20.46875 17.996094 20.519531 17.945312 20.570312 17.902344 C 20.574219 17.902344 20.574219 17.902344 20.574219 17.898438 C 20.886719 17.703125 21.234375 17.550781 21.585938 17.4375 C 21.765625 17.378906 21.945312 17.328125 22.117188 17.25 C 22.285156 17.167969 22.5 17.027344 22.550781 16.832031 C 22.675781 16.367188 21.910156 16.261719 21.605469 16.28125 Z M 21.605469 16.28125 " fill-opacity="1" fill-rule="nonzero"/><path fill="#6b5b41" d="M 24.15625 16.734375 C 24.089844 16.621094 24.003906 16.535156 23.894531 16.46875 C 23.78125 16.402344 23.660156 16.371094 23.527344 16.371094 C 23.398438 16.371094 23.277344 16.402344 23.164062 16.46875 C 23.054688 16.535156 22.96875 16.621094 22.902344 16.734375 C 22.835938 16.847656 22.804688 16.96875 22.804688 17.101562 C 22.804688 17.234375 22.835938 17.359375 22.902344 17.472656 C 22.90625 17.480469 22.910156 17.484375 22.914062 17.492188 C 22.976562 17.601562 23.0625 17.6875 23.167969 17.75 C 23.28125 17.816406 23.398438 17.851562 23.527344 17.851562 C 23.65625 17.851562 23.777344 17.816406 23.890625 17.75 C 23.996094 17.6875 24.082031 17.601562 24.144531 17.492188 C 24.148438 17.484375 24.152344 17.480469 24.15625 17.472656 C 24.222656 17.359375 24.253906 17.234375 24.253906 17.101562 C 24.253906 16.96875 24.222656 16.847656 24.15625 16.734375 Z M 24.15625 16.734375 " fill-opacity="1" fill-rule="nonzero"/><path fill="#3f3127" d="M 21.4375 21.941406 C 21.363281 21.941406 21.289062 21.929688 21.214844 21.910156 C 21.003906 21.851562 20.828125 21.71875 20.730469 21.539062 C 20.6875 21.460938 20.714844 21.363281 20.792969 21.316406 C 20.867188 21.273438 20.96875 21.300781 21.011719 21.378906 C 21.066406 21.480469 21.171875 21.5625 21.300781 21.597656 C 21.425781 21.632812 21.554688 21.617188 21.65625 21.558594 C 21.839844 21.453125 21.921875 21.246094 21.953125 21.128906 C 22.003906 20.9375 22.007812 20.722656 22.011719 20.511719 L 22.03125 18.910156 C 22.03125 18.820312 22.101562 18.75 22.195312 18.746094 C 22.285156 18.75 22.355469 18.824219 22.351562 18.914062 L 22.332031 20.519531 C 22.332031 20.746094 22.328125 20.980469 22.261719 21.21875 C 22.183594 21.5 22.027344 21.71875 21.816406 21.84375 C 21.703125 21.90625 21.574219 21.941406 21.4375 21.941406 Z M 21.4375 21.941406 " fill-opacity="1" fill-rule="nonzero"/><path fill="#3f3127" d="M 22.90625 21.941406 C 22.769531 21.941406 22.640625 21.90625 22.527344 21.84375 C 22.316406 21.71875 22.160156 21.5 22.082031 21.21875 C 22.015625 20.984375 22.011719 20.746094 22.011719 20.515625 C 22.007812 20.425781 22.078125 20.355469 22.167969 20.351562 C 22.167969 20.351562 22.171875 20.351562 22.171875 20.351562 C 22.257812 20.351562 22.332031 20.425781 22.332031 20.511719 C 22.335938 20.722656 22.335938 20.9375 22.390625 21.128906 C 22.421875 21.246094 22.503906 21.453125 22.6875 21.558594 C 22.789062 21.617188 22.917969 21.632812 23.042969 21.59375 C 23.171875 21.558594 23.273438 21.480469 23.332031 21.378906 C 23.375 21.300781 23.472656 21.273438 23.550781 21.316406 C 23.628906 21.363281 23.65625 21.460938 23.613281 21.539062 C 23.515625 21.71875 23.335938 21.851562 23.128906 21.910156 C 23.054688 21.929688 22.980469 21.941406 22.90625 21.941406 Z M 22.90625 21.941406 " fill-opacity="1" fill-rule="nonzero"/><g clip-path="url(#153f38802d)"><path fill="#dba58d" d="M 29.917969 7.21875 C 29.792969 5.589844 30.554688 3.949219 31.792969 2.898438 C 32.214844 2.539062 32.707031 2.238281 33.253906 2.164062 C 33.957031 2.070312 34.65625 2.359375 35.269531 2.71875 C 35.8125 3.035156 36.324219 3.410156 36.722656 3.894531 C 37.691406 5.074219 37.839844 6.835938 37.1875 8.214844 C 36.53125 9.59375 35.140625 10.558594 33.644531 10.796875 C 33.28125 10.851562 32.902344 10.871094 32.5625 10.738281 C 32.222656 10.609375 31.953125 10.34375 31.703125 10.078125 C 30.953125 9.265625 30.371094 8.316406 29.871094 7.328125 Z M 29.917969 7.21875 " fill-opacity="1" fill-rule="nonzero"/></g><path fill="#edc2b1" d="M 31.820312 10.195312 C 31.886719 10.191406 31.953125 10.1875 32.023438 10.171875 C 32.488281 10.074219 32.902344 9.820312 33.300781 9.5625 C 33.878906 9.195312 34.472656 8.789062 34.792969 8.179688 C 35.132812 7.523438 35.085938 6.675781 34.671875 6.0625 C 34.257812 5.449219 33.492188 5.09375 32.761719 5.175781 C 31.832031 5.28125 31.085938 6.019531 30.582031 6.820312 C 30.386719 7.125 30.222656 7.453125 30.125 7.804688 C 30.570312 8.617188 31.074219 9.394531 31.703125 10.074219 C 31.742188 10.117188 31.78125 10.15625 31.820312 10.195312 Z M 31.820312 10.195312 " fill-opacity="1" fill-rule="nonzero"/><g clip-path="url(#d3d3e0733d)"><path fill="#dba58d" d="M 15.019531 7.21875 C 15.148438 5.589844 14.386719 3.949219 13.148438 2.898438 C 12.722656 2.539062 12.234375 2.238281 11.6875 2.164062 C 10.984375 2.070312 10.285156 2.359375 9.667969 2.71875 C 9.128906 3.035156 8.613281 3.410156 8.214844 3.894531 C 7.25 5.074219 7.097656 6.835938 7.753906 8.214844 C 8.410156 9.59375 9.800781 10.558594 11.296875 10.796875 C 11.65625 10.851562 12.035156 10.871094 12.375 10.738281 C 12.714844 10.609375 12.988281 10.34375 13.234375 10.078125 C 13.988281 9.265625 14.566406 8.316406 15.070312 7.328125 Z M 15.019531 7.21875 " fill-opacity="1" fill-rule="nonzero"/></g><path fill="#edc2b1" d="M 13.121094 10.195312 C 13.050781 10.191406 12.984375 10.1875 12.914062 10.171875 C 12.453125 10.074219 12.039062 9.820312 11.636719 9.5625 C 11.058594 9.195312 10.464844 8.789062 10.148438 8.179688 C 9.804688 7.523438 9.851562 6.675781 10.269531 6.0625 C 10.683594 5.449219 11.445312 5.09375 12.175781 5.175781 C 13.109375 5.28125 13.855469 6.019531 14.359375 6.820312 C 14.550781 7.125 14.71875 7.453125 14.8125 7.804688 C 14.367188 8.617188 13.863281 9.394531 13.234375 10.074219 C 13.199219 10.117188 13.160156 10.15625 13.121094 10.195312 Z M 13.121094 10.195312 " fill-opacity="1" fill-rule="nonzero"/></svg>