<svg xmlns="http://www.w3.org/2000/svg" xmlns:xlink="http://www.w3.org/1999/xlink" width="60" zoomAndPan="magnify" viewBox="0 0 45 44.999999" height="60" preserveAspectRatio="xMidYMid meet" version="1.0"><defs><clipPath id="2a0473184b"><path d="M 19 11.234375 L 26 11.234375 L 26 25 L 19 25 Z M 19 11.234375 " clip-rule="nonzero"/></clipPath><clipPath id="6699f4f2fe"><path d="M 2.25 20 L 42.75 20 L 42.75 33.734375 L 2.25 33.734375 Z M 2.25 20 " clip-rule="nonzero"/></clipPath></defs><g clip-path="url(#2a0473184b)"><path fill="#000000" d="M 22.417969 24.167969 C 22.238281 24.167969 22.097656 24.027344 22.097656 23.84375 L 22.097656 19.210938 C 22.097656 18.507812 22.398438 17.863281 22.921875 17.398438 C 23.246094 17.117188 23.628906 16.773438 23.871094 16.554688 C 24.820312 15.667969 25.101562 14.761719 24.777344 13.753906 C 24.515625 12.929688 23.8125 12.285156 22.984375 12.101562 C 22.238281 11.941406 21.472656 12.101562 20.867188 12.585938 C 20.28125 13.070312 19.9375 13.773438 19.9375 14.519531 C 19.9375 14.699219 19.796875 14.839844 19.617188 14.839844 C 19.433594 14.839844 19.292969 14.699219 19.292969 14.519531 C 19.292969 13.574219 19.71875 12.667969 20.464844 12.0625 C 21.210938 11.457031 22.175781 11.234375 23.144531 11.4375 C 24.195312 11.660156 25.082031 12.464844 25.421875 13.511719 C 25.847656 14.761719 25.464844 15.949219 24.335938 16.996094 C 24.09375 17.238281 23.710938 17.5625 23.367188 17.863281 C 22.984375 18.183594 22.761719 18.667969 22.761719 19.171875 L 22.761719 23.804688 C 22.761719 24.027344 22.621094 24.167969 22.417969 24.167969 Z M 22.417969 24.167969 " fill-opacity="1" fill-rule="nonzero"/></g><g clip-path="url(#6699f4f2fe)"><path fill="#000000" d="M 42.363281 31.941406 C 38.511719 28.097656 33.792969 25.597656 28.851562 24.46875 C 28.589844 24.347656 27.5 23.824219 27.078125 23.019531 L 26.371094 21.410156 C 26.007812 20.824219 25.382812 20.480469 24.699219 20.480469 L 20.203125 20.480469 C 19.515625 20.480469 18.890625 20.824219 18.488281 21.449219 L 17.820312 23 C 17.339844 23.925781 16.007812 24.46875 15.988281 24.488281 L 15.945312 24.511719 C 11.066406 25.679688 6.449219 28.15625 2.636719 31.941406 C 2.253906 32.324219 2.253906 32.949219 2.636719 33.351562 C 3.019531 33.734375 3.644531 33.734375 4.050781 33.351562 C 14.234375 23.199219 30.765625 23.199219 40.949219 33.351562 C 41.152344 33.554688 41.394531 33.636719 41.65625 33.636719 C 41.917969 33.636719 42.160156 33.535156 42.363281 33.351562 C 42.746094 32.96875 42.746094 32.324219 42.363281 31.941406 Z M 42.363281 31.941406 " fill-opacity="1" fill-rule="nonzero"/></g></svg>