<svg xmlns="http://www.w3.org/2000/svg" xmlns:xlink="http://www.w3.org/1999/xlink" width="60" zoomAndPan="magnify" viewBox="0 0 45 44.999999" height="60" preserveAspectRatio="xMidYMid meet" version="1.0"><defs><filter x="0%" y="0%" width="100%" height="100%" id="aedcab1ac6"><feColorMatrix values="0 0 0 0 1 0 0 0 0 1 0 0 0 0 1 0 0 0 1 0" color-interpolation-filters="sRGB"/></filter><clipPath id="567e90c626"><path d="M 2.597656 7.300781 L 42.347656 7.300781 L 42.347656 38 L 2.597656 38 Z M 2.597656 7.300781 " clip-rule="nonzero"/></clipPath><mask id="fe6a4cb063"><g filter="url(#aedcab1ac6)"><rect x="-4.5" width="54" fill="#000000" y="-4.5" height="53.999999" fill-opacity="0.898"/></g></mask><clipPath id="0713e4e2d7"><path d="M 0.121094 6 L 2 6 L 2 9.761719 L 0.121094 9.761719 Z M 0.121094 6 " clip-rule="nonzero"/></clipPath><clipPath id="e8d96ff0ca"><path d="M 0.121094 5 L 3 5 L 3 8 L 0.121094 8 Z M 0.121094 5 " clip-rule="nonzero"/></clipPath><clipPath id="80e8c26347"><path d="M 6 0.160156 L 8 0.160156 L 8 7 L 6 7 Z M 6 0.160156 " clip-rule="nonzero"/></clipPath><clipPath id="8f71e12639"><path d="M 6 0.160156 L 12 0.160156 L 12 4 L 6 4 Z M 6 0.160156 " clip-rule="nonzero"/></clipPath><clipPath id="0ab7b358cb"><path d="M 16 0.160156 L 17 0.160156 L 17 5 L 16 5 Z M 16 0.160156 " clip-rule="nonzero"/></clipPath><clipPath id="76ff82e41f"><path d="M 17 0.160156 L 18 0.160156 L 18 3 L 17 3 Z M 17 0.160156 " clip-rule="nonzero"/></clipPath><clipPath id="326bf63888"><path d="M 18 0.160156 L 20 0.160156 L 20 7 L 18 7 Z M 18 0.160156 " clip-rule="nonzero"/></clipPath><clipPath id="779c8207ba"><path d="M 24 7 L 26 7 L 26 9.761719 L 24 9.761719 Z M 24 7 " clip-rule="nonzero"/></clipPath><clipPath id="3d2e26518d"><path d="M 25 7 L 26.519531 7 L 26.519531 9.761719 L 25 9.761719 Z M 25 7 " clip-rule="nonzero"/></clipPath><clipPath id="7a87d6ddf2"><rect x="0" width="27" y="0" height="10"/></clipPath><clipPath id="736bfb2ca3"><path d="M 2.597656 22 L 41 22 L 41 25 L 2.597656 25 Z M 2.597656 22 " clip-rule="nonzero"/></clipPath><clipPath id="eb10d99ea4"><path d="M 2.597656 24 L 31 24 L 31 38 L 2.597656 38 Z M 2.597656 24 " clip-rule="nonzero"/></clipPath><clipPath id="507079df9b"><path d="M 30 25 L 42.347656 25 L 42.347656 37 L 30 37 Z M 30 25 " clip-rule="nonzero"/></clipPath><clipPath id="0c8a063099"><path d="M 2.597656 7.300781 L 18 7.300781 L 18 25 L 2.597656 25 Z M 2.597656 7.300781 " clip-rule="nonzero"/></clipPath><clipPath id="374f98f0a9"><path d="M 26 7.300781 L 42.347656 7.300781 L 42.347656 26 L 26 26 Z M 26 7.300781 " clip-rule="nonzero"/></clipPath><clipPath id="37354f2418"><path d="M 17 7.300781 L 28 7.300781 L 28 10 L 17 10 Z M 17 7.300781 " clip-rule="nonzero"/></clipPath></defs><g clip-path="url(#567e90c626)"><path fill="#be1e2d" d="M 41.828125 25.820312 C 41.988281 25.441406 42.296875 25.261719 42.316406 24.855469 C 42.34375 24.347656 42.328125 23.46875 42.230469 23.152344 C 42.105469 22.757812 41.933594 21.671875 41.675781 21.132812 C 39.957031 17.550781 38.917969 14.980469 36.648438 13.082031 C 35.007812 11.710938 33.945312 10.617188 32.1875 9.40625 C 30.695312 8.375 28.46875 7.324219 26.574219 7.839844 C 25.320312 8.179688 24.417969 8.78125 23.191406 9.097656 C 22.886719 9.175781 22.585938 9.207031 22.28125 9.144531 C 21.757812 9.039062 21.070312 8.90625 20.539062 8.683594 C 19.390625 8.203125 18.644531 7.820312 17.371094 7.886719 C 16.617188 7.925781 16.023438 8.1875 15.328125 8.464844 C 14.636719 8.738281 13.886719 8.925781 13.195312 9.269531 C 12.507812 9.613281 11.832031 9.960938 11.207031 10.398438 C 10.664062 10.777344 10.199219 11.027344 9.746094 11.507812 C 9.34375 11.9375 8.789062 12.386719 8.308594 12.796875 C 7.941406 13.109375 7.65625 13.460938 7.324219 13.820312 C 6.753906 14.441406 6.238281 15.074219 5.78125 15.773438 C 5.34375 16.441406 4.816406 17.070312 4.382812 17.757812 C 3.984375 18.390625 3.742188 19.089844 3.457031 19.777344 C 2.996094 20.894531 2.675781 22.101562 2.65625 23.3125 C 2.640625 24.5 2.929688 25.265625 3.4375 26.328125 C 3.730469 26.945312 3.992188 27.601562 4.324219 28.207031 C 4.945312 29.339844 5.808594 30.382812 6.660156 31.371094 C 8.472656 33.472656 10.921875 35.023438 13.386719 36.1875 C 14.640625 36.78125 16.160156 37.050781 17.511719 37.257812 C 18.988281 37.488281 20.601562 37.714844 22.140625 37.714844 C 23.445312 37.714844 24.824219 37.667969 26.105469 37.714844 C 26.746094 37.738281 27.488281 37.578125 28.097656 37.5 C 29.417969 37.335938 30.472656 36.738281 31.78125 36.476562 C 32.421875 36.347656 33.117188 36.167969 33.726562 35.898438 C 34.945312 35.355469 36.160156 34.375 37.164062 33.464844 C 37.660156 33.019531 38.121094 32.546875 38.539062 32.023438 C 39.695312 30.578125 40.324219 28.957031 41.167969 27.296875 C 41.382812 26.878906 41.644531 26.25 41.828125 25.820312 Z M 41.828125 25.820312 " fill-opacity="1" fill-rule="nonzero"/></g><path fill="#ef4136" d="M 14.933594 29.277344 C 13.847656 29.167969 12.609375 29.027344 11.476562 28.839844 C 10.332031 28.644531 9.160156 28.328125 9.195312 30.035156 C 9.246094 32.265625 12.539062 34.578125 14.484375 35.207031 C 16.652344 35.90625 19.4375 35.671875 21.769531 35.824219 C 23.0625 35.910156 24.226562 35.976562 25.488281 35.730469 C 27.203125 35.402344 28.773438 34.808594 30.484375 34.429688 C 31.945312 34.109375 33.609375 33.691406 34.773438 32.714844 C 35.683594 31.949219 36.21875 30.421875 35.339844 29.421875 C 33.765625 27.632812 30.609375 28.238281 28.675781 29.050781 C 26.355469 30.027344 23.9375 30.40625 21.410156 30.34375 C 19.230469 30.289062 16.550781 30.398438 14.730469 29.125 " fill-opacity="0.0471" fill-rule="nonzero"/><path fill="#ef4136" d="M 20.527344 9.25 C 19.710938 9.253906 18.976562 9.226562 18.214844 9.054688 C 17.433594 8.878906 16.820312 9.242188 16.089844 9.460938 C 14.804688 9.847656 13.050781 10.453125 11.945312 11.394531 C 11.285156 11.960938 10.6875 12.710938 10.0625 13.339844 C 9.394531 14.019531 8.722656 14.824219 8.265625 15.703125 C 7.4375 17.277344 7.125 18.71875 6.878906 20.480469 C 6.765625 21.3125 6.6875 22.175781 7.5 22.59375 C 8.117188 22.917969 9.089844 22.460938 9.65625 22.082031 C 10.226562 21.695312 10.914062 21.203125 11.398438 20.671875 C 12.011719 20 12.523438 19.546875 13.230469 19 C 16.222656 16.675781 19.761719 15.222656 23.398438 14.867188 C 25.640625 14.648438 27.734375 14.929688 29.738281 16.128906 C 31.171875 16.984375 32.230469 17.898438 33.363281 19.242188 C 34.527344 20.625 36.019531 21.617188 37.667969 22.082031 C 38.0625 22.191406 38.433594 22.261719 38.847656 22.28125 C 39.347656 22.300781 39.558594 22.378906 39.660156 21.808594 C 39.792969 21.078125 39.503906 20.109375 39.210938 19.441406 C 38.742188 18.378906 38.1875 17.40625 37.402344 16.621094 C 36.671875 15.890625 36.371094 14.800781 35.753906 13.949219 C 35.292969 13.308594 34.710938 12.796875 34.164062 12.265625 C 33.132812 11.265625 32 10.425781 30.855469 9.648438 C 30.203125 9.203125 29.449219 8.878906 28.730469 8.703125 C 27.921875 8.507812 27.175781 8.71875 26.371094 8.8125 C 24.398438 9.035156 22.316406 9.195312 20.335938 9.199219 " fill-opacity="0.0471" fill-rule="nonzero"/><path fill="#ffffff" d="M 25.273438 25.070312 C 24.183594 25.472656 23.011719 25.550781 21.8125 25.445312 C 19.582031 25.25 17.699219 24.027344 15.515625 23.804688 C 11.542969 23.40625 8.105469 25.652344 4.203125 24.960938 C 5.113281 25.351562 6.039062 25.980469 7.03125 26.230469 C 8.101562 26.496094 9.234375 26.5625 10.351562 26.746094 C 11.359375 26.910156 12.296875 27.390625 13.234375 27.890625 C 14.25 28.4375 15.207031 28.773438 16.296875 29.15625 C 18.476562 29.925781 20.796875 29.867188 23.15625 29.65625 C 25.683594 29.429688 28.035156 28.933594 30.371094 27.820312 C 31.21875 27.414062 32.085938 27.058594 32.972656 26.785156 C 33.882812 26.507812 34.894531 26.613281 35.816406 26.28125 C 36.671875 25.980469 37.441406 25.414062 38.308594 25.105469 C 39.261719 24.765625 40.109375 24.765625 41.117188 24.789062 C 40.070312 23.960938 38.179688 24.316406 36.933594 24.503906 C 36.164062 24.621094 35.410156 24.621094 34.617188 24.660156 C 33.910156 24.699219 33.339844 25 32.644531 24.777344 C 31.867188 24.527344 31.226562 24.207031 30.355469 24.152344 C 28.625 24.042969 26.886719 24.480469 25.277344 25.070312 Z M 25.273438 25.070312 " fill-opacity="0.098" fill-rule="nonzero"/><path fill="#754c29" d="M 9.738281 34.34375 C 11.011719 35.179688 12.40625 35.769531 13.839844 36.296875 C 15.1875 36.789062 16.59375 37.199219 17.992188 37.417969 C 18.71875 37.53125 19.523438 37.429688 20.253906 37.511719 C 21.035156 37.601562 21.808594 37.710938 22.613281 37.710938 C 24.183594 37.710938 25.894531 38.019531 27.421875 37.585938 C 28.886719 37.167969 30.644531 36.902344 32 36.390625 C 34.640625 35.390625 36.820312 33.941406 38.695312 31.609375 C 39.5 30.613281 39.597656 30.027344 40.007812 29.359375 C 39.996094 29.308594 39.960938 29.320312 39.921875 29.273438 L 40.0625 29.570312 C 40.027344 29.511719 39.964844 29.53125 39.960938 29.429688 C 39.738281 29.476562 39.578125 29.691406 39.449219 29.894531 C 39.425781 29.878906 39.421875 29.839844 39.390625 29.835938 C 39.382812 29.832031 39.347656 29.90625 39.320312 29.910156 C 39.285156 29.875 39.246094 29.828125 39.214844 29.789062 C 39.113281 30.042969 39.058594 30.324219 39.015625 30.601562 C 38.941406 30.519531 38.878906 30.519531 38.796875 30.453125 C 38.78125 30.382812 38.773438 30.351562 38.753906 30.3125 C 38.738281 30.566406 38.617188 30.804688 38.546875 31.042969 C 38.53125 31.039062 38.4375 31.039062 38.421875 31.042969 C 38.378906 30.902344 38.292969 30.816406 38.234375 30.707031 C 38.175781 30.988281 38.140625 31.285156 38.082031 31.574219 C 37.980469 31.445312 37.898438 31.339844 37.785156 31.214844 C 37.679688 31.429688 37.703125 31.683594 37.695312 31.921875 C 37.664062 31.90625 37.652344 31.863281 37.621094 31.84375 C 37.609375 31.949219 37.535156 32.113281 37.527344 32.183594 C 37.433594 32.054688 37.367188 31.917969 37.328125 31.757812 C 37.359375 32.046875 37.269531 32.285156 37.28125 32.566406 C 37.210938 32.304688 37.109375 32.007812 36.867188 31.894531 C 36.835938 32.230469 36.886719 32.550781 36.953125 32.859375 C 36.890625 32.609375 36.808594 32.351562 36.628906 32.1875 C 36.617188 32.511719 36.527344 32.78125 36.625 33.105469 C 36.589844 33.0625 36.546875 33.003906 36.527344 32.96875 C 36.347656 33.140625 36.417969 33.675781 36.527344 33.714844 L 36.527344 33.765625 C 36.332031 33.722656 36.261719 33.363281 36.027344 33.140625 C 35.992188 33.691406 35.863281 33.445312 35.761719 33.902344 C 35.738281 33.90625 35.691406 33.917969 35.675781 33.941406 C 35.609375 33.789062 35.578125 33.613281 35.582031 33.433594 C 35.585938 33.609375 35.585938 33.785156 35.574219 33.957031 C 35.550781 33.890625 35.429688 33.777344 35.394531 33.710938 C 35.171875 34.003906 35.160156 34.292969 34.96875 34.097656 C 34.949219 34.421875 34.722656 34.25 34.632812 34.546875 C 34.308594 34.410156 34.632812 34.667969 34.308594 34.410156 C 34.289062 34.882812 34.179688 34.449219 34.019531 34.890625 C 34.007812 34.886719 33.871094 34.890625 33.847656 34.890625 C 33.820312 34.851562 33.816406 34.808594 33.789062 34.769531 C 33.777344 34.890625 33.738281 34.988281 33.746094 35.128906 C 33.722656 35.027344 33.640625 34.929688 33.609375 34.855469 C 33.523438 36.046875 32.984375 35.503906 32.847656 35.246094 C 32.984375 35.507812 32.664062 35.097656 32.589844 35.363281 C 32.558594 35.484375 32.527344 35.742188 32.4375 35.832031 C 32.335938 35.9375 32.167969 35.78125 32.035156 35.953125 C 32.007812 35.960938 31.882812 35.9375 31.855469 35.933594 C 31.839844 35.933594 31.761719 36.066406 31.8125 36.015625 C 31.816406 35.980469 31.816406 35.949219 31.800781 35.917969 C 31.796875 35.925781 31.691406 36.042969 31.65625 36.097656 C 31.511719 35.976562 31.347656 36.050781 31.246094 36.191406 C 30.890625 36 30.792969 36.066406 30.785156 35.691406 C 30.800781 36.3125 30.65625 36.316406 30.214844 36.667969 C 30.167969 36.386719 30.152344 36.066406 30.0625 35.804688 C 30.046875 36.144531 30.085938 36.542969 29.683594 36.574219 C 29.558594 36.332031 29.539062 35.96875 29.535156 35.695312 C 29.460938 35.9375 29.578125 36.390625 29.371094 36.570312 C 29.03125 36.867188 28.859375 36.484375 28.875 36.136719 C 28.738281 36.332031 28.710938 36.644531 28.589844 36.867188 C 28.539062 36.835938 28.496094 36.785156 28.453125 36.734375 C 28.410156 36.683594 28.179688 36.753906 28.085938 36.589844 C 27.980469 36.730469 27.84375 36.855469 27.746094 37.003906 C 27.570312 37.007812 27.40625 36.941406 27.292969 36.824219 C 27.277344 36.953125 27.277344 37.082031 27.257812 37.203125 C 27.152344 37.207031 26.683594 36.871094 26.757812 36.753906 C 26.742188 36.777344 26.582031 37.003906 26.585938 37.003906 C 26.566406 36.988281 26.503906 36.867188 26.492188 36.835938 C 26.472656 36.835938 26.488281 36.945312 26.445312 36.914062 C 26.425781 36.753906 26.351562 36.726562 26.289062 36.621094 C 26.246094 36.726562 26.191406 36.820312 26.113281 36.898438 C 26.054688 36.835938 26.015625 36.722656 26.046875 36.632812 C 26.007812 36.738281 25.914062 36.921875 25.878906 37.054688 C 25.886719 37.023438 25.824219 36.960938 25.804688 36.949219 C 25.53125 37.035156 25.003906 36.503906 24.941406 36.921875 C 24.835938 36.832031 24.761719 36.6875 24.648438 36.585938 C 24.632812 36.652344 24.613281 36.699219 24.59375 36.753906 C 24.601562 36.734375 24.375 36.550781 24.347656 36.53125 C 24.375 36.632812 24.367188 36.769531 24.390625 36.859375 C 24.289062 36.671875 24.246094 36.445312 24.121094 36.273438 C 24.097656 36.375 24.019531 36.484375 24.019531 36.621094 C 23.992188 36.550781 23.871094 36.398438 23.839844 36.324219 C 23.816406 36.382812 23.71875 36.496094 23.695312 36.5625 C 23.683594 36.5 23.613281 36.40625 23.59375 36.335938 C 23.480469 36.484375 23.3125 36.546875 23.132812 36.480469 L 23.226562 36.675781 C 23.007812 36.453125 22.703125 36.226562 22.710938 36.722656 C 22.527344 36.515625 22.234375 36.535156 22.226562 36.871094 C 22.234375 36.394531 21.710938 36.535156 21.589844 36.835938 C 21.5 36.816406 21.441406 36.761719 21.386719 36.683594 C 21.332031 36.691406 21.140625 36.75 21.0625 36.78125 C 21.058594 36.839844 21.054688 36.902344 21.046875 36.960938 C 20.992188 36.785156 20.941406 36.652344 20.789062 36.554688 C 20.734375 37.003906 20.308594 37.019531 20.039062 36.699219 C 20.03125 36.824219 19.917969 36.941406 19.898438 37.042969 C 19.722656 36.933594 19.617188 36.714844 19.441406 36.589844 C 19.289062 36.59375 19.210938 36.558594 19.125 36.386719 C 19.085938 36.433594 18.980469 36.484375 18.945312 36.527344 C 18.898438 36.371094 18.796875 36.246094 18.660156 36.207031 C 18.558594 36.53125 18.542969 36.722656 18.136719 36.605469 C 18.09375 36.472656 18.019531 36.332031 17.914062 36.234375 C 17.914062 36.234375 17.914062 36.234375 17.910156 36.234375 C 17.855469 36.578125 17.707031 36.5 17.507812 36.492188 C 17.605469 36.496094 17.148438 36.226562 17.199219 36.382812 C 17.144531 36.210938 17.078125 36.191406 16.960938 36.109375 C 16.964844 36.277344 16.886719 36.335938 16.824219 36.46875 C 16.636719 36.296875 16.617188 36.03125 16.441406 35.917969 C 16.378906 36.152344 16.378906 36.421875 16.257812 36.613281 C 16.171875 36.550781 15.675781 36.109375 15.726562 35.988281 C 15.648438 36.144531 15.632812 36.332031 15.625 36.511719 C 15.207031 36.09375 15.335938 36.285156 15.230469 35.730469 C 14.964844 35.917969 14.761719 35.757812 14.683594 36.078125 C 14.5 35.984375 14.492188 35.742188 14.320312 35.59375 C 14.226562 35.769531 14.136719 35.964844 14.128906 36.164062 C 13.65625 35.78125 13.75 35.601562 13.625 35.054688 C 13.339844 35.152344 13.144531 34.941406 13.125 35.238281 C 13.082031 35.226562 13.046875 35.214844 13.003906 35.199219 C 12.992188 35.300781 12.910156 35.472656 12.910156 35.539062 C 12.875 35.367188 12.785156 35.226562 12.660156 35.140625 C 12.628906 35.183594 12.585938 35.230469 12.554688 35.289062 C 12.507812 35.222656 12.453125 35.199219 12.417969 35.105469 C 12.429688 35.136719 11.882812 34.6875 11.871094 34.683594 C 11.664062 34.605469 11.507812 34.507812 11.566406 34.925781 C 11.546875 34.792969 10.5625 34.324219 10.40625 34.1875 C 10.140625 33.953125 9.894531 33.683594 9.78125 33.339844 C 9.726562 33.402344 9.617188 33.4375 9.566406 33.5 C 9.527344 33.429688 9.492188 33.328125 9.492188 33.246094 C 9.425781 33.3125 9.367188 33.300781 9.304688 33.425781 C 9.257812 33.332031 9.175781 33.160156 9.125 33.039062 C 9.09375 33.101562 9.011719 33.191406 8.980469 33.269531 C 8.984375 33.019531 9.0625 32.714844 8.84375 32.566406 C 8.785156 32.683594 8.632812 32.8125 8.558594 32.902344 C 8.414062 32.617188 8.136719 31.703125 8.230469 31.394531 C 8.050781 32 7.785156 31.601562 7.558594 31.324219 C 6.648438 31.785156 6.976562 30.742188 6.445312 30.472656 C 6.453125 30.574219 6.417969 30.695312 6.429688 30.796875 C 6.328125 30.734375 6.21875 30.585938 6.15625 30.441406 C 6.15625 30.441406 6.089844 30.464844 6.070312 30.460938 C 6.050781 30.316406 5.980469 30.1875 5.953125 30.042969 C 5.683594 30.113281 5.59375 29.328125 5.363281 29.136719 C 5.347656 29.269531 5.285156 29.332031 5.257812 29.449219 C 5.230469 29.390625 5.214844 29.296875 5.203125 29.230469 C 5.21875 29.222656 5.046875 29.304688 5.066406 29.304688 C 5.03125 29.027344 4.808594 28.8125 4.726562 28.566406 C 4.699219 28.546875 4.6875 28.601562 4.652344 28.601562 C 4.585938 28.320312 4.3125 28.003906 4.132812 27.847656 C 4.167969 28.757812 5.015625 29.511719 5.53125 30.238281 C 5.785156 30.597656 6.050781 30.976562 6.355469 31.316406 C 7.355469 32.441406 8.464844 33.515625 9.738281 34.34375 Z M 9.738281 34.34375 " fill-opacity="0.098" fill-rule="nonzero"/><path fill="#ffffff" d="M 9.574219 26.289062 C 9.574219 25.78125 9.480469 25.269531 9.859375 24.882812 C 9.832031 25.109375 9.878906 25.34375 9.871094 25.566406 C 10.414062 25.304688 10.503906 24.355469 11.1875 24.363281 C 11.191406 25.023438 10.417969 25.769531 10.792969 26.40625 C 10.9375 26.203125 11.050781 25.984375 11.128906 25.742188 C 11.230469 25.925781 11.324219 25.847656 11.351562 26.136719 C 11.488281 26.15625 11.460938 26.09375 11.554688 26.027344 C 11.582031 26.050781 11.515625 26.15625 11.605469 26.140625 C 11.867188 25.207031 12.714844 24.433594 13.597656 24.148438 C 13.265625 24.707031 12.742188 25.261719 12.496094 25.863281 C 12.59375 25.789062 12.808594 25.722656 12.890625 25.65625 C 12.660156 26.074219 12.371094 26.953125 12.066406 27.210938 C 11.980469 26.996094 11.882812 26.863281 11.910156 26.601562 C 11.730469 26.742188 11.550781 26.878906 11.394531 27.066406 C 11.359375 27.039062 11.296875 26.972656 11.253906 26.945312 C 10.902344 27.117188 10.195312 27.765625 10.265625 26.796875 C 10.1875 26.882812 10.023438 26.917969 9.945312 26.996094 C 9.773438 26.773438 9.640625 26.574219 9.441406 26.417969 C 9.425781 26.355469 9.453125 26.273438 9.429688 26.21875 " fill-opacity="1" fill-rule="nonzero"/><path fill="#ffffff" d="M 14.453125 25.5 C 13.960938 25.679688 13.570312 27.195312 13.835938 27.640625 C 13.890625 27.582031 14.027344 27.5 14.082031 27.441406 C 14.144531 27.484375 14.128906 27.597656 14.1875 27.640625 C 14.226562 27.640625 14.265625 27.628906 14.300781 27.605469 C 14.285156 27.789062 14.347656 28.007812 14.308594 28.199219 C 14.335938 28.195312 14.355469 28.109375 14.386719 28.105469 C 14.382812 28.421875 14.234375 29.441406 14.539062 29.640625 C 14.976562 29.925781 15.078125 29.015625 15.359375 28.878906 C 15.34375 29.070312 15.410156 29.292969 15.371094 29.488281 C 15.417969 29.460938 15.457031 29.402344 15.5 29.375 C 15.601562 29.96875 15.339844 30.503906 15.527344 31.082031 C 15.886719 30.746094 15.933594 29.863281 16.152344 29.367188 C 16.378906 28.839844 16.726562 28.277344 16.773438 27.730469 C 16.332031 27.898438 16.28125 28.34375 16.066406 28.714844 C 15.964844 28.722656 15.960938 28.679688 15.871094 28.660156 C 15.804688 28.773438 15.652344 28.910156 15.601562 29.003906 C 15.394531 27.871094 16.28125 27.035156 16.277344 26.007812 C 15.914062 26.316406 15.71875 26.757812 15.527344 27.199219 C 15.476562 26.605469 15.5 25.636719 15.644531 25.078125 C 15.402344 25.273438 15.175781 25.539062 15.074219 25.851562 C 14.78125 25.65625 14.882812 25.3125 14.933594 25.007812 C 14.707031 25.167969 14.511719 25.382812 14.367188 25.636719 C 14.261719 25.652344 14.265625 25.59375 14.171875 25.574219 " fill-opacity="1" fill-rule="nonzero"/><path fill="#ffffff" d="M 17.921875 27.148438 C 17.492188 28.519531 16.984375 29.324219 17.085938 30.867188 C 17.363281 30.539062 17.457031 30.011719 17.691406 29.660156 C 17.707031 29.773438 17.746094 29.882812 17.800781 29.980469 C 17.851562 29.933594 17.925781 29.886719 17.96875 29.835938 C 17.976562 29.996094 18.085938 30.171875 18.082031 30.34375 C 18.140625 30.304688 18.148438 30.28125 18.210938 30.296875 C 18.578125 29.460938 18.558594 28.277344 19.066406 27.519531 C 19.652344 26.648438 19.71875 27.605469 19.964844 28.300781 C 20.09375 27.949219 20.316406 27.679688 20.542969 27.386719 C 20.535156 27.851562 20.519531 28.328125 20.554688 28.789062 C 20.566406 28.742188 20.652344 28.59375 20.683594 28.503906 C 20.679688 28.449219 20.679688 28.449219 20.675781 28.503906 C 20.742188 28.589844 20.75 28.679688 20.765625 28.789062 C 20.773438 28.773438 20.96875 28.585938 20.890625 28.644531 C 20.890625 29.042969 20.894531 29.445312 20.886719 29.847656 C 21.15625 29.355469 21.183594 28.707031 21.527344 28.285156 C 21.949219 29.242188 20.714844 31.097656 20.824219 32.28125 C 20.371094 32.058594 20.46875 31.472656 20.453125 31.027344 C 20.421875 31.023438 20.402344 31.035156 20.390625 31.0625 C 20.402344 30.925781 20.390625 30.796875 20.378906 30.664062 C 20.359375 30.734375 20.222656 30.90625 20.183594 30.996094 C 20.136719 30.902344 20.027344 30.808594 19.984375 30.738281 C 19.914062 31.0625 19.800781 31.421875 19.671875 31.722656 C 18.796875 30.859375 19.402344 29.246094 19.304688 28.160156 C 19.28125 27.914062 19.253906 27.0625 18.96875 26.9375 C 18.625 26.785156 18.433594 27.371094 18.257812 27.589844 C 18.0625 27.171875 18.257812 26.738281 18.1875 26.296875 C 17.785156 26.734375 17.492188 27.898438 17.355469 28.4375 " fill-opacity="1" fill-rule="nonzero"/><path fill="#ffffff" d="M 22.589844 27.792969 C 22.738281 27.96875 22.71875 28.078125 22.933594 28.164062 C 22.9375 28.210938 22.925781 28.304688 22.941406 28.34375 C 22.90625 28.15625 22.945312 27.917969 22.957031 27.730469 C 23.253906 27.847656 23.367188 28.765625 23.4375 29.132812 C 23.417969 28.914062 23.4375 28.683594 23.433594 28.464844 C 23.484375 28.640625 23.589844 28.808594 23.652344 28.984375 C 23.648438 28.382812 23.671875 27.867188 24.023438 27.375 C 24.335938 27.652344 24.457031 28.410156 24.429688 28.847656 C 24.398438 28.535156 24.410156 28.175781 24.554688 27.941406 C 24.765625 28.636719 24.832031 29.363281 24.996094 30.066406 C 24.996094 29.933594 25.042969 29.726562 25.050781 29.660156 C 25.089844 29.742188 25.066406 29.851562 25.082031 29.9375 C 25.089844 29.925781 25.160156 29.792969 25.191406 29.804688 C 25.257812 30.515625 25.460938 31.40625 25.695312 32.078125 C 25.191406 32.03125 24.867188 31.441406 24.582031 31.09375 C 24.5625 31.25 24.464844 31.347656 24.433594 31.457031 C 24.191406 31.285156 24.113281 31.019531 23.988281 30.738281 C 23.671875 30.863281 23.546875 30.542969 23.492188 30.257812 C 23.429688 30.257812 23.34375 30.347656 23.296875 30.382812 C 23.230469 30.328125 23.183594 30.246094 23.097656 30.234375 C 23.074219 30.652344 23.125 31.09375 23.015625 31.492188 C 22.203125 30.484375 22.375 28.855469 22.375 27.578125 " fill-opacity="1" fill-rule="nonzero"/><path fill="#ffffff" d="M 25.84375 27.578125 C 25.847656 28.734375 25.941406 30.382812 26.75 31.226562 C 26.839844 30.75 26.675781 30.230469 26.707031 29.734375 C 26.976562 29.964844 27.03125 30.355469 27.386719 30.433594 C 27.382812 30.328125 27.414062 30.203125 27.414062 30.09375 C 27.617188 30.382812 28.109375 30.53125 28.453125 30.648438 C 28.335938 30.222656 28.089844 29.800781 27.964844 29.359375 C 28.023438 29.453125 28.273438 29.78125 28.449219 29.933594 C 28.046875 28.792969 27.238281 27.765625 26.90625 26.605469 C 26.765625 26.992188 26.746094 27.820312 26.910156 28.195312 C 26.671875 27.910156 26.558594 27.574219 26.40625 27.246094 C 26.414062 27.285156 26.410156 27.320312 26.394531 27.355469 C 26.335938 27.359375 26.335938 27.277344 26.28125 27.296875 C 26.246094 27.558594 26.28125 27.808594 26.339844 28.058594 C 26.316406 27.726562 26.207031 27.453125 26.003906 27.175781 C 25.957031 27.1875 25.910156 27.230469 25.855469 27.234375 C 25.835938 27.300781 25.859375 27.367188 25.84375 27.433594 " fill-opacity="1" fill-rule="nonzero"/><path fill="#ffffff" d="M 27.964844 26.648438 C 28 27.75 28.773438 29.675781 29.597656 30.417969 C 29.578125 30.0625 29.320312 29.699219 29.59375 29.433594 C 29.71875 29.574219 29.960938 29.632812 30.074219 29.71875 C 30.078125 29.632812 30.09375 29.535156 30.097656 29.449219 C 30.175781 29.5 30.425781 29.523438 30.5 29.574219 C 30.457031 29.433594 30.503906 29.234375 30.449219 29.09375 C 30.597656 29.152344 30.792969 29.132812 30.929688 29.21875 C 30.722656 28.441406 30.210938 27.722656 30.085938 26.957031 C 30.5625 27.472656 31.230469 27.742188 31.703125 28.195312 C 31.175781 27.195312 30.492188 26.386719 29.660156 25.597656 C 29.625 26.078125 29.769531 26.449219 29.878906 26.871094 C 29.914062 26.941406 29.761719 26.671875 29.75 26.652344 C 29.75 26.664062 29.722656 26.839844 29.738281 26.835938 C 29.433594 26.613281 29.226562 26.34375 29.023438 26.027344 C 29.058594 26.535156 29.203125 26.96875 29.296875 27.425781 C 29.035156 27.183594 28.765625 26.796875 28.667969 26.457031 C 28.613281 26.734375 28.59375 27.023438 28.660156 27.285156 C 28.515625 27.085938 28.28125 26.707031 28.179688 26.574219 " fill-opacity="1" fill-rule="nonzero"/><path fill="#ffffff" d="M 30.582031 24.785156 C 30.519531 24.789062 30.457031 24.785156 30.394531 24.78125 C 31.210938 25.351562 31.539062 26.375 32 27.195312 C 31.996094 26.851562 31.996094 26.507812 31.996094 26.167969 C 31.984375 26.78125 32.332031 26.921875 32.691406 27.210938 C 32.738281 26.859375 32.589844 26.589844 32.558594 26.246094 C 32.925781 26.550781 33.464844 27.019531 33.898438 27.140625 C 33.820312 26.398438 33.359375 25.554688 32.773438 25.023438 C 32.804688 25.277344 32.863281 25.515625 32.921875 25.761719 C 32.589844 25.296875 32.332031 24.804688 31.863281 24.507812 C 31.953125 24.75 32.023438 25.027344 32.128906 25.277344 C 31.886719 25.101562 31.75 24.535156 31.523438 24.40625 C 31.066406 24.148438 31.101562 24.617188 31.347656 24.898438 C 31.378906 24.8125 31.304688 25.011719 31.292969 25.046875 C 31.027344 24.761719 30.703125 24.269531 30.3125 24.292969 C 30.273438 24.796875 30.375 25.207031 30.867188 25.429688 " fill-opacity="1" fill-rule="nonzero"/><path fill="#ffffff" d="M 33.695312 24.496094 C 34.183594 25.210938 34.691406 26.292969 35.238281 26.925781 C 35.214844 26.78125 35.277344 26.589844 35.261719 26.4375 C 35.320312 26.414062 35.390625 26.492188 35.453125 26.496094 C 35.503906 26.410156 35.4375 26.328125 35.515625 26.242188 C 35.601562 26.253906 35.628906 26.308594 35.738281 26.277344 C 35.765625 25.414062 34.425781 24.414062 33.695312 24.210938 " fill-opacity="1" fill-rule="nonzero"/><path fill="#754c29" d="M 13.335938 19.203125 C 13.851562 19.476562 14.445312 19.796875 15.007812 19.976562 C 14.992188 19.65625 14.894531 19.332031 14.890625 19.007812 C 15.265625 19.179688 15.542969 19.476562 15.855469 19.691406 C 15.871094 19.226562 15.429688 18.394531 15.867188 18.113281 C 16.222656 18.402344 17.101562 19.492188 17.300781 18.484375 C 17.46875 18.714844 17.6875 18.953125 17.980469 18.96875 C 17.996094 18.824219 18.113281 18.679688 18.128906 18.558594 C 18.359375 18.765625 18.640625 19.011719 18.898438 19.1875 C 19.003906 18.417969 18.449219 17.730469 18.855469 16.984375 C 19.246094 17.289062 19.164062 18.554688 19.957031 18.320312 C 20.238281 18.238281 20.257812 17.632812 20.535156 17.613281 C 20.890625 17.59375 20.941406 18.214844 21.105469 18.417969 C 21.285156 17.976562 21.59375 17.984375 21.742188 18.449219 C 22.144531 17.941406 22.542969 17.230469 22.800781 16.644531 C 23.195312 17.152344 23.621094 17.792969 23.644531 18.457031 C 23.675781 18.253906 23.78125 18 23.84375 17.839844 C 24.023438 18.160156 24.121094 19.167969 24.625 19.042969 C 24.941406 18.964844 25.378906 17.78125 25.632812 17.539062 C 25.910156 17.828125 25.792969 18.257812 25.933594 18.617188 C 25.980469 18.492188 26.207031 18.308594 26.265625 18.183594 C 26.332031 18.3125 26.558594 18.511719 26.605469 18.617188 C 26.882812 18.109375 27.289062 17.3125 27.808594 17.054688 C 27.878906 18.121094 27.460938 18.941406 27.167969 19.902344 C 27.140625 19.929688 27.140625 19.925781 27.164062 19.898438 C 27.722656 19.328125 28.292969 18.574219 28.941406 18.128906 C 29.011719 18.53125 28.929688 18.972656 28.742188 19.3125 C 28.777344 19.011719 28.839844 18.988281 29.085938 18.921875 C 29.113281 19.105469 29.214844 19.273438 29.183594 19.476562 C 29.308594 19.285156 29.488281 19.257812 29.722656 19.207031 C 29.75 19.484375 29.671875 19.734375 29.601562 19.972656 C 30.390625 19.90625 30.644531 19.003906 31.277344 18.707031 C 31.4375 19.050781 31.429688 19.464844 31.394531 19.835938 C 31.386719 19.941406 31.371094 20.800781 31.316406 20.816406 C 31.355469 20.804688 31.417969 20.8125 31.453125 20.800781 C 31.371094 20.878906 31.082031 21.347656 31.082031 21.484375 C 31.300781 21.46875 31.605469 21.371094 31.804688 21.277344 C 31.710938 21.386719 31.148438 22.085938 31.523438 22.015625 C 31.515625 22.136719 31.429688 22.222656 31.433594 22.34375 C 31.476562 22.332031 31.546875 22.339844 31.589844 22.324219 C 31.5 22.503906 31.246094 22.496094 31.097656 22.585938 C 31.1875 22.730469 31.363281 22.742188 31.472656 22.851562 C 31.570312 22.941406 31.75 23.1875 31.617188 23.269531 C 31.511719 23.335938 31.070312 23.148438 30.941406 23.132812 C 30.679688 23.089844 30.414062 23.09375 30.136719 23.066406 C 29.875 23.039062 29.632812 22.957031 29.378906 22.890625 C 29.144531 22.835938 28.855469 22.707031 28.625 22.691406 C 28.53125 22.6875 28.347656 22.71875 28.25 22.742188 C 28.1875 22.753906 28 22.878906 27.964844 22.875 C 27.257812 22.800781 26.90625 22.824219 26.574219 22.933594 C 26.019531 23.464844 26.546875 22.4375 25.84375 22.675781 C 25.675781 21.929688 24.722656 21.734375 24.085938 21.789062 C 23.816406 22.101562 21.257812 21.683594 20.613281 21.777344 C 19.976562 21.875 19.792969 22.53125 19.238281 22.71875 C 19.09375 22.769531 18.96875 22.742188 18.820312 22.730469 C 18.566406 22.714844 18.390625 22.773438 18.132812 22.835938 C 17.605469 22.964844 17.066406 23.015625 16.527344 23.042969 C 15.761719 23.078125 15.042969 23.121094 14.289062 23.160156 C 13.800781 23.183594 13.304688 23.265625 12.808594 23.257812 C 13.144531 23.230469 13.492188 23.09375 13.835938 23.039062 C 13.816406 22.882812 13.488281 22.816406 13.378906 22.679688 C 13.640625 22.6875 14.144531 22.773438 14.339844 22.585938 C 13.976562 22.230469 13.683594 22.015625 13.472656 21.535156 C 13.691406 21.636719 13.988281 21.878906 14.238281 21.84375 C 14.226562 21.816406 14.230469 21.785156 14.214844 21.75 C 14.351562 21.613281 14.632812 21.777344 14.804688 21.769531 C 14.476562 21.304688 13.605469 21.019531 13.699219 20.277344 C 13.695312 20.308594 13.996094 20.472656 14.027344 20.496094 C 13.71875 20.101562 13.40625 19.722656 13.335938 19.203125 Z M 13.335938 19.203125 " fill-opacity="0.098" fill-rule="nonzero"/><g mask="url(#fe6a4cb063)"><g transform="matrix(1, 0, 0, 1, 9, 8)"><g clip-path="url(#7a87d6ddf2)"><g clip-path="url(#0713e4e2d7)"><path fill="#ffffff" d="M 0.273438 7.433594 C 0.238281 8.027344 0.933594 9.21875 1.488281 9.386719 C 1.484375 9.160156 1.332031 8.96875 1.222656 8.78125 C 1.277344 8.777344 1.339844 8.761719 1.398438 8.761719 C 1.484375 8.429688 1.054688 8.007812 0.933594 7.722656 C 0.773438 7.355469 0.601562 6.996094 0.328125 6.722656 C 0.304688 7.089844 0.296875 7.605469 0.414062 7.910156 " fill-opacity="1" fill-rule="nonzero"/></g><g clip-path="url(#e8d96ff0ca)"><path fill="#ffffff" d="M 0.886719 5.234375 C 0.886719 5.777344 0.863281 6.261719 1.132812 6.714844 C 1.3125 7.015625 1.796875 7.714844 2.101562 7.808594 C 2.050781 7.582031 1.816406 7.433594 1.789062 7.199219 C 1.832031 7.242188 1.949219 7.289062 2.015625 7.363281 C 2.144531 7.125 1.6875 6.535156 1.582031 6.296875 C 1.398438 5.875 1.277344 5.5 1.167969 5.042969 " fill-opacity="1" fill-rule="nonzero"/></g><path fill="#ffffff" d="M 3.339844 7.765625 C 3.375 8.097656 3.707031 8.363281 4.039062 8.285156 C 4.066406 7.96875 3.425781 7.820312 3.242188 7.527344 " fill-opacity="1" fill-rule="nonzero"/><path fill="#ffffff" d="M 2.015625 4.519531 C 1.980469 4.476562 1.925781 4.4375 1.875 4.390625 C 1.835938 4.835938 2.230469 6.023438 2.667969 6.136719 C 2.679688 5.914062 2.625 5.707031 2.542969 5.53125 C 2.570312 5.523438 2.59375 5.519531 2.621094 5.515625 C 2.625 5.414062 2.625 5.304688 2.628906 5.203125 C 2.589844 5.660156 3.308594 6.445312 3.710938 6.515625 C 3.425781 6.175781 3.148438 5.804688 3.148438 5.351562 C 3.152344 5.367188 3.167969 5.375 3.1875 5.371094 C 3.117188 4.84375 3.039062 4.277344 2.78125 3.769531 C 2.710938 4.074219 2.652344 4.386719 2.71875 4.703125 C 2.703125 4.699219 2.605469 4.699219 2.589844 4.703125 C 2.585938 4.566406 2.5 4.46875 2.480469 4.332031 C 2.433594 4.332031 2.402344 4.363281 2.355469 4.371094 C 2.257812 4.238281 2.128906 4.148438 1.976562 4.09375 C 1.96875 4.207031 1.949219 4.355469 1.96875 4.472656 " fill-opacity="1" fill-rule="nonzero"/><path fill="#ffffff" d="M 3.386719 3.515625 C 3.390625 3.378906 3.410156 3.871094 3.433594 3.992188 C 3.476562 4.207031 3.535156 4.410156 3.585938 4.613281 C 3.6875 5.039062 3.878906 5.277344 4.007812 5.65625 C 4.261719 6.378906 4.546875 6.914062 5.167969 7.425781 C 5.207031 7.21875 4.980469 6.9375 4.894531 6.765625 C 4.78125 6.542969 4.667969 6.292969 4.550781 6.046875 C 4.308594 5.535156 4.171875 4.847656 4.136719 4.296875 C 4.34375 4.550781 4.417969 4.769531 4.613281 4.980469 C 4.570312 4.207031 4.28125 3.203125 3.894531 2.574219 C 3.777344 2.972656 3.964844 3.371094 3.949219 3.789062 C 3.9375 3.761719 3.910156 3.667969 3.902344 3.652344 C 3.90625 3.644531 3.835938 3.804688 3.847656 3.796875 C 3.671875 3.683594 3.628906 3.488281 3.613281 3.285156 C 3.546875 3.230469 3.511719 3.207031 3.433594 3.179688 " fill-opacity="1" fill-rule="nonzero"/><path fill="#ffffff" d="M 5.128906 3.371094 C 5.105469 3.359375 4.976562 2.808594 4.761719 2.710938 C 4.703125 3.742188 4.765625 4.75 5.261719 5.578125 C 5.710938 6.332031 5.746094 7.210938 6.535156 7.761719 C 6.554688 7.453125 6.25 7.171875 6.15625 6.871094 C 6.070312 6.601562 6.027344 6.289062 5.988281 6.015625 C 6.113281 6.183594 6.160156 6.382812 6.261719 6.566406 C 6.296875 6.542969 6.355469 6.511719 6.394531 6.484375 C 6.429688 6.640625 6.480469 6.765625 6.554688 6.902344 C 6.921875 6.371094 6.546875 5.585938 6.402344 5.042969 C 6.238281 4.414062 6.269531 3.714844 6.046875 3.089844 C 6.296875 3.359375 6.523438 4.0625 6.816406 4.179688 C 6.875 3.914062 6.707031 3.386719 6.503906 3.269531 C 6.40625 2.765625 6.359375 1.585938 6.035156 1.226562 C 5.953125 1.691406 5.816406 2.445312 6.03125 2.878906 C 5.953125 2.582031 5.699219 1.589844 5.46875 1.515625 C 5.394531 1.894531 5.867188 2.738281 5.566406 2.949219 C 5.527344 2.976562 5.574219 3.042969 5.554688 3.070312 C 5.542969 3.039062 5.5625 2.992188 5.558594 2.960938 C 5.316406 3.554688 6.042969 4.738281 5.65625 5.183594 C 5.4375 4.246094 5.132812 3.414062 4.707031 2.65625 " fill-opacity="1" fill-rule="nonzero"/><g clip-path="url(#80e8c26347)"><path fill="#ffffff" d="M 6.6875 1.078125 C 6.445312 1.949219 6.902344 2.878906 7.15625 3.660156 C 7.296875 4.089844 7.457031 4.519531 7.535156 4.949219 C 7.609375 5.359375 7.554688 5.917969 7.855469 6.234375 C 7.921875 5.210938 7.726562 4.425781 7.394531 3.515625 C 7.210938 3.003906 7.09375 2.691406 7.0625 2.128906 C 7.039062 1.640625 7.039062 1.191406 6.640625 0.9375 " fill-opacity="1" fill-rule="nonzero"/></g><g clip-path="url(#8f71e12639)"><path fill="#ffffff" d="M 7.253906 0.648438 C 7.285156 0.9375 7.507812 1.597656 7.8125 1.695312 C 7.824219 1.4375 7.707031 0.96875 8 0.894531 C 7.980469 1.03125 8.054688 1.15625 8.066406 1.265625 C 8.101562 1.226562 8.195312 1.171875 8.230469 1.132812 C 8.292969 1.386719 8.378906 1.589844 8.535156 1.792969 C 8.65625 1.65625 8.730469 1.382812 8.820312 1.179688 C 8.957031 1.308594 9.144531 1.292969 9.195312 1.503906 C 9.234375 1.476562 9.363281 1.457031 9.414062 1.417969 C 9.410156 1.53125 9.472656 1.59375 9.476562 1.695312 C 9.507812 1.699219 9.675781 1.699219 9.695312 1.695312 C 9.714844 1.59375 9.789062 1.523438 9.808594 1.421875 C 9.953125 1.542969 9.902344 1.710938 9.996094 1.84375 C 10.113281 2.011719 10.316406 1.917969 10.324219 2.21875 C 10.390625 2.210938 10.480469 2.238281 10.546875 2.234375 C 10.570312 2.648438 10.566406 3.3125 10.96875 3.511719 C 10.996094 3.042969 10.910156 2.585938 10.976562 2.132812 C 11.019531 1.847656 11.308594 0.835938 10.65625 1.171875 C 10.664062 1.0625 10.59375 0.992188 10.59375 0.898438 C 10.335938 0.9375 10.148438 0.804688 9.902344 0.785156 C 9.703125 0.476562 8.796875 0.359375 8.429688 0.359375 C 7.902344 0.359375 7.359375 0.707031 6.828125 0.746094 " fill-opacity="1" fill-rule="nonzero"/></g><path fill="#ffffff" d="M 8.382812 3.085938 C 8.324219 3 8.21875 2.910156 8.144531 2.816406 C 8.160156 3.8125 7.867188 5.175781 8.609375 5.949219 C 8.671875 5.484375 8.476562 5.011719 8.476562 4.519531 C 8.476562 3.996094 8.324219 3.441406 8.382812 2.941406 " fill-opacity="1" fill-rule="nonzero"/><path fill="#ffffff" d="M 8.855469 1.988281 C 8.867188 3.238281 8.417969 4.660156 9.460938 5.699219 C 9.4375 5.082031 9.167969 4.472656 9.140625 3.851562 C 9.109375 3.242188 9.113281 2.566406 8.761719 2.082031 " fill-opacity="1" fill-rule="nonzero"/><path fill="#ffffff" d="M 11.085938 1.769531 C 11.0625 2.234375 10.8125 2.722656 10.789062 3.179688 C 10.773438 3.535156 10.789062 3.890625 10.835938 4.230469 C 10.878906 4.558594 11.03125 4.898438 10.972656 5.230469 C 10.957031 5.300781 10.535156 4.714844 10.511719 4.675781 C 10.371094 4.390625 10.28125 4.078125 10.203125 3.769531 C 10.085938 3.285156 9.902344 2.753906 9.96875 2.25 C 10.011719 1.898438 10.324219 1.167969 10.789062 1.253906 C 11.53125 1.386719 11.230469 3.199219 11.371094 3.683594 C 11.644531 3.675781 11.609375 3.433594 11.636719 3.199219 C 11.699219 3.203125 11.660156 3.195312 11.734375 3.140625 C 12.171875 3.347656 12.011719 2.542969 12.144531 2.324219 C 12.140625 2.554688 12.167969 2.78125 12.257812 2.984375 C 12.402344 2.917969 12.433594 2.960938 12.496094 2.753906 C 12.519531 2.792969 12.652344 2.894531 12.675781 2.9375 C 12.730469 2.820312 12.851562 2.738281 12.90625 2.660156 C 12.882812 2.8125 12.972656 2.890625 13.003906 2.996094 C 13.058594 2.929688 13.230469 2.863281 13.28125 2.804688 C 13.285156 3.007812 13.371094 3.164062 13.5625 3.171875 C 13.582031 3.117188 13.601562 3.0625 13.617188 3.003906 C 13.632812 3.109375 13.703125 3.210938 13.722656 3.316406 C 13.722656 3.316406 13.84375 3.316406 13.847656 3.316406 C 13.882812 3.058594 13.992188 2.628906 14.140625 2.410156 C 14.320312 2.734375 14.335938 3.078125 14.742188 2.9375 C 15.042969 2.832031 14.722656 1.984375 14.6875 1.808594 C 14.613281 1.839844 14.527344 1.847656 14.507812 1.757812 C 13.746094 1.738281 13.054688 1.949219 12.34375 1.796875 C 11.707031 1.660156 11.0625 1.023438 10.410156 1.078125 " fill-opacity="1" fill-rule="nonzero"/><path fill="#ffffff" d="M 15.882812 2.941406 C 15.753906 2.476562 16 1.796875 15.601562 1.457031 C 15.328125 1.777344 15.550781 2.535156 15.550781 2.992188 C 15.550781 3.492188 15.425781 4.285156 15.601562 4.71875 C 16.089844 4.179688 15.964844 2.554688 15.789062 1.890625 " fill-opacity="1" fill-rule="nonzero"/><g clip-path="url(#0ab7b358cb)"><path fill="#ffffff" d="M 16.683594 2.65625 C 16.546875 2.28125 16.945312 1.046875 16.410156 0.992188 C 16.308594 2.171875 16.15625 3.53125 16.546875 4.648438 C 16.636719 4.222656 16.523438 3.8125 16.542969 3.371094 C 16.5625 2.957031 16.714844 2.5625 16.683594 2.128906 " fill-opacity="1" fill-rule="nonzero"/></g><path fill="#ffffff" d="M 17.296875 3.371094 C 17.257812 3.289062 17.210938 3.210938 17.117188 3.1875 C 17.074219 3.617188 16.714844 5.144531 17.289062 5.324219 C 17.316406 5.101562 17.402344 4.867188 17.257812 4.675781 C 17.300781 4.648438 17.339844 4.628906 17.386719 4.605469 C 17.058594 4.257812 17.292969 3.75 17.195312 3.328125 C 17.070312 3.351562 17.089844 3.421875 17.0625 3.515625 " fill-opacity="1" fill-rule="nonzero"/><g clip-path="url(#76ff82e41f)"><path fill="#ffffff" d="M 17.4375 0.746094 C 17.414062 1.15625 17.144531 2.773438 17.472656 2.933594 C 17.667969 2.628906 17.757812 0.566406 17.296875 0.648438 " fill-opacity="1" fill-rule="nonzero"/></g><path fill="#ffffff" d="M 18.050781 3.660156 C 17.800781 3.917969 17.605469 4.980469 17.960938 5.195312 C 18.128906 4.988281 18.019531 4.621094 18.085938 4.363281 C 18.140625 4.175781 18.480469 3.648438 18.003906 3.800781 " fill-opacity="1" fill-rule="nonzero"/><g clip-path="url(#326bf63888)"><path fill="#ffffff" d="M 19.324219 3.085938 C 19.285156 3.652344 19.550781 4.1875 19.46875 4.757812 C 19.402344 5.226562 19.460938 5.824219 19.191406 6.21875 C 18.398438 5.808594 19 4.347656 18.996094 3.671875 C 18.996094 2.757812 19.1875 1.683594 19.015625 0.804688 C 18.667969 1.246094 18.511719 2.195312 18.570312 2.75 " fill-opacity="1" fill-rule="nonzero"/></g><path fill="#ffffff" d="M 19.9375 3.46875 C 19.6875 3.941406 19.605469 5.113281 19.972656 5.515625 C 20.109375 5.265625 20.070312 5 20.085938 4.714844 C 20.164062 4.738281 20.34375 4.820312 20.402344 4.859375 C 20.429688 4.882812 20.40625 4.957031 20.417969 4.988281 C 20.472656 4.988281 20.539062 4.988281 20.59375 5.003906 C 20.609375 5.375 20.617188 5.78125 20.558594 6.132812 C 20.59375 6.121094 20.660156 6.171875 20.679688 6.183594 C 20.710938 6.128906 20.722656 6.058594 20.753906 6.003906 C 20.867188 6.367188 20.292969 6.675781 20.175781 7.003906 C 20.125 7.152344 20.023438 7.625 20.273438 7.628906 C 20.402344 7.628906 20.585938 7.144531 20.644531 7.050781 C 21.058594 6.40625 21.472656 5.019531 21.15625 4.238281 C 21.144531 4.222656 21.101562 4.277344 21.082031 4.273438 C 21.078125 4.195312 21.042969 4.085938 21.035156 4.042969 C 21.023438 4.355469 20.707031 4.691406 20.515625 4.332031 C 20.492188 4.332031 20.507812 4.441406 20.503906 4.457031 C 20.507812 4.394531 20.488281 4.304688 20.496094 4.246094 C 20.449219 4.335938 20.359375 4.410156 20.3125 4.5 C 20.3125 4.445312 20.308594 4.386719 20.308594 4.332031 C 20.304688 4.339844 20.195312 4.433594 20.164062 4.464844 C 20.101562 4.453125 20 4.402344 19.945312 4.367188 C 19.894531 4.046875 20.230469 3.550781 19.9375 3.367188 C 19.699219 3.636719 19.578125 4.582031 19.703125 4.949219 " fill-opacity="1" fill-rule="nonzero"/><path fill="#ffffff" d="M 21.730469 7.242188 C 21.828125 7.207031 21.960938 7.230469 22.054688 7.199219 C 22.101562 7.53125 21.894531 7.503906 21.730469 7.671875 C 21.617188 7.789062 21.433594 8.042969 21.265625 8.09375 C 21.203125 7.542969 21.109375 7.394531 21.34375 6.859375 C 21.519531 6.441406 21.589844 5.964844 22.003906 5.71875 C 22.09375 6.339844 21.496094 6.863281 21.589844 7.480469 " fill-opacity="1" fill-rule="nonzero"/><path fill="#ffffff" d="M 22.34375 3.898438 C 21.945312 3.90625 21.730469 4.6875 21.777344 5.027344 C 22.089844 4.652344 22.410156 4.558594 22.476562 4.046875 C 22.390625 4.011719 22.371094 4.066406 22.296875 4.089844 " fill-opacity="1" fill-rule="nonzero"/><path fill="#ffffff" d="M 23.289062 4.613281 C 22.589844 4.679688 22.640625 6.167969 22.589844 6.710938 C 23.15625 6.019531 23.445312 5.425781 23.335938 4.566406 " fill-opacity="1" fill-rule="nonzero"/><path fill="#ffffff" d="M 23.945312 3.230469 C 24.015625 3.820312 23.652344 4.371094 23.71875 4.941406 C 24.210938 4.890625 24.332031 3.277344 24.042969 2.941406 " fill-opacity="1" fill-rule="nonzero"/><path fill="#ffffff" d="M 24.609375 5.953125 C 24.246094 6.265625 24.253906 6.769531 24.289062 7.285156 C 24.5 7.007812 25.210938 5.949219 24.847656 5.707031 C 24.75 5.742188 24.699219 5.8125 24.65625 5.902344 " fill-opacity="1" fill-rule="nonzero"/><path fill="#ffffff" d="M 23.570312 6 C 23.410156 6.113281 23.308594 6.300781 23.246094 6.476562 C 23.488281 6.542969 23.683594 6.167969 23.789062 5.949219 C 23.707031 5.925781 23.699219 5.984375 23.664062 6 " fill-opacity="1" fill-rule="nonzero"/><path fill="#ffffff" d="M 23.289062 7.242188 C 22.96875 7.328125 22.359375 7.785156 22.214844 8.101562 C 21.890625 8.8125 22.609375 8.933594 22.871094 8.300781 C 23.257812 8.207031 23.40625 7.738281 23.515625 7.394531 C 23.339844 7.214844 23.167969 7.339844 23.050781 7.527344 " fill-opacity="1" fill-rule="nonzero"/><g clip-path="url(#779c8207ba)"><path fill="#ffffff" d="M 25.550781 7.433594 C 25.332031 7.738281 24.039062 8.921875 24.324219 9.203125 C 24.816406 8.769531 25.765625 7.824219 25.777344 7.152344 C 25.605469 7.226562 25.472656 7.402344 25.316406 7.527344 " fill-opacity="1" fill-rule="nonzero"/></g><g clip-path="url(#3d2e26518d)"><path fill="#ffffff" d="M 26.117188 8.054688 C 25.925781 8.324219 25.121094 9.222656 25.457031 9.539062 C 25.757812 9.316406 25.789062 8.96875 25.984375 8.683594 C 26.226562 8.328125 26.519531 8.253906 26.4375 7.722656 C 26.363281 7.765625 26.304688 7.835938 26.257812 7.910156 " fill-opacity="1" fill-rule="nonzero"/></g></g></g></g><path fill="#3c2415" d="M 16.527344 23.042969 C 16.726562 22.863281 18.480469 22.46875 18.789062 22.289062 C 19.089844 22.113281 19.390625 22.074219 19.671875 21.878906 C 20.007812 21.652344 20.113281 21.511719 20.546875 21.511719 C 20.972656 21.515625 21.21875 21.503906 21.628906 21.371094 C 21.988281 21.253906 22.308594 21.046875 22.675781 21.144531 C 22.949219 21.214844 23.207031 21.492188 23.496094 21.566406 C 24.230469 21.753906 24.847656 21.152344 25.457031 22.085938 C 25.839844 22.675781 27.675781 22.644531 27.675781 22.644531 C 27.675781 22.644531 25.589844 23.390625 25.253906 23.445312 C 24.917969 23.503906 24.871094 23.46875 24.554688 23.636719 C 24.28125 23.785156 23.628906 24.039062 23.351562 24.160156 C 23.027344 24.300781 22.5625 24.195312 22.21875 24.160156 C 21.488281 24.085938 20.855469 23.8125 20.152344 23.597656 C 19.570312 23.425781 18.664062 23.054688 18.136719 23.089844 " fill-opacity="1" fill-rule="nonzero"/><g clip-path="url(#736bfb2ca3)"><path fill="#000000" d="M 2.992188 24.546875 C 2.992188 24.546875 3.144531 24.546875 3.425781 24.546875 C 3.566406 24.546875 3.742188 24.554688 3.945312 24.5625 C 4.148438 24.570312 4.382812 24.582031 4.648438 24.597656 C 5.171875 24.625 5.8125 24.671875 6.539062 24.644531 C 6.90625 24.632812 7.292969 24.59375 7.695312 24.523438 C 7.796875 24.507812 7.898438 24.488281 8.003906 24.46875 C 8.105469 24.449219 8.210938 24.425781 8.316406 24.40625 C 8.527344 24.363281 8.738281 24.308594 8.957031 24.257812 C 9.394531 24.148438 9.847656 24.023438 10.3125 23.882812 C 10.546875 23.8125 10.78125 23.734375 11.019531 23.660156 C 11.140625 23.621094 11.257812 23.582031 11.378906 23.542969 C 11.507812 23.5 11.628906 23.46875 11.753906 23.433594 C 11.996094 23.355469 12.261719 23.304688 12.523438 23.242188 C 12.652344 23.21875 12.785156 23.195312 12.917969 23.171875 C 12.984375 23.160156 13.050781 23.148438 13.121094 23.140625 C 13.1875 23.132812 13.253906 23.121094 13.320312 23.113281 C 13.863281 23.039062 14.417969 23.003906 14.984375 22.972656 C 15.546875 22.945312 16.121094 22.914062 16.699219 22.882812 C 17.28125 22.859375 17.871094 22.847656 18.46875 22.890625 C 18.769531 22.914062 19.066406 22.953125 19.363281 23.015625 C 19.660156 23.074219 19.957031 23.15625 20.242188 23.269531 C 20.808594 23.496094 21.332031 23.808594 21.890625 23.976562 C 22.171875 24.0625 22.457031 24.113281 22.742188 24.089844 L 22.851562 24.078125 C 22.886719 24.074219 22.921875 24.066406 22.957031 24.0625 C 22.988281 24.054688 23.027344 24.050781 23.058594 24.042969 L 23.167969 24.015625 L 23.386719 23.957031 C 23.457031 23.9375 23.527344 23.914062 23.59375 23.890625 C 24.15625 23.710938 24.699219 23.457031 25.253906 23.238281 C 25.535156 23.132812 25.8125 23.027344 26.105469 22.949219 C 26.246094 22.914062 26.386719 22.878906 26.53125 22.84375 C 26.675781 22.820312 26.824219 22.792969 26.96875 22.769531 L 27.078125 22.75 L 27.1875 22.738281 C 27.261719 22.734375 27.332031 22.726562 27.40625 22.71875 C 27.480469 22.710938 27.550781 22.707031 27.625 22.699219 C 27.695312 22.695312 27.769531 22.695312 27.839844 22.691406 C 27.984375 22.691406 28.128906 22.683594 28.273438 22.6875 C 28.417969 22.691406 28.558594 22.699219 28.703125 22.707031 C 28.773438 22.707031 28.84375 22.714844 28.914062 22.726562 C 28.984375 22.734375 29.054688 22.742188 29.125 22.75 C 29.195312 22.757812 29.265625 22.765625 29.335938 22.773438 C 29.40625 22.785156 29.476562 22.796875 29.542969 22.8125 C 29.613281 22.824219 29.679688 22.835938 29.75 22.851562 C 29.816406 22.863281 29.886719 22.871094 29.953125 22.890625 C 30.089844 22.929688 30.222656 22.964844 30.355469 23 C 30.875 23.15625 31.378906 23.324219 31.878906 23.457031 C 32.125 23.527344 32.371094 23.589844 32.617188 23.636719 C 32.859375 23.691406 33.101562 23.726562 33.339844 23.753906 C 33.582031 23.78125 33.816406 23.789062 34.050781 23.792969 C 34.164062 23.792969 34.28125 23.789062 34.394531 23.785156 C 34.453125 23.78125 34.507812 23.777344 34.566406 23.773438 C 34.621094 23.769531 34.679688 23.765625 34.734375 23.761719 C 34.792969 23.757812 34.847656 23.753906 34.902344 23.753906 C 34.960938 23.75 35.015625 23.753906 35.074219 23.753906 C 35.1875 23.753906 35.296875 23.761719 35.40625 23.769531 C 35.621094 23.785156 35.832031 23.8125 36.035156 23.84375 C 36.238281 23.875 36.4375 23.910156 36.628906 23.941406 C 36.726562 23.953125 36.820312 23.972656 36.914062 23.984375 C 37.007812 23.992188 37.097656 24.007812 37.191406 24.007812 C 37.550781 24.03125 37.894531 24.003906 38.207031 23.972656 C 38.523438 23.941406 38.8125 23.914062 39.078125 23.902344 C 39.605469 23.875 40.019531 23.894531 40.300781 23.929688 C 40.4375 23.953125 40.546875 23.96875 40.617188 23.992188 C 40.6875 24.011719 40.722656 24.019531 40.722656 24.019531 C 40.722656 24.019531 40.6875 24.011719 40.613281 23.992188 C 40.546875 23.972656 40.4375 23.960938 40.296875 23.941406 C 40.019531 23.914062 39.605469 23.90625 39.078125 23.941406 C 38.816406 23.960938 38.53125 23.996094 38.214844 24.03125 C 37.898438 24.070312 37.554688 24.105469 37.183594 24.089844 C 37.089844 24.089844 37 24.074219 36.902344 24.066406 C 36.804688 24.058594 36.714844 24.042969 36.617188 24.03125 C 36.421875 24.003906 36.226562 23.976562 36.023438 23.945312 C 35.613281 23.890625 35.191406 23.847656 34.742188 23.882812 C 34.6875 23.886719 34.632812 23.890625 34.574219 23.894531 C 34.519531 23.898438 34.460938 23.902344 34.402344 23.910156 C 34.285156 23.917969 34.167969 23.917969 34.050781 23.921875 C 33.8125 23.921875 33.570312 23.917969 33.328125 23.890625 C 33.082031 23.867188 32.835938 23.832031 32.585938 23.78125 C 32.339844 23.734375 32.089844 23.675781 31.835938 23.609375 C 31.335938 23.480469 30.828125 23.316406 30.304688 23.167969 C 29.789062 23.019531 29.246094 22.933594 28.691406 22.890625 C 28.550781 22.886719 28.410156 22.878906 28.269531 22.875 C 28.128906 22.871094 27.988281 22.878906 27.847656 22.882812 C 27.777344 22.882812 27.707031 22.882812 27.636719 22.890625 C 27.566406 22.894531 27.492188 22.902344 27.421875 22.910156 L 27.210938 22.929688 L 27.101562 22.941406 L 27 22.960938 C 26.859375 22.984375 26.71875 23.007812 26.578125 23.03125 C 26.4375 23.070312 26.292969 23.105469 26.152344 23.140625 C 25.875 23.214844 25.601562 23.320312 25.328125 23.425781 C 24.777344 23.644531 24.238281 23.898438 23.65625 24.089844 C 23.582031 24.113281 23.507812 24.140625 23.4375 24.160156 L 23.21875 24.21875 L 23.109375 24.246094 C 23.066406 24.257812 23.03125 24.261719 22.992188 24.269531 C 22.953125 24.277344 22.914062 24.285156 22.875 24.289062 L 22.757812 24.300781 C 22.441406 24.324219 22.125 24.273438 21.832031 24.183594 C 21.234375 24 20.714844 23.683594 20.167969 23.464844 C 19.894531 23.351562 19.609375 23.273438 19.324219 23.214844 C 19.039062 23.152344 18.746094 23.113281 18.453125 23.089844 C 17.871094 23.042969 17.285156 23.054688 16.707031 23.078125 C 16.128906 23.105469 15.554688 23.132812 14.992188 23.160156 C 14.429688 23.1875 13.878906 23.222656 13.34375 23.289062 C 13.277344 23.296875 13.210938 23.304688 13.144531 23.3125 C 13.078125 23.320312 13.011719 23.332031 12.945312 23.339844 C 12.8125 23.363281 12.683594 23.382812 12.550781 23.40625 C 12.296875 23.460938 12.042969 23.507812 11.792969 23.582031 C 11.671875 23.617188 11.542969 23.648438 11.425781 23.6875 C 11.304688 23.726562 11.183594 23.761719 11.0625 23.800781 C 10.820312 23.875 10.585938 23.945312 10.351562 24.011719 C 9.882812 24.152344 9.425781 24.269531 8.984375 24.375 C 8.765625 24.425781 8.550781 24.476562 8.335938 24.515625 C 8.230469 24.535156 8.125 24.554688 8.019531 24.578125 C 7.917969 24.59375 7.8125 24.609375 7.710938 24.625 C 7.304688 24.6875 6.910156 24.71875 6.542969 24.726562 C 5.808594 24.734375 5.167969 24.675781 4.644531 24.640625 C 4.382812 24.621094 4.148438 24.601562 3.945312 24.589844 C 3.738281 24.574219 3.566406 24.5625 3.425781 24.558594 C 3.144531 24.550781 2.992188 24.546875 2.992188 24.546875 Z M 2.992188 24.546875 " fill-opacity="1" fill-rule="nonzero"/></g><g clip-path="url(#eb10d99ea4)"><path fill="#000000" d="M 2.664062 24.59375 C 2.664062 24.59375 2.710938 24.71875 2.796875 24.953125 C 2.839844 25.070312 2.894531 25.210938 2.964844 25.378906 C 3.027344 25.550781 3.109375 25.738281 3.199219 25.953125 C 3.386719 26.382812 3.617188 26.898438 3.921875 27.46875 C 4.226562 28.039062 4.597656 28.667969 5.046875 29.324219 C 5.5 29.976562 6.039062 30.648438 6.667969 31.300781 C 6.828125 31.464844 6.992188 31.621094 7.160156 31.785156 C 7.328125 31.949219 7.5 32.109375 7.667969 32.277344 C 8.015625 32.613281 8.355469 32.957031 8.726562 33.285156 C 8.816406 33.371094 8.910156 33.453125 9.003906 33.53125 C 9.101562 33.609375 9.195312 33.695312 9.292969 33.769531 C 9.390625 33.84375 9.492188 33.921875 9.589844 34 C 9.695312 34.070312 9.796875 34.140625 9.902344 34.214844 L 9.976562 34.265625 L 10.222656 34.417969 C 10.332031 34.484375 10.441406 34.550781 10.550781 34.617188 C 10.660156 34.683594 10.769531 34.753906 10.882812 34.816406 C 10.996094 34.878906 11.109375 34.9375 11.222656 35 C 12.128906 35.492188 13.089844 35.9375 14.066406 36.324219 C 14.554688 36.5 15.054688 36.65625 15.5625 36.777344 C 16.070312 36.898438 16.582031 37 17.09375 37.074219 C 18.113281 37.234375 19.128906 37.320312 20.113281 37.398438 C 20.605469 37.4375 21.089844 37.472656 21.5625 37.515625 C 22.039062 37.554688 22.503906 37.621094 22.949219 37.632812 C 23.394531 37.640625 23.835938 37.617188 24.265625 37.613281 C 24.476562 37.613281 24.691406 37.625 24.894531 37.628906 C 25.097656 37.632812 25.300781 37.640625 25.5 37.644531 C 25.894531 37.667969 26.269531 37.648438 26.628906 37.640625 C 26.71875 37.640625 26.808594 37.636719 26.894531 37.636719 C 26.9375 37.636719 26.980469 37.632812 27.023438 37.632812 C 27.066406 37.632812 27.109375 37.628906 27.152344 37.625 C 27.324219 37.613281 27.484375 37.589844 27.640625 37.5625 C 27.957031 37.507812 28.242188 37.425781 28.511719 37.347656 C 28.777344 37.265625 29.019531 37.191406 29.242188 37.125 C 29.464844 37.066406 29.667969 37.027344 29.84375 36.988281 C 30.019531 36.953125 30.164062 36.914062 30.28125 36.875 C 30.398438 36.835938 30.488281 36.800781 30.542969 36.769531 C 30.601562 36.738281 30.628906 36.726562 30.628906 36.726562 C 30.628906 36.726562 30.601562 36.742188 30.542969 36.773438 C 30.488281 36.804688 30.402344 36.839844 30.285156 36.886719 C 30.167969 36.925781 30.023438 36.972656 29.847656 37.015625 C 29.675781 37.058594 29.472656 37.101562 29.253906 37.167969 C 29.035156 37.234375 28.792969 37.316406 28.527344 37.402344 C 28.261719 37.488281 27.972656 37.578125 27.65625 37.644531 C 27.496094 37.671875 27.328125 37.703125 27.160156 37.714844 C 27.117188 37.71875 27.078125 37.726562 27.03125 37.726562 C 26.988281 37.730469 26.945312 37.730469 26.898438 37.734375 C 26.8125 37.738281 26.722656 37.742188 26.632812 37.746094 C 26.269531 37.757812 25.890625 37.78125 25.496094 37.765625 C 25.296875 37.765625 25.097656 37.761719 24.890625 37.757812 C 24.683594 37.753906 24.480469 37.746094 24.265625 37.753906 C 23.839844 37.761719 23.402344 37.792969 22.945312 37.789062 C 22.710938 37.785156 22.488281 37.773438 22.25 37.75 C 22.019531 37.730469 21.785156 37.710938 21.550781 37.691406 C 21.074219 37.65625 20.589844 37.621094 20.097656 37.585938 C 19.113281 37.507812 18.09375 37.429688 17.0625 37.273438 C 16.546875 37.199219 16.03125 37.097656 15.515625 36.980469 L 15.128906 36.882812 C 15.003906 36.851562 14.875 36.808594 14.75 36.773438 L 14.558594 36.71875 C 14.492188 36.699219 14.429688 36.675781 14.367188 36.652344 L 13.988281 36.523438 C 13.003906 36.128906 12.046875 35.679688 11.125 35.175781 C 11.011719 35.113281 10.898438 35.050781 10.78125 34.988281 C 10.667969 34.925781 10.5625 34.851562 10.449219 34.785156 C 10.339844 34.71875 10.230469 34.652344 10.121094 34.582031 L 9.957031 34.484375 L 9.875 34.433594 L 9.796875 34.375 C 9.691406 34.300781 9.585938 34.226562 9.480469 34.152344 C 9.378906 34.074219 9.277344 33.996094 9.175781 33.917969 C 9.074219 33.839844 8.980469 33.757812 8.886719 33.675781 C 8.789062 33.59375 8.695312 33.511719 8.605469 33.425781 C 8.234375 33.089844 7.886719 32.742188 7.550781 32.40625 C 7.382812 32.234375 7.210938 32.070312 7.046875 31.90625 C 6.882812 31.738281 6.714844 31.574219 6.558594 31.410156 C 5.929688 30.742188 5.398438 30.054688 4.949219 29.390625 C 4.503906 28.726562 4.144531 28.085938 3.855469 27.503906 C 3.5625 26.925781 3.339844 26.402344 3.164062 25.972656 C 3.078125 25.753906 3 25.5625 2.941406 25.390625 C 2.878906 25.21875 2.824219 25.074219 2.785156 24.957031 C 2.707031 24.71875 2.664062 24.59375 2.664062 24.59375 Z M 2.664062 24.59375 " fill-opacity="1" fill-rule="nonzero"/></g><g clip-path="url(#507079df9b)"><path fill="#000000" d="M 42.328125 25.023438 C 42.328125 25.023438 42.289062 25.082031 42.21875 25.191406 C 42.183594 25.246094 42.140625 25.3125 42.089844 25.390625 C 42.042969 25.46875 41.996094 25.566406 41.9375 25.671875 C 41.90625 25.722656 41.878906 25.78125 41.847656 25.839844 C 41.816406 25.898438 41.789062 25.960938 41.757812 26.027344 C 41.726562 26.09375 41.695312 26.160156 41.660156 26.230469 C 41.628906 26.304688 41.597656 26.378906 41.566406 26.457031 C 41.535156 26.535156 41.5 26.613281 41.464844 26.695312 C 41.433594 26.777344 41.398438 26.863281 41.367188 26.953125 C 41.296875 27.128906 41.226562 27.3125 41.148438 27.507812 C 41.074219 27.699219 40.996094 27.898438 40.910156 28.109375 C 40.824219 28.3125 40.730469 28.527344 40.625 28.742188 C 40.527344 28.957031 40.414062 29.171875 40.300781 29.398438 C 40.179688 29.617188 40.058594 29.84375 39.921875 30.0625 C 39.789062 30.289062 39.640625 30.507812 39.496094 30.730469 C 39.417969 30.839844 39.339844 30.949219 39.261719 31.0625 C 39.222656 31.117188 39.179688 31.171875 39.136719 31.222656 L 39.011719 31.382812 L 38.882812 31.546875 L 38.75 31.703125 L 38.613281 31.859375 L 38.546875 31.9375 L 38.476562 32.011719 C 38.289062 32.214844 38.105469 32.417969 37.917969 32.617188 C 37.726562 32.816406 37.53125 33.011719 37.339844 33.210938 C 37.148438 33.40625 36.949219 33.59375 36.753906 33.78125 C 36.5625 33.976562 36.359375 34.152344 36.160156 34.328125 C 36.0625 34.417969 35.960938 34.507812 35.863281 34.597656 C 35.761719 34.675781 35.65625 34.757812 35.558594 34.835938 L 35.480469 34.898438 C 35.457031 34.917969 35.429688 34.933594 35.402344 34.953125 C 35.347656 34.988281 35.292969 35.027344 35.242188 35.0625 C 35.1875 35.097656 35.132812 35.132812 35.082031 35.167969 C 35.03125 35.207031 34.972656 35.234375 34.921875 35.265625 C 34.8125 35.328125 34.707031 35.390625 34.601562 35.453125 C 34.492188 35.507812 34.382812 35.5625 34.277344 35.617188 C 34.226562 35.644531 34.175781 35.671875 34.121094 35.695312 C 34.070312 35.71875 34.015625 35.746094 33.964844 35.769531 C 33.859375 35.816406 33.757812 35.863281 33.652344 35.90625 C 33.449219 35.988281 33.25 36.078125 33.058594 36.148438 C 32.863281 36.21875 32.679688 36.289062 32.503906 36.347656 C 32.414062 36.378906 32.328125 36.410156 32.242188 36.4375 C 32.160156 36.460938 32.070312 36.484375 31.988281 36.496094 C 31.65625 36.546875 31.367188 36.566406 31.132812 36.609375 C 30.894531 36.648438 30.714844 36.695312 30.601562 36.753906 C 30.546875 36.785156 30.503906 36.8125 30.480469 36.835938 C 30.453125 36.855469 30.441406 36.867188 30.441406 36.867188 C 30.441406 36.867188 30.453125 36.855469 30.476562 36.832031 C 30.5 36.808594 30.539062 36.78125 30.59375 36.746094 C 30.707031 36.679688 30.886719 36.617188 31.125 36.566406 C 31.359375 36.515625 31.648438 36.484375 31.972656 36.417969 C 32.054688 36.402344 32.128906 36.378906 32.214844 36.351562 C 32.296875 36.316406 32.382812 36.285156 32.46875 36.25 C 32.640625 36.183594 32.824219 36.109375 33.011719 36.03125 C 33.203125 35.957031 33.394531 35.863281 33.597656 35.777344 C 33.695312 35.726562 33.796875 35.679688 33.898438 35.628906 C 33.949219 35.605469 34 35.582031 34.054688 35.554688 C 34.105469 35.53125 34.15625 35.5 34.207031 35.472656 C 34.308594 35.417969 34.414062 35.363281 34.519531 35.304688 C 34.621094 35.242188 34.726562 35.179688 34.828125 35.113281 C 34.9375 35.054688 35.035156 34.980469 35.136719 34.910156 C 35.1875 34.875 35.238281 34.839844 35.289062 34.804688 C 35.316406 34.785156 35.339844 34.769531 35.367188 34.75 L 35.441406 34.6875 C 35.539062 34.609375 35.640625 34.527344 35.742188 34.441406 C 35.835938 34.355469 35.933594 34.269531 36.03125 34.179688 C 36.222656 34 36.421875 33.824219 36.613281 33.632812 C 36.804688 33.441406 37.003906 33.257812 37.191406 33.058594 C 37.382812 32.863281 37.574219 32.667969 37.761719 32.46875 C 37.949219 32.269531 38.136719 32.066406 38.324219 31.867188 L 38.394531 31.792969 L 38.460938 31.71875 L 38.59375 31.5625 L 38.726562 31.410156 L 38.851562 31.253906 C 39.023438 31.046875 39.179688 30.828125 39.335938 30.617188 C 39.480469 30.398438 39.628906 30.183594 39.761719 29.964844 C 39.902344 29.746094 40.023438 29.527344 40.148438 29.3125 C 40.261719 29.09375 40.382812 28.882812 40.484375 28.667969 C 40.699219 28.25 40.875 27.839844 41.039062 27.457031 C 41.117188 27.269531 41.195312 27.085938 41.273438 26.910156 C 41.308594 26.824219 41.347656 26.742188 41.382812 26.660156 C 41.421875 26.578125 41.457031 26.5 41.496094 26.421875 C 41.53125 26.347656 41.5625 26.273438 41.601562 26.203125 C 41.636719 26.132812 41.671875 26.066406 41.707031 26 C 41.738281 25.9375 41.773438 25.875 41.800781 25.816406 C 41.835938 25.757812 41.871094 25.703125 41.902344 25.648438 C 41.964844 25.546875 42.015625 25.453125 42.070312 25.375 C 42.125 25.300781 42.171875 25.234375 42.210938 25.183594 C 42.285156 25.078125 42.328125 25.023438 42.328125 25.023438 Z M 42.328125 25.023438 " fill-opacity="1" fill-rule="nonzero"/></g><g clip-path="url(#0c8a063099)"><path fill="#000000" d="M 2.664062 24.355469 C 2.664062 24.355469 2.660156 24.332031 2.648438 24.289062 C 2.640625 24.246094 2.628906 24.179688 2.621094 24.09375 C 2.601562 23.921875 2.597656 23.664062 2.640625 23.339844 C 2.679688 23.019531 2.773438 22.632812 2.863281 22.195312 C 2.953125 21.753906 3.054688 21.253906 3.21875 20.722656 C 3.253906 20.585938 3.296875 20.453125 3.34375 20.316406 C 3.390625 20.179688 3.433594 20.035156 3.488281 19.898438 C 3.542969 19.757812 3.59375 19.617188 3.652344 19.472656 C 3.710938 19.328125 3.769531 19.183594 3.832031 19.035156 C 4.085938 18.453125 4.394531 17.851562 4.746094 17.257812 C 4.835938 17.109375 4.929688 16.957031 5.019531 16.808594 C 5.113281 16.660156 5.210938 16.511719 5.304688 16.359375 C 5.507812 16.0625 5.710938 15.769531 5.917969 15.472656 C 6.140625 15.183594 6.359375 14.886719 6.589844 14.597656 C 6.707031 14.457031 6.824219 14.316406 6.945312 14.175781 L 7.125 13.964844 C 7.183594 13.894531 7.242188 13.824219 7.304688 13.757812 L 7.683594 13.351562 C 7.8125 13.21875 7.933594 13.078125 8.066406 12.953125 C 8.199219 12.828125 8.332031 12.699219 8.460938 12.574219 L 8.660156 12.382812 C 8.726562 12.320312 8.796875 12.261719 8.863281 12.199219 C 9.402344 11.714844 9.964844 11.269531 10.527344 10.871094 C 10.667969 10.773438 10.808594 10.675781 10.949219 10.578125 C 11.019531 10.53125 11.089844 10.484375 11.160156 10.433594 C 11.230469 10.390625 11.300781 10.347656 11.371094 10.304688 C 11.511719 10.21875 11.652344 10.132812 11.789062 10.046875 C 11.855469 10.003906 11.925781 9.964844 11.996094 9.929688 C 12.066406 9.890625 12.136719 9.851562 12.207031 9.8125 C 12.34375 9.734375 12.480469 9.660156 12.617188 9.585938 C 12.753906 9.515625 12.886719 9.449219 13.019531 9.382812 C 13.15625 9.316406 13.285156 9.25 13.414062 9.191406 C 13.542969 9.132812 13.671875 9.074219 13.796875 9.019531 C 13.925781 8.964844 14.046875 8.90625 14.167969 8.859375 C 14.292969 8.8125 14.410156 8.765625 14.527344 8.71875 C 14.644531 8.675781 14.757812 8.632812 14.871094 8.589844 C 14.984375 8.550781 15.09375 8.515625 15.199219 8.480469 C 15.304688 8.445312 15.40625 8.414062 15.507812 8.378906 C 15.605469 8.347656 15.699219 8.316406 15.792969 8.292969 C 15.980469 8.238281 16.148438 8.191406 16.304688 8.148438 C 16.457031 8.105469 16.597656 8.074219 16.71875 8.050781 C 16.839844 8.023438 16.945312 8 17.027344 7.980469 C 17.195312 7.945312 17.285156 7.925781 17.285156 7.925781 C 17.285156 7.925781 17.195312 7.949219 17.03125 7.992188 C 16.945312 8.015625 16.84375 8.042969 16.726562 8.074219 C 16.605469 8.105469 16.46875 8.140625 16.316406 8.191406 C 16.164062 8.238281 15.996094 8.289062 15.8125 8.347656 C 15.71875 8.375 15.625 8.410156 15.527344 8.445312 C 15.429688 8.480469 15.328125 8.519531 15.222656 8.554688 C 15.121094 8.59375 15.011719 8.632812 14.902344 8.675781 C 14.792969 8.722656 14.679688 8.769531 14.566406 8.816406 C 14.449219 8.863281 14.332031 8.914062 14.210938 8.960938 C 14.089844 9.011719 13.972656 9.074219 13.847656 9.128906 C 13.722656 9.1875 13.597656 9.246094 13.46875 9.308594 C 13.339844 9.367188 13.214844 9.4375 13.082031 9.507812 C 12.953125 9.574219 12.820312 9.644531 12.683594 9.714844 C 12.554688 9.792969 12.417969 9.867188 12.285156 9.949219 C 12.21875 9.988281 12.148438 10.027344 12.082031 10.066406 C 12.011719 10.105469 11.941406 10.144531 11.875 10.191406 C 11.738281 10.277344 11.601562 10.367188 11.464844 10.453125 C 11.394531 10.5 11.324219 10.542969 11.253906 10.589844 C 11.1875 10.636719 11.117188 10.683594 11.050781 10.734375 C 10.914062 10.828125 10.773438 10.925781 10.636719 11.027344 C 10.082031 11.425781 9.535156 11.875 9 12.355469 C 8.933594 12.414062 8.863281 12.472656 8.800781 12.535156 L 8.605469 12.726562 C 8.476562 12.851562 8.34375 12.976562 8.214844 13.105469 C 8.082031 13.230469 7.960938 13.367188 7.835938 13.5 L 7.464844 13.902344 C 7.398438 13.964844 7.339844 14.035156 7.28125 14.105469 L 7.105469 14.316406 C 6.984375 14.453125 6.867188 14.59375 6.75 14.734375 C 6.523438 15.019531 6.304688 15.308594 6.085938 15.589844 C 5.878906 15.886719 5.671875 16.179688 5.46875 16.472656 C 5.375 16.621094 5.277344 16.765625 5.179688 16.914062 C 5.089844 17.0625 4.996094 17.207031 4.90625 17.355469 C 4.550781 17.941406 4.238281 18.527344 3.972656 19.101562 C 3.910156 19.246094 3.847656 19.386719 3.785156 19.527344 C 3.726562 19.667969 3.671875 19.808594 3.617188 19.949219 C 3.558594 20.085938 3.511719 20.222656 3.464844 20.359375 C 3.417969 20.492188 3.367188 20.625 3.332031 20.757812 C 3.289062 20.890625 3.25 21.019531 3.214844 21.144531 C 3.179688 21.273438 3.144531 21.394531 3.113281 21.519531 C 3.046875 21.761719 2.996094 21.996094 2.941406 22.210938 C 2.835938 22.652344 2.730469 23.027344 2.679688 23.347656 C 2.628906 23.664062 2.617188 23.917969 2.632812 24.089844 C 2.636719 24.175781 2.644531 24.242188 2.652344 24.289062 C 2.660156 24.332031 2.664062 24.355469 2.664062 24.355469 Z M 2.664062 24.355469 " fill-opacity="1" fill-rule="nonzero"/></g><g clip-path="url(#374f98f0a9)"><path fill="#000000" d="M 26.574219 7.839844 C 26.574219 7.839844 26.597656 7.828125 26.640625 7.804688 C 26.683594 7.785156 26.746094 7.753906 26.835938 7.722656 C 27.011719 7.664062 27.285156 7.605469 27.636719 7.613281 C 27.984375 7.617188 28.40625 7.683594 28.878906 7.808594 C 29.347656 7.9375 29.867188 8.121094 30.417969 8.359375 C 30.554688 8.417969 30.691406 8.480469 30.835938 8.542969 C 30.90625 8.574219 30.976562 8.605469 31.050781 8.636719 C 31.121094 8.671875 31.195312 8.707031 31.269531 8.742188 C 31.5625 8.886719 31.851562 9.058594 32.136719 9.25 C 32.714844 9.632812 33.277344 10.09375 33.851562 10.574219 C 34.136719 10.816406 34.425781 11.0625 34.730469 11.296875 C 34.878906 11.417969 35.03125 11.535156 35.183594 11.65625 C 35.335938 11.78125 35.488281 11.902344 35.640625 12.03125 C 36.246094 12.535156 36.84375 13.074219 37.410156 13.644531 L 37.621094 13.859375 L 37.722656 13.96875 L 37.824219 14.082031 C 37.964844 14.238281 38.082031 14.402344 38.195312 14.574219 C 38.421875 14.910156 38.609375 15.265625 38.804688 15.605469 C 38.855469 15.6875 38.90625 15.773438 38.957031 15.855469 C 39.007812 15.941406 39.058594 16.023438 39.109375 16.109375 C 39.15625 16.195312 39.207031 16.28125 39.253906 16.367188 C 39.300781 16.449219 39.347656 16.535156 39.394531 16.621094 C 39.582031 16.964844 39.757812 17.300781 39.949219 17.621094 C 40.140625 17.941406 40.335938 18.257812 40.511719 18.578125 C 40.683594 18.898438 40.847656 19.214844 40.996094 19.527344 C 41.292969 20.15625 41.53125 20.765625 41.71875 21.339844 C 41.90625 21.917969 42.039062 22.457031 42.128906 22.941406 C 42.21875 23.425781 42.265625 23.851562 42.292969 24.203125 C 42.324219 24.554688 42.328125 24.832031 42.328125 25.019531 C 42.328125 25.210938 42.324219 25.308594 42.324219 25.308594 C 42.324219 25.308594 42.324219 25.210938 42.316406 25.019531 C 42.308594 24.832031 42.289062 24.554688 42.253906 24.207031 C 42.214844 23.859375 42.152344 23.433594 42.050781 22.957031 C 41.996094 22.71875 41.9375 22.464844 41.859375 22.203125 C 41.789062 21.941406 41.703125 21.664062 41.605469 21.378906 C 41.410156 20.8125 41.160156 20.210938 40.855469 19.597656 C 40.546875 18.980469 40.1875 18.359375 39.789062 17.71875 C 39.59375 17.394531 39.414062 17.054688 39.226562 16.714844 C 39.132812 16.546875 39.039062 16.378906 38.941406 16.210938 C 38.890625 16.128906 38.839844 16.046875 38.789062 15.960938 C 38.734375 15.878906 38.683594 15.792969 38.636719 15.707031 C 38.433594 15.363281 38.242188 15.015625 38.023438 14.691406 C 37.914062 14.527344 37.796875 14.371094 37.671875 14.226562 L 37.570312 14.117188 L 37.46875 14.011719 L 37.261719 13.792969 C 36.703125 13.226562 36.117188 12.6875 35.515625 12.183594 C 35.367188 12.054688 35.214844 11.933594 35.066406 11.808594 C 34.914062 11.6875 34.761719 11.566406 34.613281 11.449219 C 34.308594 11.207031 34.019531 10.957031 33.734375 10.714844 C 33.164062 10.230469 32.617188 9.757812 32.054688 9.375 C 31.777344 9.179688 31.496094 9.007812 31.210938 8.859375 C 31.140625 8.824219 31.070312 8.789062 31 8.753906 C 30.925781 8.722656 30.855469 8.6875 30.785156 8.65625 C 30.644531 8.589844 30.507812 8.527344 30.371094 8.464844 C 29.828125 8.222656 29.320312 8.019531 28.859375 7.882812 C 28.394531 7.742188 27.980469 7.664062 27.632812 7.652344 C 27.289062 7.632812 27.015625 7.679688 26.839844 7.734375 C 26.75 7.761719 26.683594 7.789062 26.640625 7.808594 C 26.597656 7.828125 26.574219 7.839844 26.574219 7.839844 Z M 26.574219 7.839844 " fill-opacity="1" fill-rule="nonzero"/></g><g clip-path="url(#37354f2418)"><path fill="#000000" d="M 17.285156 7.925781 C 17.285156 7.925781 17.324219 7.921875 17.398438 7.921875 C 17.4375 7.921875 17.484375 7.917969 17.539062 7.917969 C 17.59375 7.917969 17.65625 7.921875 17.726562 7.925781 C 17.796875 7.925781 17.875 7.933594 17.960938 7.941406 C 18.003906 7.945312 18.046875 7.949219 18.09375 7.953125 C 18.140625 7.960938 18.1875 7.964844 18.234375 7.972656 C 18.433594 7.996094 18.652344 8.039062 18.890625 8.089844 C 19.125 8.148438 19.382812 8.210938 19.648438 8.292969 C 19.914062 8.371094 20.195312 8.457031 20.480469 8.554688 C 20.769531 8.648438 21.0625 8.742188 21.367188 8.832031 C 21.667969 8.925781 21.976562 9.011719 22.285156 9.0625 C 22.441406 9.085938 22.597656 9.105469 22.75 9.105469 C 22.902344 9.109375 23.054688 9.09375 23.207031 9.066406 C 23.503906 9.011719 23.789062 8.898438 24.0625 8.773438 C 24.335938 8.652344 24.601562 8.523438 24.851562 8.402344 C 25.101562 8.28125 25.339844 8.175781 25.566406 8.082031 C 25.792969 7.992188 26.003906 7.917969 26.195312 7.863281 C 26.382812 7.808594 26.554688 7.773438 26.695312 7.761719 C 26.839844 7.746094 26.953125 7.757812 27.027344 7.773438 C 27.0625 7.78125 27.089844 7.789062 27.109375 7.796875 C 27.128906 7.804688 27.136719 7.808594 27.136719 7.808594 C 27.136719 7.808594 27.128906 7.804688 27.109375 7.800781 C 27.089844 7.792969 27.0625 7.789062 27.023438 7.78125 C 26.949219 7.773438 26.839844 7.777344 26.703125 7.800781 C 26.5625 7.824219 26.398438 7.871094 26.214844 7.933594 C 26.03125 8 25.828125 8.085938 25.613281 8.1875 C 25.394531 8.289062 25.160156 8.410156 24.917969 8.539062 C 24.671875 8.667969 24.414062 8.8125 24.140625 8.945312 C 23.867188 9.074219 23.570312 9.207031 23.246094 9.269531 C 23.082031 9.304688 22.914062 9.320312 22.746094 9.316406 C 22.582031 9.316406 22.414062 9.300781 22.253906 9.273438 C 21.925781 9.214844 21.609375 9.125 21.308594 9.03125 C 21.003906 8.933594 20.707031 8.828125 20.421875 8.730469 C 20.136719 8.628906 19.863281 8.527344 19.601562 8.441406 C 19.339844 8.351562 19.089844 8.273438 18.859375 8.207031 C 18.628906 8.144531 18.414062 8.085938 18.222656 8.050781 C 18.128906 8.03125 18.039062 8.011719 17.953125 8 C 17.871094 7.984375 17.792969 7.972656 17.722656 7.964844 C 17.65625 7.957031 17.59375 7.949219 17.539062 7.941406 C 17.484375 7.9375 17.4375 7.933594 17.398438 7.933594 C 17.324219 7.925781 17.285156 7.925781 17.285156 7.925781 Z M 17.285156 7.925781 " fill-opacity="1" fill-rule="nonzero"/></g><path fill="#3c2415" d="M 13.464844 23.136719 C 13.464844 23.136719 13.492188 23.132812 13.546875 23.125 C 13.605469 23.121094 13.683594 23.109375 13.789062 23.097656 C 13.890625 23.085938 14.019531 23.074219 14.160156 23.054688 C 14.304688 23.035156 14.464844 23.011719 14.640625 22.992188 C 14.816406 22.964844 15.007812 22.9375 15.210938 22.914062 C 15.410156 22.890625 15.625 22.859375 15.84375 22.832031 C 16.066406 22.808594 16.292969 22.777344 16.527344 22.753906 C 16.757812 22.730469 16.996094 22.707031 17.230469 22.683594 C 17.351562 22.675781 17.46875 22.664062 17.585938 22.65625 C 17.703125 22.648438 17.824219 22.640625 17.941406 22.632812 C 18.058594 22.625 18.171875 22.617188 18.289062 22.613281 C 18.40625 22.613281 18.519531 22.613281 18.632812 22.609375 C 18.6875 22.609375 18.742188 22.609375 18.796875 22.609375 C 18.851562 22.609375 18.90625 22.609375 18.960938 22.613281 C 19.066406 22.617188 19.167969 22.613281 19.269531 22.613281 C 19.46875 22.609375 19.652344 22.597656 19.800781 22.539062 C 19.875 22.507812 19.949219 22.464844 20.023438 22.425781 C 20.097656 22.386719 20.167969 22.355469 20.238281 22.328125 C 20.304688 22.296875 20.371094 22.273438 20.429688 22.253906 C 20.492188 22.234375 20.546875 22.222656 20.597656 22.207031 C 20.699219 22.175781 20.777344 22.164062 20.832031 22.152344 C 20.886719 22.140625 20.917969 22.132812 20.917969 22.132812 C 20.917969 22.132812 20.890625 22.144531 20.839844 22.167969 C 20.785156 22.1875 20.710938 22.21875 20.617188 22.261719 C 20.570312 22.28125 20.515625 22.304688 20.460938 22.332031 C 20.433594 22.347656 20.402344 22.359375 20.375 22.375 C 20.34375 22.390625 20.316406 22.40625 20.285156 22.425781 C 20.222656 22.460938 20.15625 22.5 20.09375 22.546875 C 20.023438 22.589844 19.957031 22.640625 19.867188 22.6875 C 19.78125 22.730469 19.683594 22.761719 19.585938 22.785156 C 19.535156 22.796875 19.484375 22.800781 19.433594 22.8125 C 19.382812 22.816406 19.332031 22.820312 19.28125 22.828125 C 19.175781 22.835938 19.066406 22.84375 18.960938 22.847656 C 18.910156 22.851562 18.855469 22.851562 18.800781 22.855469 C 18.746094 22.859375 18.691406 22.859375 18.636719 22.863281 C 18.527344 22.867188 18.414062 22.875 18.300781 22.882812 C 18.1875 22.890625 18.074219 22.898438 17.957031 22.910156 C 17.84375 22.917969 17.726562 22.925781 17.609375 22.933594 C 17.492188 22.945312 17.375 22.957031 17.257812 22.96875 C 17.019531 22.988281 16.785156 23.007812 16.550781 23.03125 C 16.320312 23.050781 16.089844 23.066406 15.867188 23.085938 C 15.425781 23.117188 15.011719 23.140625 14.652344 23.152344 C 14.472656 23.160156 14.308594 23.160156 14.164062 23.160156 C 14.019531 23.164062 13.894531 23.160156 13.789062 23.152344 C 13.6875 23.152344 13.605469 23.144531 13.546875 23.140625 C 13.492188 23.136719 13.464844 23.136719 13.464844 23.136719 Z M 13.464844 23.136719 " fill-opacity="1" fill-rule="nonzero"/><path fill="#3c2415" d="M 25.3125 21.964844 C 25.3125 21.964844 25.328125 21.980469 25.359375 22.011719 C 25.378906 22.027344 25.398438 22.042969 25.421875 22.066406 C 25.445312 22.085938 25.46875 22.101562 25.5 22.121094 C 25.511719 22.132812 25.527344 22.144531 25.542969 22.15625 C 25.5625 22.164062 25.578125 22.175781 25.597656 22.1875 C 25.617188 22.199219 25.636719 22.210938 25.660156 22.226562 C 25.679688 22.234375 25.703125 22.246094 25.726562 22.257812 C 25.820312 22.308594 25.933594 22.347656 26.058594 22.386719 C 26.183594 22.421875 26.328125 22.453125 26.480469 22.476562 C 26.632812 22.496094 26.800781 22.511719 26.972656 22.519531 C 27.144531 22.527344 27.324219 22.535156 27.507812 22.539062 C 27.554688 22.539062 27.601562 22.539062 27.648438 22.542969 C 27.699219 22.542969 27.742188 22.546875 27.789062 22.546875 C 27.882812 22.554688 27.976562 22.558594 28.070312 22.5625 C 28.160156 22.566406 28.257812 22.578125 28.351562 22.585938 C 28.445312 22.59375 28.539062 22.601562 28.628906 22.613281 C 28.8125 22.640625 28.996094 22.660156 29.167969 22.695312 C 29.253906 22.710938 29.339844 22.722656 29.421875 22.742188 C 29.503906 22.761719 29.585938 22.78125 29.664062 22.796875 C 29.742188 22.8125 29.820312 22.832031 29.894531 22.851562 C 29.964844 22.871094 30.035156 22.890625 30.105469 22.910156 C 30.242188 22.945312 30.363281 22.984375 30.472656 23.015625 C 30.582031 23.046875 30.675781 23.078125 30.753906 23.105469 C 30.910156 23.152344 31 23.183594 31 23.183594 C 31 23.183594 30.910156 23.160156 30.75 23.117188 C 30.671875 23.097656 30.574219 23.070312 30.464844 23.046875 C 30.355469 23.023438 30.230469 22.988281 30.09375 22.960938 C 30.023438 22.949219 29.953125 22.933594 29.878906 22.917969 C 29.804688 22.902344 29.726562 22.890625 29.648438 22.878906 C 29.570312 22.867188 29.488281 22.851562 29.40625 22.839844 C 29.324219 22.824219 29.238281 22.816406 29.152344 22.808594 C 28.980469 22.78125 28.796875 22.773438 28.617188 22.757812 C 28.527344 22.75 28.433594 22.75 28.34375 22.746094 C 28.25 22.746094 28.160156 22.738281 28.066406 22.742188 C 27.972656 22.742188 27.878906 22.742188 27.785156 22.746094 C 27.738281 22.746094 27.691406 22.746094 27.648438 22.746094 C 27.601562 22.746094 27.554688 22.75 27.511719 22.75 C 27.328125 22.757812 27.144531 22.761719 26.96875 22.765625 C 26.789062 22.765625 26.617188 22.761719 26.453125 22.75 C 26.285156 22.734375 26.128906 22.710938 25.984375 22.679688 C 25.839844 22.644531 25.707031 22.605469 25.59375 22.554688 C 25.566406 22.542969 25.539062 22.53125 25.511719 22.519531 C 25.484375 22.503906 25.460938 22.492188 25.4375 22.480469 C 25.414062 22.46875 25.390625 22.457031 25.367188 22.445312 C 25.347656 22.429688 25.328125 22.417969 25.308594 22.402344 C 25.269531 22.378906 25.230469 22.355469 25.203125 22.335938 C 25.179688 22.316406 25.15625 22.300781 25.140625 22.285156 C 25.105469 22.257812 25.085938 22.242188 25.085938 22.242188 Z M 25.3125 21.964844 " fill-opacity="1" fill-rule="nonzero"/></svg>