<svg xmlns="http://www.w3.org/2000/svg" xmlns:xlink="http://www.w3.org/1999/xlink" width="60" zoomAndPan="magnify" viewBox="0 0 45 44.999999" height="60" preserveAspectRatio="xMidYMid meet" version="1.0"><defs><clipPath id="6530676604"><path d="M 17 15 L 34 15 L 34 41.566406 L 17 41.566406 Z M 17 15 " clip-rule="nonzero"/></clipPath><clipPath id="80b01b5e05"><path d="M 10 15 L 28 15 L 28 41.566406 L 10 41.566406 Z M 10 15 " clip-rule="nonzero"/></clipPath></defs><path fill="#dd2e44" d="M 21.042969 15.605469 C 20.0625 13.410156 18.902344 11.242188 17.8125 8.890625 C 17.78125 8.816406 17.757812 8.742188 17.722656 8.667969 C 17.65625 8.515625 17.578125 8.371094 17.5 8.226562 L 17.445312 8.105469 L 17.445312 8.109375 C 15.695312 4.902344 12.003906 3.433594 8.921875 4.820312 C 5.667969 6.285156 4.332031 10.390625 5.941406 13.984375 C 7.550781 17.578125 11.492188 19.300781 14.746094 17.832031 C 14.859375 17.78125 14.964844 17.71875 15.070312 17.660156 C 17.140625 18.132812 17.203125 19.675781 17.203125 19.675781 C 17.203125 19.675781 22.136719 18.042969 21.042969 15.605469 Z M 8.300781 12.921875 C 7.277344 10.632812 8.03125 8.066406 9.980469 7.1875 C 11.933594 6.304688 14.34375 7.445312 15.367188 9.730469 C 16.390625 12.019531 15.636719 14.585938 13.6875 15.464844 C 11.734375 16.347656 9.320312 15.207031 8.300781 12.921875 Z M 8.300781 12.921875 " fill-opacity="1" fill-rule="nonzero"/><g clip-path="url(#6530676604)"><path fill="#99aab5" d="M 31.910156 41.554688 C 33.152344 40.847656 34.246094 38.898438 33.542969 37.652344 L 20.988281 15.480469 C 19.808594 16.011719 17.847656 17.960938 17.203125 19.675781 Z M 31.910156 41.554688 " fill-opacity="1" fill-rule="nonzero"/></g><path fill="#dd2e44" d="M 35.714844 4.820312 C 32.636719 3.429688 28.945312 4.902344 27.195312 8.109375 L 27.191406 8.105469 L 27.132812 8.226562 C 27.058594 8.371094 26.980469 8.515625 26.914062 8.667969 C 26.878906 8.742188 26.855469 8.816406 26.824219 8.890625 C 25.734375 11.242188 24.574219 13.40625 23.59375 15.601562 C 22.503906 18.042969 27.4375 19.675781 27.4375 19.675781 C 27.4375 19.675781 27.5 18.132812 29.566406 17.660156 C 29.671875 17.71875 29.777344 17.78125 29.894531 17.832031 C 33.144531 19.300781 37.085938 17.578125 38.695312 13.984375 C 40.304688 10.390625 38.96875 6.285156 35.714844 4.820312 Z M 36.339844 12.921875 C 35.3125 15.207031 32.902344 16.347656 30.949219 15.464844 C 29 14.585938 28.246094 12.019531 29.269531 9.730469 C 30.292969 7.445312 32.703125 6.304688 34.65625 7.1875 C 36.609375 8.066406 37.359375 10.632812 36.339844 12.921875 Z M 36.339844 12.921875 " fill-opacity="1" fill-rule="nonzero"/><g clip-path="url(#80b01b5e05)"><path fill="#ccd6dd" d="M 12.726562 41.554688 C 11.484375 40.847656 10.390625 38.898438 11.09375 37.652344 L 23.648438 15.480469 C 24.828125 16.011719 26.789062 17.960938 27.4375 19.675781 Z M 12.726562 41.554688 " fill-opacity="1" fill-rule="nonzero"/></g><path fill="#99aab5" d="M 23.988281 22.8125 C 23.988281 23.738281 23.238281 24.488281 22.320312 24.488281 C 21.398438 24.488281 20.648438 23.738281 20.648438 22.8125 C 20.648438 21.886719 21.398438 21.136719 22.320312 21.136719 C 23.238281 21.136719 23.988281 21.886719 23.988281 22.8125 Z M 23.988281 22.8125 " fill-opacity="1" fill-rule="nonzero"/></svg>