<svg xmlns="http://www.w3.org/2000/svg" xmlns:xlink="http://www.w3.org/1999/xlink" width="60" zoomAndPan="magnify" viewBox="0 0 45 44.999999" height="60" preserveAspectRatio="xMidYMid meet" version="1.0"><path fill="#ffcc00" d="M 22.511719 -0.0117188 C 34.933594 -0.0117188 45.007812 10.0625 45.007812 22.484375 C 45.007812 34.910156 34.933594 44.980469 22.511719 44.980469 C 10.085938 44.980469 0.0117188 34.910156 0.0117188 22.484375 C 0.0117188 10.0625 10.085938 -0.0117188 22.511719 -0.0117188 " fill-opacity="1" fill-rule="evenodd"/><path fill="#000000" d="M 22.511719 1.925781 C 28.1875 1.925781 33.328125 4.226562 37.050781 7.945312 C 40.769531 11.667969 43.070312 16.808594 43.070312 22.484375 C 43.070312 28.160156 40.769531 33.300781 37.050781 37.023438 C 33.328125 40.742188 28.1875 43.042969 22.511719 43.042969 C 16.835938 43.042969 11.695312 40.742188 7.972656 37.023438 C 4.253906 33.300781 1.953125 28.160156 1.953125 22.484375 C 1.953125 16.808594 4.253906 11.667969 7.972656 7.945312 C 11.695312 4.226562 16.835938 1.925781 22.511719 1.925781 Z M 36.152344 8.847656 C 32.660156 5.355469 27.835938 3.199219 22.511719 3.199219 C 17.183594 3.199219 12.363281 5.355469 8.871094 8.847656 C 5.382812 12.339844 3.222656 17.160156 3.222656 22.484375 C 3.222656 27.8125 5.382812 32.632812 8.871094 36.125 C 12.363281 39.613281 17.183594 41.773438 22.511719 41.773438 C 27.835938 41.773438 32.660156 39.613281 36.152344 36.125 C 39.640625 32.632812 41.796875 27.8125 41.796875 22.484375 C 41.796875 17.160156 39.640625 12.339844 36.152344 8.847656 " fill-opacity="1" fill-rule="nonzero"/><path fill="#000000" d="M 16.589844 11.988281 C 18.183594 11.988281 19.480469 14.484375 19.480469 17.5625 C 19.480469 20.640625 18.183594 23.136719 16.589844 23.136719 C 14.992188 23.136719 13.699219 20.640625 13.699219 17.5625 C 13.699219 14.484375 14.992188 11.988281 16.589844 11.988281 " fill-opacity="1" fill-rule="evenodd"/><path fill="#000000" d="M 27.964844 11.988281 C 29.5625 11.988281 30.855469 14.484375 30.855469 17.5625 C 30.855469 20.640625 29.5625 23.136719 27.964844 23.136719 C 26.367188 23.136719 25.074219 20.640625 25.074219 17.5625 C 25.074219 14.484375 26.367188 11.988281 27.964844 11.988281 " fill-opacity="1" fill-rule="evenodd"/><path fill="#000000" d="M 36.398438 25.902344 C 35.640625 29 33.867188 31.703125 31.457031 33.640625 C 29.007812 35.605469 25.894531 36.785156 22.511719 36.785156 C 19.125 36.785156 16.015625 35.605469 13.5625 33.640625 C 11.152344 31.703125 9.382812 29 8.621094 25.902344 C 8.386719 25.84375 8.167969 25.734375 7.980469 25.582031 C 7.6875 25.347656 7.476562 25.019531 7.394531 24.640625 C 7.335938 24.375 7.503906 24.113281 7.769531 24.058594 C 8.03125 24.003906 8.292969 24.171875 8.347656 24.433594 C 8.382812 24.589844 8.46875 24.726562 8.589844 24.824219 C 8.710938 24.917969 8.859375 24.972656 9.023438 24.972656 C 9.1875 24.972656 9.335938 24.917969 9.453125 24.824219 C 9.574219 24.726562 9.660156 24.589844 9.695312 24.433594 C 9.753906 24.171875 10.015625 24.003906 10.277344 24.058594 C 10.542969 24.113281 10.710938 24.375 10.652344 24.640625 C 10.570312 25.019531 10.359375 25.351562 10.066406 25.582031 C 9.929688 25.691406 9.78125 25.78125 9.617188 25.839844 C 10.347656 28.65625 11.972656 31.109375 14.175781 32.878906 C 16.457031 34.707031 19.355469 35.804688 22.511719 35.804688 C 25.667969 35.804688 28.5625 34.707031 30.847656 32.878906 C 33.046875 31.109375 34.675781 28.65625 35.40625 25.839844 C 35.242188 25.78125 35.089844 25.691406 34.957031 25.582031 C 34.664062 25.351562 34.453125 25.019531 34.371094 24.640625 C 34.3125 24.375 34.480469 24.113281 34.746094 24.058594 C 35.007812 24.003906 35.269531 24.171875 35.324219 24.433594 C 35.359375 24.589844 35.445312 24.726562 35.566406 24.824219 C 35.683594 24.917969 35.835938 24.972656 36 24.972656 C 36.164062 24.972656 36.3125 24.917969 36.429688 24.824219 C 36.550781 24.726562 36.636719 24.589844 36.671875 24.433594 C 36.730469 24.171875 36.988281 24.003906 37.253906 24.058594 C 37.519531 24.113281 37.683594 24.375 37.625 24.640625 C 37.546875 25.019531 37.335938 25.351562 37.042969 25.582031 C 36.855469 25.734375 36.636719 25.84375 36.398438 25.902344 " fill-opacity="1" fill-rule="nonzero"/><path fill="#ffffff" d="M 17.289062 13.261719 C 17.679688 13.261719 17.996094 13.871094 17.996094 14.628906 C 17.996094 15.378906 17.679688 15.992188 17.289062 15.992188 C 16.894531 15.992188 16.578125 15.378906 16.578125 14.628906 C 16.578125 13.871094 16.894531 13.261719 17.289062 13.261719 " fill-opacity="1" fill-rule="evenodd"/><path fill="#ffffff" d="M 28.847656 13.261719 C 29.238281 13.261719 29.554688 13.871094 29.554688 14.628906 C 29.554688 15.378906 29.238281 15.992188 28.847656 15.992188 C 28.457031 15.992188 28.136719 15.378906 28.136719 14.628906 C 28.136719 13.871094 28.457031 13.261719 28.847656 13.261719 " fill-opacity="1" fill-rule="evenodd"/></svg>